G04*
G04 #@! TF.GenerationSoftware,Altium Limited,Altium Designer,23.1.1 (15)*
G04*
G04 Layer_Physical_Order=4*
G04 Layer_Color=16711680*
%FSLAX24Y24*%
%MOIN*%
G70*
G04*
G04 #@! TF.SameCoordinates,EDFB4F86-8D80-4751-AEB2-894B5B2271B4*
G04*
G04*
G04 #@! TF.FilePolarity,Positive*
G04*
G01*
G75*
%ADD16C,0.0100*%
%ADD47C,0.0150*%
%ADD49C,0.0650*%
%ADD50R,0.0650X0.0650*%
%ADD51C,0.0180*%
%ADD52C,0.0200*%
G36*
X6365Y13920D02*
Y6813D01*
X5685Y6133D01*
X204D01*
Y14429D01*
X5856D01*
X6365Y13920D01*
D02*
G37*
G36*
X20981Y204D02*
X204D01*
Y5733D01*
X5985D01*
X6735Y6483D01*
Y14233D01*
X6931Y14429D01*
X20981D01*
Y204D01*
D02*
G37*
%LPC*%
G36*
X19810Y11608D02*
X18960D01*
Y10810D01*
X12625D01*
Y10820D01*
X12596Y10890D01*
X12543Y10944D01*
X12473Y10973D01*
X12397D01*
X12328Y10944D01*
X12274Y10890D01*
X12245Y10820D01*
Y10745D01*
X12274Y10675D01*
X12328Y10622D01*
X12397Y10593D01*
X12409D01*
X12452Y10549D01*
X12502Y10516D01*
X12560Y10505D01*
X19847D01*
X19995Y10357D01*
X19989Y10347D01*
X19960Y10239D01*
Y10127D01*
X19989Y10019D01*
X20045Y9922D01*
X20124Y9843D01*
X20221Y9787D01*
X20329Y9758D01*
X20441D01*
X20549Y9787D01*
X20646Y9843D01*
X20725Y9922D01*
X20781Y10019D01*
X20810Y10127D01*
Y10239D01*
X20781Y10347D01*
X20725Y10444D01*
X20646Y10523D01*
X20549Y10579D01*
X20441Y10608D01*
X20329D01*
X20221Y10579D01*
X20211Y10573D01*
X20019Y10766D01*
X19969Y10799D01*
X19910Y10810D01*
X19810D01*
Y11608D01*
D02*
G37*
G36*
X19441Y9607D02*
X19329D01*
X19221Y9579D01*
X19124Y9523D01*
X19045Y9444D01*
X18989Y9347D01*
X18960Y9239D01*
Y9127D01*
X18985Y9035D01*
X18278Y8328D01*
X18240Y8270D01*
X18226Y8202D01*
Y6768D01*
X18209Y6756D01*
X18169Y6779D01*
X18164Y6785D01*
Y7617D01*
X18175Y7645D01*
Y7720D01*
X18146Y7790D01*
X18093Y7844D01*
X18023Y7873D01*
X17947D01*
X17878Y7844D01*
X17824Y7790D01*
X17795Y7720D01*
Y7645D01*
X17807Y7617D01*
Y7492D01*
X17757Y7459D01*
X17723Y7473D01*
X17647D01*
X17578Y7444D01*
X17524Y7390D01*
X17511Y7359D01*
X17457D01*
X17456Y7360D01*
X17403Y7414D01*
X17333Y7443D01*
X17257D01*
X17188Y7414D01*
X17134Y7360D01*
X17123Y7332D01*
X16621Y6831D01*
X12309D01*
X12154Y6987D01*
Y7803D01*
X12154Y7803D01*
X12140Y7871D01*
X12101Y7929D01*
X12101Y7929D01*
X11621Y8409D01*
X11564Y8448D01*
X11495Y8461D01*
X10151D01*
X10123Y8473D01*
X10047D01*
X9978Y8444D01*
X9924Y8390D01*
X9895Y8320D01*
Y8245D01*
X9924Y8175D01*
X9978Y8122D01*
X10047Y8093D01*
X10123D01*
X10151Y8104D01*
X11421D01*
X11797Y7729D01*
Y6913D01*
X11810Y6844D01*
X11849Y6787D01*
X12109Y6527D01*
X12109Y6527D01*
X12167Y6488D01*
X12235Y6474D01*
X12235Y6474D01*
X16695D01*
X16764Y6488D01*
X16821Y6527D01*
X17375Y7080D01*
X17403Y7092D01*
X17440Y7128D01*
X17490Y7108D01*
Y7057D01*
X16790Y6357D01*
X11872D01*
X11659Y6569D01*
Y7478D01*
X11659Y7478D01*
X11645Y7546D01*
X11607Y7604D01*
X11607Y7604D01*
X11412Y7799D01*
X11354Y7838D01*
X11286Y7851D01*
X10117D01*
X10113Y7853D01*
X10037D01*
X9968Y7824D01*
X9945Y7801D01*
X9935Y7795D01*
X9929Y7785D01*
X9914Y7770D01*
X9906Y7751D01*
X9897Y7737D01*
X9893Y7719D01*
X9885Y7700D01*
Y7680D01*
X9883Y7668D01*
X9885Y7657D01*
Y7625D01*
X9914Y7555D01*
X9968Y7502D01*
X10037Y7473D01*
X10113D01*
X10165Y7494D01*
X11212D01*
X11302Y7404D01*
Y6495D01*
X11316Y6427D01*
X11354Y6369D01*
X11672Y6052D01*
X11730Y6013D01*
X11798Y6000D01*
X16863D01*
X16883Y6004D01*
X16908Y5957D01*
X15511Y4561D01*
X7785D01*
X7717Y4548D01*
X7659Y4509D01*
X7059Y3909D01*
X7020Y3851D01*
X7007Y3783D01*
Y2948D01*
X6995Y2921D01*
Y2845D01*
X7024Y2775D01*
X7078Y2722D01*
X7147Y2693D01*
X7223D01*
X7293Y2722D01*
X7346Y2775D01*
X7375Y2845D01*
Y2921D01*
X7364Y2948D01*
Y3709D01*
X7859Y4204D01*
X13004D01*
X13024Y4154D01*
X11761Y2891D01*
X11226D01*
X11173Y2944D01*
X11103Y2973D01*
X11027D01*
X10958Y2944D01*
X10904Y2890D01*
X10875Y2821D01*
Y2745D01*
X10904Y2675D01*
X10958Y2622D01*
X10999Y2604D01*
X11017Y2587D01*
X11075Y2548D01*
X11143Y2534D01*
X11143Y2534D01*
X11835D01*
X11904Y2548D01*
X11961Y2587D01*
X13243Y3868D01*
X13458D01*
X13473Y3818D01*
X13459Y3809D01*
X13459Y3809D01*
X11911Y2261D01*
X11249D01*
X11228Y2310D01*
X11175Y2364D01*
X11105Y2393D01*
X11029D01*
X10959Y2364D01*
X10906Y2310D01*
X10877Y2240D01*
Y2165D01*
X10906Y2095D01*
X10959Y2042D01*
X10965Y2039D01*
X11048Y1957D01*
X11082Y1934D01*
X11083Y1933D01*
X11088Y1874D01*
X11088Y1874D01*
X11054Y1840D01*
X11025Y1770D01*
Y1695D01*
X11054Y1625D01*
X11108Y1572D01*
X11177Y1543D01*
X11253D01*
X11281Y1554D01*
X11604D01*
X11616Y1546D01*
X11684Y1533D01*
X12124D01*
X12192Y1546D01*
X12250Y1585D01*
X13919Y3254D01*
X16010D01*
X16078Y3268D01*
X16136Y3307D01*
X17740Y4910D01*
X17768Y4922D01*
X17821Y4975D01*
X17850Y5045D01*
Y5121D01*
X17821Y5190D01*
X17768Y5244D01*
X17761Y5247D01*
X17751Y5296D01*
X19237Y6783D01*
X19329Y6758D01*
X19441D01*
X19549Y6787D01*
X19646Y6843D01*
X19725Y6922D01*
X19781Y7019D01*
X19810Y7127D01*
Y7239D01*
X19781Y7347D01*
X19725Y7444D01*
X19646Y7523D01*
X19549Y7579D01*
X19441Y7607D01*
X19329D01*
X19221Y7579D01*
X19124Y7523D01*
X19045Y7444D01*
X18989Y7347D01*
X18960Y7239D01*
Y7127D01*
X18985Y7035D01*
X18633Y6683D01*
X18583Y6703D01*
Y8128D01*
X19237Y8783D01*
X19329Y8758D01*
X19441D01*
X19549Y8787D01*
X19646Y8843D01*
X19725Y8922D01*
X19781Y9019D01*
X19810Y9127D01*
Y9239D01*
X19781Y9347D01*
X19725Y9444D01*
X19646Y9523D01*
X19549Y9579D01*
X19441Y9607D01*
D02*
G37*
G36*
X20441Y8608D02*
X20329D01*
X20221Y8579D01*
X20124Y8523D01*
X20045Y8444D01*
X19989Y8347D01*
X19960Y8239D01*
Y8127D01*
X19989Y8019D01*
X20045Y7922D01*
X20124Y7843D01*
X20221Y7787D01*
X20329Y7758D01*
X20441D01*
X20549Y7787D01*
X20646Y7843D01*
X20725Y7922D01*
X20781Y8019D01*
X20810Y8127D01*
Y8239D01*
X20781Y8347D01*
X20725Y8444D01*
X20646Y8523D01*
X20549Y8579D01*
X20441Y8608D01*
D02*
G37*
G36*
Y6607D02*
X20329D01*
X20221Y6579D01*
X20124Y6523D01*
X20045Y6444D01*
X19989Y6347D01*
X19960Y6239D01*
Y6127D01*
X19989Y6019D01*
X20045Y5922D01*
X20124Y5843D01*
X20221Y5787D01*
X20329Y5758D01*
X20441D01*
X20549Y5787D01*
X20646Y5843D01*
X20725Y5922D01*
X20781Y6019D01*
X20810Y6127D01*
Y6239D01*
X20781Y6347D01*
X20725Y6444D01*
X20646Y6523D01*
X20549Y6579D01*
X20441Y6607D01*
D02*
G37*
G36*
X19441Y5608D02*
X19329D01*
X19221Y5579D01*
X19124Y5523D01*
X19045Y5444D01*
X18989Y5347D01*
X18960Y5239D01*
Y5127D01*
X18989Y5019D01*
X19045Y4922D01*
X19124Y4843D01*
X19221Y4787D01*
X19329Y4758D01*
X19441D01*
X19549Y4787D01*
X19646Y4843D01*
X19725Y4922D01*
X19781Y5019D01*
X19810Y5127D01*
Y5239D01*
X19781Y5347D01*
X19725Y5444D01*
X19646Y5523D01*
X19549Y5579D01*
X19441Y5608D01*
D02*
G37*
G36*
X20441Y4608D02*
X20329D01*
X20221Y4579D01*
X20124Y4523D01*
X20045Y4444D01*
X19989Y4347D01*
X19960Y4239D01*
Y4127D01*
X19989Y4019D01*
X20045Y3922D01*
X20124Y3843D01*
X20221Y3787D01*
X20329Y3758D01*
X20441D01*
X20549Y3787D01*
X20646Y3843D01*
X20725Y3922D01*
X20781Y4019D01*
X20810Y4127D01*
Y4239D01*
X20781Y4347D01*
X20725Y4444D01*
X20646Y4523D01*
X20549Y4579D01*
X20441Y4608D01*
D02*
G37*
%LPD*%
D16*
X19910Y10658D02*
X20385Y10183D01*
X12560Y10658D02*
X19910D01*
X12435Y10783D02*
X12560Y10658D01*
D47*
X13845Y3433D02*
X16010D01*
X17660Y5083D01*
X17660D01*
X12124Y1711D02*
X13845Y3433D01*
X12235Y6653D02*
X16695D01*
X17295Y7253D01*
X11065Y2783D02*
X11073D01*
X11143Y2713D02*
X11835D01*
X11073Y2783D02*
X11143Y2713D01*
X11061Y2195D02*
X11174Y2083D01*
X11985D01*
X13585Y3683D01*
X11835Y2713D02*
X13169Y4046D01*
X10061Y7668D02*
X10102D01*
X10106Y7673D02*
X11286D01*
X11481Y7478D01*
X10102Y7668D02*
X10106Y7673D01*
X17668Y7257D02*
X17685Y7275D01*
X16863Y6178D02*
X17668Y6983D01*
X11798Y6178D02*
X16863D01*
X17685Y7275D02*
Y7283D01*
X11481Y6495D02*
X11798Y6178D01*
X17668Y6983D02*
Y7257D01*
X11481Y6495D02*
Y7478D01*
X17485Y5283D02*
Y5283D01*
X13585Y3683D02*
X15885D01*
X17485Y5283D01*
Y5283D02*
X19385Y7183D01*
X11215Y1733D02*
X11663D01*
X11684Y1711D02*
X12124D01*
X11663Y1733D02*
X11684Y1711D01*
X18404Y6673D02*
Y8202D01*
X19385Y9183D01*
X15778Y4046D02*
X18404Y6673D01*
X13169Y4046D02*
X15778D01*
X11975Y6913D02*
Y7803D01*
Y6913D02*
X12235Y6653D01*
X11495Y8283D02*
X11975Y7803D01*
X10085Y8283D02*
X11495D01*
X17985Y6783D02*
Y7683D01*
X15585Y4383D02*
X17985Y6783D01*
X7785Y4383D02*
X15585D01*
X7185Y3783D02*
X7785Y4383D01*
X7185Y2883D02*
Y3783D01*
D49*
X20385Y6183D02*
D03*
X19385D02*
D03*
X20385Y7183D02*
D03*
X19385D02*
D03*
X20385Y10183D02*
D03*
X19385D02*
D03*
X20385Y11183D02*
D03*
X19385Y9183D02*
D03*
X20385D02*
D03*
X19385Y8183D02*
D03*
X20385D02*
D03*
X19385Y5183D02*
D03*
Y4183D02*
D03*
X20385Y5183D02*
D03*
Y4183D02*
D03*
D50*
X19385Y11183D02*
D03*
D51*
X13485Y13383D02*
D03*
X13935D02*
D03*
X14385D02*
D03*
X14835D02*
D03*
X15285D02*
D03*
X15735D02*
D03*
X12435Y10783D02*
D03*
X10785Y393D02*
D03*
X17660Y5083D02*
D03*
X17295Y7253D02*
D03*
X16299Y3146D02*
D03*
X11065Y2783D02*
D03*
X11067Y2203D02*
D03*
X11215Y1733D02*
D03*
X8185Y10983D02*
D03*
X7685D02*
D03*
X7135Y9933D02*
D03*
Y10483D02*
D03*
Y10983D02*
D03*
Y11533D02*
D03*
Y12033D02*
D03*
Y12583D02*
D03*
Y13133D02*
D03*
X15735Y12783D02*
D03*
X15285D02*
D03*
X14835D02*
D03*
X14385D02*
D03*
X13935D02*
D03*
X13485D02*
D03*
X8685Y7233D02*
D03*
X12485Y6983D02*
D03*
X12935D02*
D03*
X13385D02*
D03*
X13835D02*
D03*
X14285D02*
D03*
X14735D02*
D03*
X15185D02*
D03*
X15635D02*
D03*
X16085D02*
D03*
X16535D02*
D03*
X12485Y7433D02*
D03*
X12935D02*
D03*
X13385D02*
D03*
X13835D02*
D03*
X14285D02*
D03*
X14735D02*
D03*
X15185D02*
D03*
X15635D02*
D03*
X16085D02*
D03*
X16535D02*
D03*
X12485Y7883D02*
D03*
X12935D02*
D03*
X13385D02*
D03*
X13835D02*
D03*
X14285D02*
D03*
X14735D02*
D03*
X15185D02*
D03*
X15635D02*
D03*
X16085D02*
D03*
X16535D02*
D03*
X12485Y8333D02*
D03*
X12935D02*
D03*
X13385D02*
D03*
X13835D02*
D03*
X14285D02*
D03*
X14735D02*
D03*
X15185D02*
D03*
X15635D02*
D03*
X16085D02*
D03*
X16535D02*
D03*
X12485Y8783D02*
D03*
X12935D02*
D03*
X13385D02*
D03*
X13835D02*
D03*
X14285D02*
D03*
X14735D02*
D03*
X15185D02*
D03*
X15635D02*
D03*
X16085D02*
D03*
X16535D02*
D03*
Y9233D02*
D03*
X16085D02*
D03*
X15635D02*
D03*
X15185D02*
D03*
X14735D02*
D03*
X14285D02*
D03*
X13835D02*
D03*
X13385D02*
D03*
X12935D02*
D03*
X12485D02*
D03*
X12255Y5353D02*
D03*
X12245Y4853D02*
D03*
X8685Y11533D02*
D03*
X8185D02*
D03*
X7685D02*
D03*
X8785Y13133D02*
D03*
X8235D02*
D03*
X7685D02*
D03*
X3585Y3283D02*
D03*
X3185D02*
D03*
X2785D02*
D03*
X2385D02*
D03*
X5885Y483D02*
D03*
X5385D02*
D03*
X4885D02*
D03*
X4385D02*
D03*
X5885Y883D02*
D03*
X5385D02*
D03*
X4885D02*
D03*
X4385D02*
D03*
X5885Y1283D02*
D03*
X5385D02*
D03*
X4885D02*
D03*
X4385D02*
D03*
X3885D02*
D03*
X3385D02*
D03*
X1985Y583D02*
D03*
X1585D02*
D03*
X1985Y983D02*
D03*
X1585D02*
D03*
X1985Y2383D02*
D03*
X1585D02*
D03*
X1985Y2783D02*
D03*
X1585D02*
D03*
X1985Y3283D02*
D03*
X1585D02*
D03*
X1185D02*
D03*
X5585Y3583D02*
D03*
X5185D02*
D03*
X3585Y3683D02*
D03*
X3185D02*
D03*
X2785D02*
D03*
X2385D02*
D03*
X1985D02*
D03*
X1585D02*
D03*
X1185D02*
D03*
X785D02*
D03*
X385D02*
D03*
X5985Y4083D02*
D03*
X5585D02*
D03*
X5185D02*
D03*
X4785D02*
D03*
X4385D02*
D03*
X3985D02*
D03*
X3585D02*
D03*
X3185D02*
D03*
X2785D02*
D03*
X2385D02*
D03*
X1985D02*
D03*
X1585D02*
D03*
X1185D02*
D03*
X785D02*
D03*
X385D02*
D03*
X7185Y4483D02*
D03*
X6785D02*
D03*
X6385D02*
D03*
X5985D02*
D03*
X5585D02*
D03*
X5185D02*
D03*
X4785D02*
D03*
X4385D02*
D03*
X3985D02*
D03*
X3585D02*
D03*
X3185D02*
D03*
X2785D02*
D03*
X2385D02*
D03*
X1985D02*
D03*
X1585D02*
D03*
X1185D02*
D03*
X785D02*
D03*
X385D02*
D03*
X7185Y4883D02*
D03*
X6785D02*
D03*
X6385D02*
D03*
X5985D02*
D03*
X5585D02*
D03*
X5185D02*
D03*
X4785D02*
D03*
X4385D02*
D03*
X3985D02*
D03*
X3585D02*
D03*
X3185D02*
D03*
X2785D02*
D03*
X2385D02*
D03*
X1985D02*
D03*
X1585D02*
D03*
X1185D02*
D03*
X785D02*
D03*
X385D02*
D03*
X7185Y5283D02*
D03*
X6785D02*
D03*
X6385D02*
D03*
X5985D02*
D03*
X5585D02*
D03*
X5185D02*
D03*
X4785D02*
D03*
X4385D02*
D03*
X3985D02*
D03*
X3585D02*
D03*
X3185D02*
D03*
X2785D02*
D03*
X2385D02*
D03*
X1985D02*
D03*
X1585D02*
D03*
X1185D02*
D03*
X785D02*
D03*
X385D02*
D03*
X16705Y3143D02*
D03*
X17685Y7283D02*
D03*
X10075Y7663D02*
D03*
X10085Y8283D02*
D03*
X17985Y7683D02*
D03*
X7185Y2883D02*
D03*
X665Y10173D02*
D03*
X1685Y10183D02*
D03*
X2085D02*
D03*
X2485D02*
D03*
X2885D02*
D03*
X1685Y10583D02*
D03*
X2085D02*
D03*
X5185Y6783D02*
D03*
X4785D02*
D03*
X4385D02*
D03*
X3985D02*
D03*
X3585D02*
D03*
X5185Y6383D02*
D03*
X4485Y7483D02*
D03*
X2785Y6383D02*
D03*
X2385D02*
D03*
X1985D02*
D03*
X1585D02*
D03*
X1185D02*
D03*
X785D02*
D03*
X385D02*
D03*
X4785D02*
D03*
X4385D02*
D03*
X3985D02*
D03*
X3585D02*
D03*
X3185D02*
D03*
X385Y6783D02*
D03*
X3685Y7483D02*
D03*
X4085D02*
D03*
X4485Y7883D02*
D03*
X4085D02*
D03*
X3685D02*
D03*
X1985Y7183D02*
D03*
X1585D02*
D03*
X1985Y7583D02*
D03*
X1585D02*
D03*
X1985Y8883D02*
D03*
X1585D02*
D03*
X1985Y9283D02*
D03*
X1585D02*
D03*
X4485Y8583D02*
D03*
X4085D02*
D03*
X3685D02*
D03*
X4485Y8983D02*
D03*
X4085D02*
D03*
X3685D02*
D03*
X4485Y9383D02*
D03*
X4085D02*
D03*
X3685D02*
D03*
X4485Y9783D02*
D03*
X4085D02*
D03*
X3685D02*
D03*
X4485Y10183D02*
D03*
X4085D02*
D03*
X3685D02*
D03*
X3285D02*
D03*
X4485Y10583D02*
D03*
X4085D02*
D03*
X3685D02*
D03*
X4485Y10983D02*
D03*
X4085D02*
D03*
X3685D02*
D03*
X4485Y11383D02*
D03*
X4085D02*
D03*
X3685D02*
D03*
X5885Y9583D02*
D03*
Y9983D02*
D03*
Y10383D02*
D03*
Y10783D02*
D03*
Y11183D02*
D03*
Y11583D02*
D03*
X1685Y13983D02*
D03*
X2085D02*
D03*
Y13583D02*
D03*
X2485Y13983D02*
D03*
X2885D02*
D03*
X3285D02*
D03*
X3685D02*
D03*
Y13583D02*
D03*
X4085Y13983D02*
D03*
Y13583D02*
D03*
X3685Y12783D02*
D03*
X4085D02*
D03*
X1635Y12733D02*
D03*
X4085Y13183D02*
D03*
X3685D02*
D03*
X2175Y11093D02*
D03*
X1645Y11103D02*
D03*
X2155Y11473D02*
D03*
X2145Y12723D02*
D03*
X2135Y13103D02*
D03*
X1635Y13113D02*
D03*
Y11473D02*
D03*
X1685Y13583D02*
D03*
X4485Y13183D02*
D03*
X6055Y7253D02*
D03*
Y7753D02*
D03*
Y8273D02*
D03*
X4485Y12783D02*
D03*
X5885Y11983D02*
D03*
Y12383D02*
D03*
X5285D02*
D03*
X5885Y12783D02*
D03*
X5285D02*
D03*
X4885D02*
D03*
X5885Y13583D02*
D03*
Y13183D02*
D03*
X5285D02*
D03*
X5885Y13983D02*
D03*
D52*
X1225Y10183D02*
D03*
M02*
