G04*
G04 #@! TF.GenerationSoftware,Altium Limited,Altium Designer,23.1.1 (15)*
G04*
G04 Layer_Color=8388736*
%FSLAX24Y24*%
%MOIN*%
G70*
G04*
G04 #@! TF.SameCoordinates,EDFB4F86-8D80-4751-AEB2-894B5B2271B4*
G04*
G04*
G04 #@! TF.FilePolarity,Negative*
G04*
G01*
G75*
%ADD21R,0.0354X0.0295*%
%ADD24R,0.0700X0.0700*%
%ADD25C,0.0600*%
%ADD26R,0.0538X0.0215*%
G04:AMPARAMS|DCode=27|XSize=53.8mil|YSize=21.5mil|CornerRadius=10.7mil|HoleSize=0mil|Usage=FLASHONLY|Rotation=0.000|XOffset=0mil|YOffset=0mil|HoleType=Round|Shape=RoundedRectangle|*
%AMROUNDEDRECTD27*
21,1,0.0538,0.0000,0,0,0.0*
21,1,0.0323,0.0215,0,0,0.0*
1,1,0.0215,0.0161,0.0000*
1,1,0.0215,-0.0161,0.0000*
1,1,0.0215,-0.0161,0.0000*
1,1,0.0215,0.0161,0.0000*
%
%ADD27ROUNDEDRECTD27*%
%ADD30R,0.0295X0.0354*%
%ADD35R,0.0370X0.0340*%
%ADD36R,0.0330X0.0380*%
%ADD37R,0.1478X0.0887*%
%ADD38R,0.0340X0.0370*%
%ADD39O,0.0749X0.0218*%
%ADD40R,0.0380X0.0330*%
%ADD41O,0.0316X0.0986*%
%ADD42R,0.4840X0.3112*%
%ADD43C,0.0800*%
%ADD44C,0.0730*%
%ADD45R,0.0730X0.0730*%
D21*
X5785Y2759D02*
D03*
Y2287D02*
D03*
X10085Y846D02*
D03*
Y1319D02*
D03*
X13685Y12219D02*
D03*
Y11746D02*
D03*
X15085Y12219D02*
D03*
Y11746D02*
D03*
X16785Y4219D02*
D03*
Y3746D02*
D03*
D24*
X2835Y11133D02*
D03*
X935D02*
D03*
X2835Y13033D02*
D03*
X935D02*
D03*
X2835Y7333D02*
D03*
X935D02*
D03*
X2835Y9233D02*
D03*
X935D02*
D03*
Y2633D02*
D03*
X2835D02*
D03*
X935Y733D02*
D03*
X2835D02*
D03*
D25*
X1885Y12083D02*
D03*
Y8283D02*
D03*
Y1683D02*
D03*
D26*
X5299Y8733D02*
D03*
D27*
Y8233D02*
D03*
Y7733D02*
D03*
Y7233D02*
D03*
X8071D02*
D03*
Y7733D02*
D03*
Y8233D02*
D03*
Y8733D02*
D03*
D30*
X8349Y9483D02*
D03*
X8821D02*
D03*
X12949Y4283D02*
D03*
X13421D02*
D03*
D35*
X4985Y2303D02*
D03*
Y2863D02*
D03*
X10785Y1363D02*
D03*
Y803D02*
D03*
X14385Y12263D02*
D03*
Y11703D02*
D03*
D36*
X9100Y7663D02*
D03*
X9651D02*
D03*
X9661Y8283D02*
D03*
X9110D02*
D03*
X10000Y2793D02*
D03*
X10551D02*
D03*
Y2203D02*
D03*
X10000D02*
D03*
X18561Y8183D02*
D03*
X18010D02*
D03*
X18561Y5183D02*
D03*
X18010D02*
D03*
X15610Y3683D02*
D03*
X16161D02*
D03*
D37*
X10845Y12383D02*
D03*
X8325D02*
D03*
X10845Y4883D02*
D03*
X8325D02*
D03*
D38*
X8305Y10183D02*
D03*
X8865D02*
D03*
X14965Y3033D02*
D03*
X14405D02*
D03*
X16165Y4283D02*
D03*
X15605D02*
D03*
D39*
X9096Y647D02*
D03*
Y903D02*
D03*
Y1159D02*
D03*
Y1415D02*
D03*
Y1671D02*
D03*
Y1927D02*
D03*
Y2183D02*
D03*
Y2439D02*
D03*
X6852Y647D02*
D03*
Y903D02*
D03*
Y1159D02*
D03*
Y1415D02*
D03*
Y1671D02*
D03*
Y1927D02*
D03*
Y2183D02*
D03*
Y2439D02*
D03*
D40*
X15785Y12258D02*
D03*
Y11707D02*
D03*
X14975Y4244D02*
D03*
Y3693D02*
D03*
X14355Y3697D02*
D03*
Y4248D02*
D03*
D41*
X13385Y5217D02*
D03*
X13785D02*
D03*
X14185D02*
D03*
X14585D02*
D03*
X14985D02*
D03*
X15385D02*
D03*
Y10748D02*
D03*
X14985D02*
D03*
X14585D02*
D03*
X14185D02*
D03*
X13785D02*
D03*
X13385D02*
D03*
X12985Y5217D02*
D03*
Y10748D02*
D03*
X15785Y5217D02*
D03*
X16185D02*
D03*
X15785Y10748D02*
D03*
X16185D02*
D03*
D42*
X14585Y7983D02*
D03*
D43*
X3685Y683D02*
D03*
X4965Y13793D02*
D03*
X20285Y13933D02*
D03*
D44*
X20385Y6183D02*
D03*
X19385D02*
D03*
X20385Y7183D02*
D03*
X19385D02*
D03*
X20385Y10183D02*
D03*
X19385D02*
D03*
X20385Y11183D02*
D03*
X19385Y9183D02*
D03*
X20385D02*
D03*
X19385Y8183D02*
D03*
X20385D02*
D03*
X19385Y5183D02*
D03*
Y4183D02*
D03*
X20385Y5183D02*
D03*
Y4183D02*
D03*
D45*
X19385Y11183D02*
D03*
M02*
