G04*
G04 #@! TF.GenerationSoftware,Altium Limited,Altium Designer,23.1.1 (15)*
G04*
G04 Layer_Color=32896*
%FSLAX24Y24*%
%MOIN*%
G70*
G04*
G04 #@! TF.SameCoordinates,EDFB4F86-8D80-4751-AEB2-894B5B2271B4*
G04*
G04*
G04 #@! TF.FilePolarity,Positive*
G04*
G01*
G75*
%ADD16C,0.0100*%
%ADD47C,0.0150*%
%ADD55C,0.0010*%
D16*
X66845Y23100D02*
Y22500D01*
X67145D01*
X67245Y22600D01*
Y22700D01*
X67145Y22800D01*
X66845D01*
X67145D01*
X67245Y22900D01*
Y23000D01*
X67145Y23100D01*
X66845D01*
X67544Y22500D02*
X67744D01*
X67844Y22600D01*
Y22800D01*
X67744Y22900D01*
X67544D01*
X67444Y22800D01*
Y22600D01*
X67544Y22500D01*
X68144Y22900D02*
X68344D01*
X68444Y22800D01*
Y22500D01*
X68144D01*
X68044Y22600D01*
X68144Y22700D01*
X68444D01*
X68644Y22900D02*
Y22500D01*
Y22700D01*
X68744Y22800D01*
X68844Y22900D01*
X68944D01*
X69644Y23100D02*
Y22500D01*
X69344D01*
X69244Y22600D01*
Y22800D01*
X69344Y22900D01*
X69644D01*
X70443Y23100D02*
Y22500D01*
X70843D01*
X71143Y22900D02*
X71343D01*
X71443Y22800D01*
Y22500D01*
X71143D01*
X71043Y22600D01*
X71143Y22700D01*
X71443D01*
X71643Y22900D02*
Y22600D01*
X71743Y22500D01*
X72043D01*
Y22400D01*
X71943Y22300D01*
X71843D01*
X72043Y22500D02*
Y22900D01*
X72543Y22500D02*
X72343D01*
X72243Y22600D01*
Y22800D01*
X72343Y22900D01*
X72543D01*
X72643Y22800D01*
Y22700D01*
X72243D01*
X72843Y22900D02*
Y22500D01*
Y22700D01*
X72943Y22800D01*
X73043Y22900D01*
X73143D01*
X74442Y23000D02*
X74342Y23100D01*
X74142D01*
X74042Y23000D01*
Y22900D01*
X74142Y22800D01*
X74342D01*
X74442Y22700D01*
Y22600D01*
X74342Y22500D01*
X74142D01*
X74042Y22600D01*
X74742Y23000D02*
Y22900D01*
X74642D01*
X74842D01*
X74742D01*
Y22600D01*
X74842Y22500D01*
X75242Y22900D02*
X75442D01*
X75542Y22800D01*
Y22500D01*
X75242D01*
X75142Y22600D01*
X75242Y22700D01*
X75542D01*
X76142Y22900D02*
X75842D01*
X75742Y22800D01*
Y22600D01*
X75842Y22500D01*
X76142D01*
X76342D02*
Y23100D01*
Y22700D02*
X76641Y22900D01*
X76342Y22700D02*
X76641Y22500D01*
X61146Y20600D02*
X61246Y20700D01*
X61446D01*
X61546Y20600D01*
Y20500D01*
X61446Y20400D01*
X61346D01*
X61446D01*
X61546Y20300D01*
Y20200D01*
X61446Y20100D01*
X61246D01*
X61146Y20200D01*
X61746Y20100D02*
Y20200D01*
X61846D01*
Y20100D01*
X61746D01*
X62646Y20700D02*
X62246D01*
Y20400D01*
X62446Y20500D01*
X62546D01*
X62646Y20400D01*
Y20200D01*
X62546Y20100D01*
X62346D01*
X62246Y20200D01*
X61446Y16500D02*
Y17100D01*
X61146Y16800D01*
X61546D01*
X61746Y16500D02*
Y16600D01*
X61846D01*
Y16500D01*
X61746D01*
X62246D02*
X62446D01*
X62346D01*
Y17100D01*
X62246Y17000D01*
X61446Y14100D02*
Y14700D01*
X61146Y14400D01*
X61546D01*
X61746Y14100D02*
Y14200D01*
X61846D01*
Y14100D01*
X61746D01*
X62246Y14600D02*
X62346Y14700D01*
X62546D01*
X62646Y14600D01*
Y14500D01*
X62546Y14400D01*
X62646Y14300D01*
Y14200D01*
X62546Y14100D01*
X62346D01*
X62246Y14200D01*
Y14300D01*
X62346Y14400D01*
X62246Y14500D01*
Y14600D01*
X62346Y14400D02*
X62546D01*
X61446Y11700D02*
Y12300D01*
X61146Y12000D01*
X61546D01*
X61746Y11700D02*
Y11800D01*
X61846D01*
Y11700D01*
X61746D01*
X62246D02*
X62446D01*
X62346D01*
Y12300D01*
X62246Y12200D01*
X61146Y8600D02*
X61246Y8700D01*
X61446D01*
X61546Y8600D01*
Y8500D01*
X61446Y8400D01*
X61346D01*
X61446D01*
X61546Y8300D01*
Y8200D01*
X61446Y8100D01*
X61246D01*
X61146Y8200D01*
X61746Y8100D02*
Y8200D01*
X61846D01*
Y8100D01*
X61746D01*
X62646Y8700D02*
X62246D01*
Y8400D01*
X62446Y8500D01*
X62546D01*
X62646Y8400D01*
Y8200D01*
X62546Y8100D01*
X62346D01*
X62246Y8200D01*
X61546Y23000D02*
X61446Y23100D01*
X61246D01*
X61146Y23000D01*
Y22600D01*
X61246Y22500D01*
X61446D01*
X61546Y22600D01*
X61846Y22500D02*
X62046D01*
X62146Y22600D01*
Y22800D01*
X62046Y22900D01*
X61846D01*
X61746Y22800D01*
Y22600D01*
X61846Y22500D01*
X62346D02*
Y22900D01*
X62646D01*
X62746Y22800D01*
Y22500D01*
X62945D02*
X63245D01*
X63345Y22600D01*
X63245Y22700D01*
X63045D01*
X62945Y22800D01*
X63045Y22900D01*
X63345D01*
X63645Y23000D02*
Y22900D01*
X63545D01*
X63745D01*
X63645D01*
Y22600D01*
X63745Y22500D01*
X64145Y22900D02*
X64345D01*
X64445Y22800D01*
Y22500D01*
X64145D01*
X64045Y22600D01*
X64145Y22700D01*
X64445D01*
X64645Y22500D02*
Y22900D01*
X64945D01*
X65045Y22800D01*
Y22500D01*
X65345Y23000D02*
Y22900D01*
X65245D01*
X65445D01*
X65345D01*
Y22600D01*
X65445Y22500D01*
X54648Y20600D02*
X54748Y20700D01*
X54948D01*
X55048Y20600D01*
Y20200D01*
X54948Y20100D01*
X54748D01*
X54648Y20200D01*
Y20600D01*
X55247Y20100D02*
Y20200D01*
X55347D01*
Y20100D01*
X55247D01*
X56047D02*
Y20700D01*
X55747Y20400D01*
X56147D01*
X56347Y20600D02*
X56447Y20700D01*
X56647D01*
X56747Y20600D01*
Y20200D01*
X56647Y20100D01*
X56447D01*
X56347Y20200D01*
Y20600D01*
X56947Y20100D02*
Y20500D01*
X57047D01*
X57147Y20400D01*
Y20100D01*
Y20400D01*
X57247Y20500D01*
X57347Y20400D01*
Y20100D01*
X57547D02*
X57747D01*
X57647D01*
Y20500D01*
X57547D01*
X58047Y20100D02*
X58247D01*
X58147D01*
Y20700D01*
X58047D01*
X54648Y19400D02*
X54748Y19500D01*
X54948D01*
X55048Y19400D01*
Y19000D01*
X54948Y18900D01*
X54748D01*
X54648Y19000D01*
Y19400D01*
X55247Y18900D02*
Y19000D01*
X55347D01*
Y18900D01*
X55247D01*
X55747D02*
X55947D01*
X55847D01*
Y19500D01*
X55747Y19400D01*
X56647Y19500D02*
X56447Y19400D01*
X56247Y19200D01*
Y19000D01*
X56347Y18900D01*
X56547D01*
X56647Y19000D01*
Y19100D01*
X56547Y19200D01*
X56247D01*
X56847Y18900D02*
Y19300D01*
X56947D01*
X57047Y19200D01*
Y18900D01*
Y19200D01*
X57147Y19300D01*
X57247Y19200D01*
Y18900D01*
X57447D02*
X57647D01*
X57547D01*
Y19300D01*
X57447D01*
X57947Y18900D02*
X58147D01*
X58047D01*
Y19500D01*
X57947D01*
X54648Y17700D02*
X54848D01*
X54748D01*
Y18300D01*
X54648Y18200D01*
X55148Y17700D02*
Y17800D01*
X55247D01*
Y17700D01*
X55148D01*
X55647Y18200D02*
X55747Y18300D01*
X55947D01*
X56047Y18200D01*
Y18100D01*
X55947Y18000D01*
X55847D01*
X55947D01*
X56047Y17900D01*
Y17800D01*
X55947Y17700D01*
X55747D01*
X55647Y17800D01*
X56247Y18200D02*
X56347Y18300D01*
X56547D01*
X56647Y18200D01*
Y18100D01*
X56547Y18000D01*
X56647Y17900D01*
Y17800D01*
X56547Y17700D01*
X56347D01*
X56247Y17800D01*
Y17900D01*
X56347Y18000D01*
X56247Y18100D01*
Y18200D01*
X56347Y18000D02*
X56547D01*
X56847Y17700D02*
Y18100D01*
X56947D01*
X57047Y18000D01*
Y17700D01*
Y18000D01*
X57147Y18100D01*
X57247Y18000D01*
Y17700D01*
X57447D02*
X57647D01*
X57547D01*
Y18100D01*
X57447D01*
X57947Y17700D02*
X58147D01*
X58047D01*
Y18300D01*
X57947D01*
X54648Y17000D02*
X54748Y17100D01*
X54948D01*
X55048Y17000D01*
Y16900D01*
X54948Y16800D01*
X55048Y16700D01*
Y16600D01*
X54948Y16500D01*
X54748D01*
X54648Y16600D01*
Y16700D01*
X54748Y16800D01*
X54648Y16900D01*
Y17000D01*
X54748Y16800D02*
X54948D01*
X55247Y16500D02*
Y16600D01*
X55347D01*
Y16500D01*
X55247D01*
X56147D02*
X55747D01*
X56147Y16900D01*
Y17000D01*
X56047Y17100D01*
X55847D01*
X55747Y17000D01*
X56347D02*
X56447Y17100D01*
X56647D01*
X56747Y17000D01*
Y16900D01*
X56647Y16800D01*
X56747Y16700D01*
Y16600D01*
X56647Y16500D01*
X56447D01*
X56347Y16600D01*
Y16700D01*
X56447Y16800D01*
X56347Y16900D01*
Y17000D01*
X56447Y16800D02*
X56647D01*
X56947Y16500D02*
Y16900D01*
X57047D01*
X57147Y16800D01*
Y16500D01*
Y16800D01*
X57247Y16900D01*
X57347Y16800D01*
Y16500D01*
X57547D02*
X57747D01*
X57647D01*
Y16900D01*
X57547D01*
X58047Y16500D02*
X58247D01*
X58147D01*
Y17100D01*
X58047D01*
X54648Y15800D02*
X54748Y15900D01*
X54948D01*
X55048Y15800D01*
Y15400D01*
X54948Y15300D01*
X54748D01*
X54648Y15400D01*
Y15800D01*
X55247Y15300D02*
Y15400D01*
X55347D01*
Y15300D01*
X55247D01*
X56147Y15900D02*
X55947Y15800D01*
X55747Y15600D01*
Y15400D01*
X55847Y15300D01*
X56047D01*
X56147Y15400D01*
Y15500D01*
X56047Y15600D01*
X55747D01*
X56347Y15800D02*
X56447Y15900D01*
X56647D01*
X56747Y15800D01*
Y15400D01*
X56647Y15300D01*
X56447D01*
X56347Y15400D01*
Y15800D01*
X56947Y15300D02*
Y15700D01*
X57047D01*
X57147Y15600D01*
Y15300D01*
Y15600D01*
X57247Y15700D01*
X57347Y15600D01*
Y15300D01*
X57547D02*
X57747D01*
X57647D01*
Y15700D01*
X57547D01*
X58047Y15300D02*
X58247D01*
X58147D01*
Y15900D01*
X58047D01*
X54948Y14100D02*
Y14700D01*
X54648Y14400D01*
X55048D01*
X55647Y14700D02*
X55247D01*
Y14400D01*
X55447Y14500D01*
X55547D01*
X55647Y14400D01*
Y14200D01*
X55547Y14100D01*
X55347D01*
X55247Y14200D01*
X55847Y14100D02*
Y14200D01*
X55947D01*
Y14100D01*
X55847D01*
X56347Y14600D02*
X56447Y14700D01*
X56647D01*
X56747Y14600D01*
Y14200D01*
X56647Y14100D01*
X56447D01*
X56347Y14200D01*
Y14600D01*
X56947D02*
X57047Y14700D01*
X57247D01*
X57347Y14600D01*
Y14200D01*
X57247Y14100D01*
X57047D01*
X56947Y14200D01*
Y14600D01*
X57547Y14100D02*
Y14500D01*
X57647D01*
X57747Y14400D01*
Y14100D01*
Y14400D01*
X57847Y14500D01*
X57947Y14400D01*
Y14100D01*
X58147D02*
X58346D01*
X58247D01*
Y14500D01*
X58147D01*
X58646Y14100D02*
X58846D01*
X58746D01*
Y14700D01*
X58646D01*
X54648Y13400D02*
X54748Y13500D01*
X54948D01*
X55048Y13400D01*
Y13000D01*
X54948Y12900D01*
X54748D01*
X54648Y13000D01*
Y13400D01*
X55247Y12900D02*
Y13000D01*
X55347D01*
Y12900D01*
X55247D01*
X56147Y13500D02*
X55947Y13400D01*
X55747Y13200D01*
Y13000D01*
X55847Y12900D01*
X56047D01*
X56147Y13000D01*
Y13100D01*
X56047Y13200D01*
X55747D01*
X56347Y13400D02*
X56447Y13500D01*
X56647D01*
X56747Y13400D01*
Y13000D01*
X56647Y12900D01*
X56447D01*
X56347Y13000D01*
Y13400D01*
X56947Y12900D02*
Y13300D01*
X57047D01*
X57147Y13200D01*
Y12900D01*
Y13200D01*
X57247Y13300D01*
X57347Y13200D01*
Y12900D01*
X57547D02*
X57747D01*
X57647D01*
Y13300D01*
X57547D01*
X58047Y12900D02*
X58247D01*
X58147D01*
Y13500D01*
X58047D01*
X54648Y12200D02*
X54748Y12300D01*
X54948D01*
X55048Y12200D01*
Y12100D01*
X54948Y12000D01*
X55048Y11900D01*
Y11800D01*
X54948Y11700D01*
X54748D01*
X54648Y11800D01*
Y11900D01*
X54748Y12000D01*
X54648Y12100D01*
Y12200D01*
X54748Y12000D02*
X54948D01*
X55247Y11700D02*
Y11800D01*
X55347D01*
Y11700D01*
X55247D01*
X56147D02*
X55747D01*
X56147Y12100D01*
Y12200D01*
X56047Y12300D01*
X55847D01*
X55747Y12200D01*
X56347D02*
X56447Y12300D01*
X56647D01*
X56747Y12200D01*
Y12100D01*
X56647Y12000D01*
X56747Y11900D01*
Y11800D01*
X56647Y11700D01*
X56447D01*
X56347Y11800D01*
Y11900D01*
X56447Y12000D01*
X56347Y12100D01*
Y12200D01*
X56447Y12000D02*
X56647D01*
X56947Y11700D02*
Y12100D01*
X57047D01*
X57147Y12000D01*
Y11700D01*
Y12000D01*
X57247Y12100D01*
X57347Y12000D01*
Y11700D01*
X57547D02*
X57747D01*
X57647D01*
Y12100D01*
X57547D01*
X58047Y11700D02*
X58247D01*
X58147D01*
Y12300D01*
X58047D01*
X54648Y10500D02*
X54848D01*
X54748D01*
Y11100D01*
X54648Y11000D01*
X55148Y10500D02*
Y10600D01*
X55247D01*
Y10500D01*
X55148D01*
X55647Y11000D02*
X55747Y11100D01*
X55947D01*
X56047Y11000D01*
Y10900D01*
X55947Y10800D01*
X55847D01*
X55947D01*
X56047Y10700D01*
Y10600D01*
X55947Y10500D01*
X55747D01*
X55647Y10600D01*
X56247Y11000D02*
X56347Y11100D01*
X56547D01*
X56647Y11000D01*
Y10900D01*
X56547Y10800D01*
X56647Y10700D01*
Y10600D01*
X56547Y10500D01*
X56347D01*
X56247Y10600D01*
Y10700D01*
X56347Y10800D01*
X56247Y10900D01*
Y11000D01*
X56347Y10800D02*
X56547D01*
X56847Y10500D02*
Y10900D01*
X56947D01*
X57047Y10800D01*
Y10500D01*
Y10800D01*
X57147Y10900D01*
X57247Y10800D01*
Y10500D01*
X57447D02*
X57647D01*
X57547D01*
Y10900D01*
X57447D01*
X57947Y10500D02*
X58147D01*
X58047D01*
Y11100D01*
X57947D01*
X54648Y9800D02*
X54748Y9900D01*
X54948D01*
X55048Y9800D01*
Y9400D01*
X54948Y9300D01*
X54748D01*
X54648Y9400D01*
Y9800D01*
X55247Y9300D02*
Y9400D01*
X55347D01*
Y9300D01*
X55247D01*
X55747D02*
X55947D01*
X55847D01*
Y9900D01*
X55747Y9800D01*
X56647Y9900D02*
X56447Y9800D01*
X56247Y9600D01*
Y9400D01*
X56347Y9300D01*
X56547D01*
X56647Y9400D01*
Y9500D01*
X56547Y9600D01*
X56247D01*
X56847Y9300D02*
Y9700D01*
X56947D01*
X57047Y9600D01*
Y9300D01*
Y9600D01*
X57147Y9700D01*
X57247Y9600D01*
Y9300D01*
X57447D02*
X57647D01*
X57547D01*
Y9700D01*
X57447D01*
X57947Y9300D02*
X58147D01*
X58047D01*
Y9900D01*
X57947D01*
X54648Y8600D02*
X54748Y8700D01*
X54948D01*
X55048Y8600D01*
Y8200D01*
X54948Y8100D01*
X54748D01*
X54648Y8200D01*
Y8600D01*
X55247Y8100D02*
Y8200D01*
X55347D01*
Y8100D01*
X55247D01*
X56047D02*
Y8700D01*
X55747Y8400D01*
X56147D01*
X56347Y8600D02*
X56447Y8700D01*
X56647D01*
X56747Y8600D01*
Y8200D01*
X56647Y8100D01*
X56447D01*
X56347Y8200D01*
Y8600D01*
X56947Y8100D02*
Y8500D01*
X57047D01*
X57147Y8400D01*
Y8100D01*
Y8400D01*
X57247Y8500D01*
X57347Y8400D01*
Y8100D01*
X57547D02*
X57747D01*
X57647D01*
Y8500D01*
X57547D01*
X58047Y8100D02*
X58247D01*
X58147D01*
Y8700D01*
X58047D01*
X54648Y23100D02*
X55048D01*
X54848D01*
Y22500D01*
X55247Y23100D02*
Y22500D01*
Y22800D01*
X55347Y22900D01*
X55547D01*
X55647Y22800D01*
Y22500D01*
X55847D02*
X56047D01*
X55947D01*
Y22900D01*
X55847D01*
X56747D02*
X56447D01*
X56347Y22800D01*
Y22600D01*
X56447Y22500D01*
X56747D01*
X56947D02*
Y23100D01*
Y22700D02*
X57247Y22900D01*
X56947Y22700D02*
X57247Y22500D01*
X57547D02*
Y22900D01*
X57847D01*
X57947Y22800D01*
Y22500D01*
X58446D02*
X58247D01*
X58147Y22600D01*
Y22800D01*
X58247Y22900D01*
X58446D01*
X58546Y22800D01*
Y22700D01*
X58147D01*
X58746Y22500D02*
X59046D01*
X59146Y22600D01*
X59046Y22700D01*
X58846D01*
X58746Y22800D01*
X58846Y22900D01*
X59146D01*
X59346Y22500D02*
X59646D01*
X59746Y22600D01*
X59646Y22700D01*
X59446D01*
X59346Y22800D01*
X59446Y22900D01*
X59746D01*
X46450Y20600D02*
X46350Y20700D01*
X46150D01*
X46050Y20600D01*
Y20500D01*
X46150Y20400D01*
X46350D01*
X46450Y20300D01*
Y20200D01*
X46350Y20100D01*
X46150D01*
X46050Y20200D01*
X46750Y20100D02*
X46950D01*
X47050Y20200D01*
Y20400D01*
X46950Y20500D01*
X46750D01*
X46650Y20400D01*
Y20200D01*
X46750Y20100D01*
X47250D02*
X47450D01*
X47350D01*
Y20700D01*
X47250D01*
X48149D02*
Y20100D01*
X47849D01*
X47749Y20200D01*
Y20400D01*
X47849Y20500D01*
X48149D01*
X48649Y20100D02*
X48449D01*
X48349Y20200D01*
Y20400D01*
X48449Y20500D01*
X48649D01*
X48749Y20400D01*
Y20300D01*
X48349D01*
X48949Y20500D02*
Y20100D01*
Y20300D01*
X49049Y20400D01*
X49149Y20500D01*
X49249D01*
X50149Y20100D02*
Y20700D01*
X50449D01*
X50549Y20600D01*
Y20400D01*
X50449Y20300D01*
X50149D01*
X50349D02*
X50549Y20100D01*
X51048D02*
X50848D01*
X50748Y20200D01*
Y20400D01*
X50848Y20500D01*
X51048D01*
X51148Y20400D01*
Y20300D01*
X50748D01*
X51348Y20100D02*
X51648D01*
X51748Y20200D01*
X51648Y20300D01*
X51448D01*
X51348Y20400D01*
X51448Y20500D01*
X51748D01*
X51948Y20100D02*
X52148D01*
X52048D01*
Y20500D01*
X51948D01*
X52448Y20100D02*
X52748D01*
X52848Y20200D01*
X52748Y20300D01*
X52548D01*
X52448Y20400D01*
X52548Y20500D01*
X52848D01*
X53148Y20600D02*
Y20500D01*
X53048D01*
X53248D01*
X53148D01*
Y20200D01*
X53248Y20100D01*
X46050Y18900D02*
Y19500D01*
X46450Y18900D01*
Y19500D01*
X46650Y18900D02*
X46850D01*
X46750D01*
Y19300D01*
X46650D01*
X47550D02*
X47250D01*
X47150Y19200D01*
Y19000D01*
X47250Y18900D01*
X47550D01*
X47749D02*
Y19500D01*
Y19100D02*
X48049Y19300D01*
X47749Y19100D02*
X48049Y18900D01*
X48649D02*
X48449D01*
X48349Y19000D01*
Y19200D01*
X48449Y19300D01*
X48649D01*
X48749Y19200D01*
Y19100D01*
X48349D01*
X48949Y18900D02*
X49149D01*
X49049D01*
Y19500D01*
X48949D01*
X49549Y18800D02*
X49649Y18900D01*
Y19000D01*
X49549D01*
Y18900D01*
X49649D01*
X49549Y18800D01*
X49449Y18700D01*
X51048Y19400D02*
X50948Y19500D01*
X50748D01*
X50649Y19400D01*
Y19000D01*
X50748Y18900D01*
X50948D01*
X51048Y19000D01*
Y19200D01*
X50848D01*
X51348Y18900D02*
X51548D01*
X51648Y19000D01*
Y19200D01*
X51548Y19300D01*
X51348D01*
X51248Y19200D01*
Y19000D01*
X51348Y18900D01*
X51848D02*
X52048D01*
X51948D01*
Y19500D01*
X51848D01*
X52748D02*
Y18900D01*
X52448D01*
X52348Y19000D01*
Y19200D01*
X52448Y19300D01*
X52748D01*
X46450Y18200D02*
X46350Y18300D01*
X46150D01*
X46050Y18200D01*
Y17800D01*
X46150Y17700D01*
X46350D01*
X46450Y17800D01*
X47050Y18300D02*
X46650D01*
Y18000D01*
X46850D01*
X46650D01*
Y17700D01*
X47250Y18000D02*
X47649D01*
X47849Y18200D02*
X47949Y18300D01*
X48149D01*
X48249Y18200D01*
Y17800D01*
X48149Y17700D01*
X47949D01*
X47849Y17800D01*
Y18200D01*
X48449D02*
X48549Y18300D01*
X48749D01*
X48849Y18200D01*
Y17800D01*
X48749Y17700D01*
X48549D01*
X48449Y17800D01*
Y18200D01*
X49349Y17700D02*
Y18300D01*
X49049Y18000D01*
X49449D01*
X46050Y16500D02*
Y17100D01*
X46350D01*
X46450Y17000D01*
Y16800D01*
X46350Y16700D01*
X46050D01*
X46650Y16500D02*
Y17100D01*
X46950D01*
X47050Y17000D01*
Y16800D01*
X46950Y16700D01*
X46650D01*
X47250Y16800D02*
X47649D01*
X47849Y17000D02*
X47949Y17100D01*
X48149D01*
X48249Y17000D01*
Y16600D01*
X48149Y16500D01*
X47949D01*
X47849Y16600D01*
Y17000D01*
X48449D02*
X48549Y17100D01*
X48749D01*
X48849Y17000D01*
Y16600D01*
X48749Y16500D01*
X48549D01*
X48449Y16600D01*
Y17000D01*
X49449Y17100D02*
X49249Y17000D01*
X49049Y16800D01*
Y16600D01*
X49149Y16500D01*
X49349D01*
X49449Y16600D01*
Y16700D01*
X49349Y16800D01*
X49049D01*
X46450Y15800D02*
X46350Y15900D01*
X46150D01*
X46050Y15800D01*
Y15400D01*
X46150Y15300D01*
X46350D01*
X46450Y15400D01*
X47050Y15900D02*
X46650D01*
Y15600D01*
X46850D01*
X46650D01*
Y15300D01*
X47250Y15600D02*
X47649D01*
X47849Y15800D02*
X47949Y15900D01*
X48149D01*
X48249Y15800D01*
Y15400D01*
X48149Y15300D01*
X47949D01*
X47849Y15400D01*
Y15800D01*
X48449D02*
X48549Y15900D01*
X48749D01*
X48849Y15800D01*
Y15400D01*
X48749Y15300D01*
X48549D01*
X48449Y15400D01*
Y15800D01*
X49349Y15300D02*
Y15900D01*
X49049Y15600D01*
X49449D01*
X46450Y14700D02*
X46050D01*
Y14400D01*
X46250D01*
X46050D01*
Y14100D01*
X46650D02*
Y14700D01*
X46950D01*
X47050Y14600D01*
Y14400D01*
X46950Y14300D01*
X46650D01*
X46850D02*
X47050Y14100D01*
X47250Y14400D02*
X47649D01*
X48149Y14100D02*
Y14700D01*
X47849Y14400D01*
X48249D01*
X46450Y13400D02*
X46350Y13500D01*
X46150D01*
X46050Y13400D01*
Y13000D01*
X46150Y12900D01*
X46350D01*
X46450Y13000D01*
X47050Y13500D02*
X46650D01*
Y13200D01*
X46850D01*
X46650D01*
Y12900D01*
X47250Y13200D02*
X47649D01*
X47849Y13400D02*
X47949Y13500D01*
X48149D01*
X48249Y13400D01*
Y13000D01*
X48149Y12900D01*
X47949D01*
X47849Y13000D01*
Y13400D01*
X48449D02*
X48549Y13500D01*
X48749D01*
X48849Y13400D01*
Y13000D01*
X48749Y12900D01*
X48549D01*
X48449Y13000D01*
Y13400D01*
X49349Y12900D02*
Y13500D01*
X49049Y13200D01*
X49449D01*
X46050Y11700D02*
Y12300D01*
X46350D01*
X46450Y12200D01*
Y12000D01*
X46350Y11900D01*
X46050D01*
X46650Y11700D02*
Y12300D01*
X46950D01*
X47050Y12200D01*
Y12000D01*
X46950Y11900D01*
X46650D01*
X47250Y12000D02*
X47649D01*
X47849Y12200D02*
X47949Y12300D01*
X48149D01*
X48249Y12200D01*
Y11800D01*
X48149Y11700D01*
X47949D01*
X47849Y11800D01*
Y12200D01*
X48449D02*
X48549Y12300D01*
X48749D01*
X48849Y12200D01*
Y11800D01*
X48749Y11700D01*
X48549D01*
X48449Y11800D01*
Y12200D01*
X49449Y12300D02*
X49249Y12200D01*
X49049Y12000D01*
Y11800D01*
X49149Y11700D01*
X49349D01*
X49449Y11800D01*
Y11900D01*
X49349Y12000D01*
X49049D01*
X46450Y11000D02*
X46350Y11100D01*
X46150D01*
X46050Y11000D01*
Y10600D01*
X46150Y10500D01*
X46350D01*
X46450Y10600D01*
X47050Y11100D02*
X46650D01*
Y10800D01*
X46850D01*
X46650D01*
Y10500D01*
X47250Y10800D02*
X47649D01*
X47849Y11000D02*
X47949Y11100D01*
X48149D01*
X48249Y11000D01*
Y10600D01*
X48149Y10500D01*
X47949D01*
X47849Y10600D01*
Y11000D01*
X48449D02*
X48549Y11100D01*
X48749D01*
X48849Y11000D01*
Y10600D01*
X48749Y10500D01*
X48549D01*
X48449Y10600D01*
Y11000D01*
X49349Y10500D02*
Y11100D01*
X49049Y10800D01*
X49449D01*
X46050Y9300D02*
Y9900D01*
X46450Y9300D01*
Y9900D01*
X46650Y9300D02*
X46850D01*
X46750D01*
Y9700D01*
X46650D01*
X47550D02*
X47250D01*
X47150Y9600D01*
Y9400D01*
X47250Y9300D01*
X47550D01*
X47749D02*
Y9900D01*
Y9500D02*
X48049Y9700D01*
X47749Y9500D02*
X48049Y9300D01*
X48649D02*
X48449D01*
X48349Y9400D01*
Y9600D01*
X48449Y9700D01*
X48649D01*
X48749Y9600D01*
Y9500D01*
X48349D01*
X48949Y9300D02*
X49149D01*
X49049D01*
Y9900D01*
X48949D01*
X49549Y9200D02*
X49649Y9300D01*
Y9400D01*
X49549D01*
Y9300D01*
X49649D01*
X49549Y9200D01*
X49449Y9100D01*
X51048Y9800D02*
X50948Y9900D01*
X50748D01*
X50649Y9800D01*
Y9400D01*
X50748Y9300D01*
X50948D01*
X51048Y9400D01*
Y9600D01*
X50848D01*
X51348Y9300D02*
X51548D01*
X51648Y9400D01*
Y9600D01*
X51548Y9700D01*
X51348D01*
X51248Y9600D01*
Y9400D01*
X51348Y9300D01*
X51848D02*
X52048D01*
X51948D01*
Y9900D01*
X51848D01*
X52748D02*
Y9300D01*
X52448D01*
X52348Y9400D01*
Y9600D01*
X52448Y9700D01*
X52748D01*
X46450Y8600D02*
X46350Y8700D01*
X46150D01*
X46050Y8600D01*
Y8500D01*
X46150Y8400D01*
X46350D01*
X46450Y8300D01*
Y8200D01*
X46350Y8100D01*
X46150D01*
X46050Y8200D01*
X46750Y8100D02*
X46950D01*
X47050Y8200D01*
Y8400D01*
X46950Y8500D01*
X46750D01*
X46650Y8400D01*
Y8200D01*
X46750Y8100D01*
X47250D02*
X47450D01*
X47350D01*
Y8700D01*
X47250D01*
X48149D02*
Y8100D01*
X47849D01*
X47749Y8200D01*
Y8400D01*
X47849Y8500D01*
X48149D01*
X48649Y8100D02*
X48449D01*
X48349Y8200D01*
Y8400D01*
X48449Y8500D01*
X48649D01*
X48749Y8400D01*
Y8300D01*
X48349D01*
X48949Y8500D02*
Y8100D01*
Y8300D01*
X49049Y8400D01*
X49149Y8500D01*
X49249D01*
X50149Y8100D02*
Y8700D01*
X50449D01*
X50549Y8600D01*
Y8400D01*
X50449Y8300D01*
X50149D01*
X50349D02*
X50549Y8100D01*
X51048D02*
X50848D01*
X50748Y8200D01*
Y8400D01*
X50848Y8500D01*
X51048D01*
X51148Y8400D01*
Y8300D01*
X50748D01*
X51348Y8100D02*
X51648D01*
X51748Y8200D01*
X51648Y8300D01*
X51448D01*
X51348Y8400D01*
X51448Y8500D01*
X51748D01*
X51948Y8100D02*
X52148D01*
X52048D01*
Y8500D01*
X51948D01*
X52448Y8100D02*
X52748D01*
X52848Y8200D01*
X52748Y8300D01*
X52548D01*
X52448Y8400D01*
X52548Y8500D01*
X52848D01*
X53148Y8600D02*
Y8500D01*
X53048D01*
X53248D01*
X53148D01*
Y8200D01*
X53248Y8100D01*
X46050Y22500D02*
Y23100D01*
X46250Y22900D01*
X46450Y23100D01*
Y22500D01*
X46750Y22900D02*
X46950D01*
X47050Y22800D01*
Y22500D01*
X46750D01*
X46650Y22600D01*
X46750Y22700D01*
X47050D01*
X47350Y23000D02*
Y22900D01*
X47250D01*
X47450D01*
X47350D01*
Y22600D01*
X47450Y22500D01*
X48049D02*
X47849D01*
X47749Y22600D01*
Y22800D01*
X47849Y22900D01*
X48049D01*
X48149Y22800D01*
Y22700D01*
X47749D01*
X48349Y22900D02*
Y22500D01*
Y22700D01*
X48449Y22800D01*
X48549Y22900D01*
X48649D01*
X48949Y22500D02*
X49149D01*
X49049D01*
Y22900D01*
X48949D01*
X49549D02*
X49749D01*
X49849Y22800D01*
Y22500D01*
X49549D01*
X49449Y22600D01*
X49549Y22700D01*
X49849D01*
X50049Y22500D02*
X50249D01*
X50149D01*
Y23100D01*
X50049D01*
X32754Y21900D02*
X33154D01*
X32954D01*
Y21300D01*
X33454D02*
X33654D01*
X33754Y21400D01*
Y21600D01*
X33654Y21700D01*
X33454D01*
X33354Y21600D01*
Y21400D01*
X33454Y21300D01*
X33953Y21100D02*
Y21700D01*
X34253D01*
X34353Y21600D01*
Y21400D01*
X34253Y21300D01*
X33953D01*
X35453Y21900D02*
X35253D01*
X35153Y21800D01*
Y21400D01*
X35253Y21300D01*
X35453D01*
X35553Y21400D01*
Y21800D01*
X35453Y21900D01*
X35753Y21700D02*
X35953Y21300D01*
X36153Y21700D01*
X36653Y21300D02*
X36453D01*
X36353Y21400D01*
Y21600D01*
X36453Y21700D01*
X36653D01*
X36753Y21600D01*
Y21500D01*
X36353D01*
X36952Y21700D02*
Y21300D01*
Y21500D01*
X37052Y21600D01*
X37152Y21700D01*
X37252D01*
X37552Y21300D02*
X37752D01*
X37652D01*
Y21900D01*
X37552D01*
X38152Y21700D02*
X38352D01*
X38452Y21600D01*
Y21300D01*
X38152D01*
X38052Y21400D01*
X38152Y21500D01*
X38452D01*
X38652Y21700D02*
Y21400D01*
X38752Y21300D01*
X39052D01*
Y21200D01*
X38952Y21100D01*
X38852D01*
X39052Y21300D02*
Y21700D01*
X32754Y20700D02*
X33154D01*
X32954D01*
Y20100D01*
X33454D02*
X33654D01*
X33754Y20200D01*
Y20400D01*
X33654Y20500D01*
X33454D01*
X33354Y20400D01*
Y20200D01*
X33454Y20100D01*
X33953Y19900D02*
Y20500D01*
X34253D01*
X34353Y20400D01*
Y20200D01*
X34253Y20100D01*
X33953D01*
X35553Y20600D02*
X35453Y20700D01*
X35253D01*
X35153Y20600D01*
Y20500D01*
X35253Y20400D01*
X35453D01*
X35553Y20300D01*
Y20200D01*
X35453Y20100D01*
X35253D01*
X35153Y20200D01*
X35853Y20100D02*
X36053D01*
X36153Y20200D01*
Y20400D01*
X36053Y20500D01*
X35853D01*
X35753Y20400D01*
Y20200D01*
X35853Y20100D01*
X36353D02*
X36553D01*
X36453D01*
Y20700D01*
X36353D01*
X37252D02*
Y20100D01*
X36952D01*
X36853Y20200D01*
Y20400D01*
X36952Y20500D01*
X37252D01*
X37752Y20100D02*
X37552D01*
X37452Y20200D01*
Y20400D01*
X37552Y20500D01*
X37752D01*
X37852Y20400D01*
Y20300D01*
X37452D01*
X38052Y20500D02*
Y20100D01*
Y20300D01*
X38152Y20400D01*
X38252Y20500D01*
X38352D01*
X32754Y19500D02*
X33154D01*
X32954D01*
Y18900D01*
X33454D02*
X33654D01*
X33754Y19000D01*
Y19200D01*
X33654Y19300D01*
X33454D01*
X33354Y19200D01*
Y19000D01*
X33454Y18900D01*
X33953Y18700D02*
Y19300D01*
X34253D01*
X34353Y19200D01*
Y19000D01*
X34253Y18900D01*
X33953D01*
X35553Y19400D02*
X35453Y19500D01*
X35253D01*
X35153Y19400D01*
Y19300D01*
X35253Y19200D01*
X35453D01*
X35553Y19100D01*
Y19000D01*
X35453Y18900D01*
X35253D01*
X35153Y19000D01*
X35753Y19300D02*
Y19000D01*
X35853Y18900D01*
X36153D01*
Y19300D01*
X36353D02*
Y18900D01*
Y19100D01*
X36453Y19200D01*
X36553Y19300D01*
X36653D01*
X37052Y18900D02*
Y19400D01*
Y19200D01*
X36952D01*
X37152D01*
X37052D01*
Y19400D01*
X37152Y19500D01*
X37552Y19300D02*
X37752D01*
X37852Y19200D01*
Y18900D01*
X37552D01*
X37452Y19000D01*
X37552Y19100D01*
X37852D01*
X38452Y19300D02*
X38152D01*
X38052Y19200D01*
Y19000D01*
X38152Y18900D01*
X38452D01*
X38952D02*
X38752D01*
X38652Y19000D01*
Y19200D01*
X38752Y19300D01*
X38952D01*
X39052Y19200D01*
Y19100D01*
X38652D01*
X40251Y19500D02*
X39852D01*
Y19200D01*
X40051D01*
X39852D01*
Y18900D01*
X40451D02*
X40651D01*
X40551D01*
Y19300D01*
X40451D01*
X40951Y18900D02*
Y19300D01*
X41251D01*
X41351Y19200D01*
Y18900D01*
X41551D02*
X41751D01*
X41651D01*
Y19300D01*
X41551D01*
X42051Y18900D02*
X42351D01*
X42451Y19000D01*
X42351Y19100D01*
X42151D01*
X42051Y19200D01*
X42151Y19300D01*
X42451D01*
X42651Y19500D02*
Y18900D01*
Y19200D01*
X42751Y19300D01*
X42951D01*
X43051Y19200D01*
Y18900D01*
X32754Y18300D02*
X33154D01*
X32954D01*
Y17700D01*
X33454D02*
X33654D01*
X33754Y17800D01*
Y18000D01*
X33654Y18100D01*
X33454D01*
X33354Y18000D01*
Y17800D01*
X33454Y17700D01*
X33953Y17500D02*
Y18100D01*
X34253D01*
X34353Y18000D01*
Y17800D01*
X34253Y17700D01*
X33953D01*
X35153Y18300D02*
Y17700D01*
X35553D01*
X35853Y18100D02*
X36053D01*
X36153Y18000D01*
Y17700D01*
X35853D01*
X35753Y17800D01*
X35853Y17900D01*
X36153D01*
X36353Y18100D02*
Y17800D01*
X36453Y17700D01*
X36753D01*
Y17600D01*
X36653Y17500D01*
X36553D01*
X36753Y17700D02*
Y18100D01*
X37252Y17700D02*
X37052D01*
X36952Y17800D01*
Y18000D01*
X37052Y18100D01*
X37252D01*
X37352Y18000D01*
Y17900D01*
X36952D01*
X37552Y18100D02*
Y17700D01*
Y17900D01*
X37652Y18000D01*
X37752Y18100D01*
X37852D01*
X32754Y17100D02*
Y16500D01*
X33054D01*
X33154Y16600D01*
Y17000D01*
X33054Y17100D01*
X32754D01*
X33354Y16500D02*
X33554D01*
X33454D01*
Y16900D01*
X33354D01*
X34153Y16500D02*
X33953D01*
X33853Y16600D01*
Y16800D01*
X33953Y16900D01*
X34153D01*
X34253Y16800D01*
Y16700D01*
X33853D01*
X34453Y16500D02*
X34653D01*
X34553D01*
Y17100D01*
X34453D01*
X35253Y16500D02*
X35053D01*
X34953Y16600D01*
Y16800D01*
X35053Y16900D01*
X35253D01*
X35353Y16800D01*
Y16700D01*
X34953D01*
X35953Y16900D02*
X35653D01*
X35553Y16800D01*
Y16600D01*
X35653Y16500D01*
X35953D01*
X36253Y17000D02*
Y16900D01*
X36153D01*
X36353D01*
X36253D01*
Y16600D01*
X36353Y16500D01*
X36653Y16900D02*
Y16500D01*
Y16700D01*
X36753Y16800D01*
X36853Y16900D01*
X36952D01*
X37252Y16500D02*
X37452D01*
X37352D01*
Y16900D01*
X37252D01*
X38152D02*
X37852D01*
X37752Y16800D01*
Y16600D01*
X37852Y16500D01*
X38152D01*
X39352D02*
X38952D01*
X39352Y16900D01*
Y17000D01*
X39252Y17100D01*
X39052D01*
X38952Y17000D01*
X33154Y15800D02*
X33054Y15900D01*
X32854D01*
X32754Y15800D01*
Y15400D01*
X32854Y15300D01*
X33054D01*
X33154Y15400D01*
Y15600D01*
X32954D01*
X33354Y15300D02*
Y15900D01*
X33754Y15300D01*
Y15900D01*
X33953D02*
Y15300D01*
X34253D01*
X34353Y15400D01*
Y15800D01*
X34253Y15900D01*
X33953D01*
X35153D02*
Y15300D01*
X35553D01*
X35853Y15700D02*
X36053D01*
X36153Y15600D01*
Y15300D01*
X35853D01*
X35753Y15400D01*
X35853Y15500D01*
X36153D01*
X36353Y15700D02*
Y15400D01*
X36453Y15300D01*
X36753D01*
Y15200D01*
X36653Y15100D01*
X36553D01*
X36753Y15300D02*
Y15700D01*
X37252Y15300D02*
X37052D01*
X36952Y15400D01*
Y15600D01*
X37052Y15700D01*
X37252D01*
X37352Y15600D01*
Y15500D01*
X36952D01*
X37552Y15700D02*
Y15300D01*
Y15500D01*
X37652Y15600D01*
X37752Y15700D01*
X37852D01*
X39152Y15300D02*
X38752D01*
X39152Y15700D01*
Y15800D01*
X39052Y15900D01*
X38852D01*
X38752Y15800D01*
X32754Y14700D02*
Y14100D01*
X33054D01*
X33154Y14200D01*
Y14600D01*
X33054Y14700D01*
X32754D01*
X33354Y14100D02*
X33554D01*
X33454D01*
Y14500D01*
X33354D01*
X34153Y14100D02*
X33953D01*
X33853Y14200D01*
Y14400D01*
X33953Y14500D01*
X34153D01*
X34253Y14400D01*
Y14300D01*
X33853D01*
X34453Y14100D02*
X34653D01*
X34553D01*
Y14700D01*
X34453D01*
X35253Y14100D02*
X35053D01*
X34953Y14200D01*
Y14400D01*
X35053Y14500D01*
X35253D01*
X35353Y14400D01*
Y14300D01*
X34953D01*
X35953Y14500D02*
X35653D01*
X35553Y14400D01*
Y14200D01*
X35653Y14100D01*
X35953D01*
X36253Y14600D02*
Y14500D01*
X36153D01*
X36353D01*
X36253D01*
Y14200D01*
X36353Y14100D01*
X36653Y14500D02*
Y14100D01*
Y14300D01*
X36753Y14400D01*
X36853Y14500D01*
X36952D01*
X37252Y14100D02*
X37452D01*
X37352D01*
Y14500D01*
X37252D01*
X38152D02*
X37852D01*
X37752Y14400D01*
Y14200D01*
X37852Y14100D01*
X38152D01*
X38952D02*
X39152D01*
X39052D01*
Y14700D01*
X38952Y14600D01*
X32754Y12900D02*
Y13500D01*
X33054D01*
X33154Y13400D01*
Y13200D01*
X33054Y13100D01*
X32754D01*
X33354Y13500D02*
Y12900D01*
X33554Y13100D01*
X33754Y12900D01*
Y13500D01*
X33953Y12900D02*
Y13500D01*
X34253D01*
X34353Y13400D01*
Y13200D01*
X34253Y13100D01*
X33953D01*
X34153D02*
X34353Y12900D01*
X35153Y13500D02*
Y12900D01*
X35553D01*
X35853Y13300D02*
X36053D01*
X36153Y13200D01*
Y12900D01*
X35853D01*
X35753Y13000D01*
X35853Y13100D01*
X36153D01*
X36353Y13300D02*
Y13000D01*
X36453Y12900D01*
X36753D01*
Y12800D01*
X36653Y12700D01*
X36553D01*
X36753Y12900D02*
Y13300D01*
X37252Y12900D02*
X37052D01*
X36952Y13000D01*
Y13200D01*
X37052Y13300D01*
X37252D01*
X37352Y13200D01*
Y13100D01*
X36952D01*
X37552Y13300D02*
Y12900D01*
Y13100D01*
X37652Y13200D01*
X37752Y13300D01*
X37852D01*
X38752Y13400D02*
X38852Y13500D01*
X39052D01*
X39152Y13400D01*
Y13300D01*
X39052Y13200D01*
X38952D01*
X39052D01*
X39152Y13100D01*
Y13000D01*
X39052Y12900D01*
X38852D01*
X38752Y13000D01*
X32754Y12300D02*
Y11700D01*
X33054D01*
X33154Y11800D01*
Y12200D01*
X33054Y12300D01*
X32754D01*
X33354Y11700D02*
X33554D01*
X33454D01*
Y12100D01*
X33354D01*
X34153Y11700D02*
X33953D01*
X33853Y11800D01*
Y12000D01*
X33953Y12100D01*
X34153D01*
X34253Y12000D01*
Y11900D01*
X33853D01*
X34453Y11700D02*
X34653D01*
X34553D01*
Y12300D01*
X34453D01*
X35253Y11700D02*
X35053D01*
X34953Y11800D01*
Y12000D01*
X35053Y12100D01*
X35253D01*
X35353Y12000D01*
Y11900D01*
X34953D01*
X35953Y12100D02*
X35653D01*
X35553Y12000D01*
Y11800D01*
X35653Y11700D01*
X35953D01*
X36253Y12200D02*
Y12100D01*
X36153D01*
X36353D01*
X36253D01*
Y11800D01*
X36353Y11700D01*
X36653Y12100D02*
Y11700D01*
Y11900D01*
X36753Y12000D01*
X36853Y12100D01*
X36952D01*
X37252Y11700D02*
X37452D01*
X37352D01*
Y12100D01*
X37252D01*
X38152D02*
X37852D01*
X37752Y12000D01*
Y11800D01*
X37852Y11700D01*
X38152D01*
X38952Y12200D02*
X39052Y12300D01*
X39252D01*
X39352Y12200D01*
Y12100D01*
X39252Y12000D01*
X39152D01*
X39252D01*
X39352Y11900D01*
Y11800D01*
X39252Y11700D01*
X39052D01*
X38952Y11800D01*
X32754Y11100D02*
Y10500D01*
X33054D01*
X33154Y10600D01*
Y10700D01*
X33054Y10800D01*
X32754D01*
X33054D01*
X33154Y10900D01*
Y11000D01*
X33054Y11100D01*
X32754D01*
X33454Y10500D02*
X33654D01*
X33754Y10600D01*
Y10800D01*
X33654Y10900D01*
X33454D01*
X33354Y10800D01*
Y10600D01*
X33454Y10500D01*
X34053Y11000D02*
Y10900D01*
X33953D01*
X34153D01*
X34053D01*
Y10600D01*
X34153Y10500D01*
X34553Y11000D02*
Y10900D01*
X34453D01*
X34653D01*
X34553D01*
Y10600D01*
X34653Y10500D01*
X35053D02*
X35253D01*
X35353Y10600D01*
Y10800D01*
X35253Y10900D01*
X35053D01*
X34953Y10800D01*
Y10600D01*
X35053Y10500D01*
X35553D02*
Y10900D01*
X35653D01*
X35753Y10800D01*
Y10500D01*
Y10800D01*
X35853Y10900D01*
X35953Y10800D01*
Y10500D01*
X36753Y11100D02*
Y10500D01*
X37152D01*
X37452Y10900D02*
X37652D01*
X37752Y10800D01*
Y10500D01*
X37452D01*
X37352Y10600D01*
X37452Y10700D01*
X37752D01*
X37952Y10900D02*
Y10600D01*
X38052Y10500D01*
X38352D01*
Y10400D01*
X38252Y10300D01*
X38152D01*
X38352Y10500D02*
Y10900D01*
X38852Y10500D02*
X38652D01*
X38552Y10600D01*
Y10800D01*
X38652Y10900D01*
X38852D01*
X38952Y10800D01*
Y10700D01*
X38552D01*
X39152Y10900D02*
Y10500D01*
Y10700D01*
X39252Y10800D01*
X39352Y10900D01*
X39452D01*
X32754Y9900D02*
Y9300D01*
X33054D01*
X33154Y9400D01*
Y9500D01*
X33054Y9600D01*
X32754D01*
X33054D01*
X33154Y9700D01*
Y9800D01*
X33054Y9900D01*
X32754D01*
X33454Y9300D02*
X33654D01*
X33754Y9400D01*
Y9600D01*
X33654Y9700D01*
X33454D01*
X33354Y9600D01*
Y9400D01*
X33454Y9300D01*
X34053Y9800D02*
Y9700D01*
X33953D01*
X34153D01*
X34053D01*
Y9400D01*
X34153Y9300D01*
X34553Y9800D02*
Y9700D01*
X34453D01*
X34653D01*
X34553D01*
Y9400D01*
X34653Y9300D01*
X35053D02*
X35253D01*
X35353Y9400D01*
Y9600D01*
X35253Y9700D01*
X35053D01*
X34953Y9600D01*
Y9400D01*
X35053Y9300D01*
X35553D02*
Y9700D01*
X35653D01*
X35753Y9600D01*
Y9300D01*
Y9600D01*
X35853Y9700D01*
X35953Y9600D01*
Y9300D01*
X37152Y9800D02*
X37052Y9900D01*
X36853D01*
X36753Y9800D01*
Y9700D01*
X36853Y9600D01*
X37052D01*
X37152Y9500D01*
Y9400D01*
X37052Y9300D01*
X36853D01*
X36753Y9400D01*
X37352Y9700D02*
Y9400D01*
X37452Y9300D01*
X37752D01*
Y9700D01*
X37952D02*
Y9300D01*
Y9500D01*
X38052Y9600D01*
X38152Y9700D01*
X38252D01*
X38652Y9300D02*
Y9800D01*
Y9600D01*
X38552D01*
X38752D01*
X38652D01*
Y9800D01*
X38752Y9900D01*
X39152Y9700D02*
X39352D01*
X39452Y9600D01*
Y9300D01*
X39152D01*
X39052Y9400D01*
X39152Y9500D01*
X39452D01*
X40051Y9700D02*
X39752D01*
X39652Y9600D01*
Y9400D01*
X39752Y9300D01*
X40051D01*
X40551D02*
X40351D01*
X40251Y9400D01*
Y9600D01*
X40351Y9700D01*
X40551D01*
X40651Y9600D01*
Y9500D01*
X40251D01*
X41851Y9900D02*
X41451D01*
Y9600D01*
X41651D01*
X41451D01*
Y9300D01*
X42051D02*
X42251D01*
X42151D01*
Y9700D01*
X42051D01*
X42551Y9300D02*
Y9700D01*
X42851D01*
X42951Y9600D01*
Y9300D01*
X43150D02*
X43350D01*
X43250D01*
Y9700D01*
X43150D01*
X43650Y9300D02*
X43950D01*
X44050Y9400D01*
X43950Y9500D01*
X43750D01*
X43650Y9600D01*
X43750Y9700D01*
X44050D01*
X44250Y9900D02*
Y9300D01*
Y9600D01*
X44350Y9700D01*
X44550D01*
X44650Y9600D01*
Y9300D01*
X32754Y8700D02*
Y8100D01*
X33054D01*
X33154Y8200D01*
Y8300D01*
X33054Y8400D01*
X32754D01*
X33054D01*
X33154Y8500D01*
Y8600D01*
X33054Y8700D01*
X32754D01*
X33454Y8100D02*
X33654D01*
X33754Y8200D01*
Y8400D01*
X33654Y8500D01*
X33454D01*
X33354Y8400D01*
Y8200D01*
X33454Y8100D01*
X34053Y8600D02*
Y8500D01*
X33953D01*
X34153D01*
X34053D01*
Y8200D01*
X34153Y8100D01*
X34553Y8600D02*
Y8500D01*
X34453D01*
X34653D01*
X34553D01*
Y8200D01*
X34653Y8100D01*
X35053D02*
X35253D01*
X35353Y8200D01*
Y8400D01*
X35253Y8500D01*
X35053D01*
X34953Y8400D01*
Y8200D01*
X35053Y8100D01*
X35553D02*
Y8500D01*
X35653D01*
X35753Y8400D01*
Y8100D01*
Y8400D01*
X35853Y8500D01*
X35953Y8400D01*
Y8100D01*
X37152Y8600D02*
X37052Y8700D01*
X36853D01*
X36753Y8600D01*
Y8500D01*
X36853Y8400D01*
X37052D01*
X37152Y8300D01*
Y8200D01*
X37052Y8100D01*
X36853D01*
X36753Y8200D01*
X37452Y8100D02*
X37652D01*
X37752Y8200D01*
Y8400D01*
X37652Y8500D01*
X37452D01*
X37352Y8400D01*
Y8200D01*
X37452Y8100D01*
X37952D02*
X38152D01*
X38052D01*
Y8700D01*
X37952D01*
X38852D02*
Y8100D01*
X38552D01*
X38452Y8200D01*
Y8400D01*
X38552Y8500D01*
X38852D01*
X39352Y8100D02*
X39152D01*
X39052Y8200D01*
Y8400D01*
X39152Y8500D01*
X39352D01*
X39452Y8400D01*
Y8300D01*
X39052D01*
X39652Y8500D02*
Y8100D01*
Y8300D01*
X39752Y8400D01*
X39852Y8500D01*
X39952D01*
X32754Y7500D02*
Y6900D01*
X33054D01*
X33154Y7000D01*
Y7100D01*
X33054Y7200D01*
X32754D01*
X33054D01*
X33154Y7300D01*
Y7400D01*
X33054Y7500D01*
X32754D01*
X33454Y6900D02*
X33654D01*
X33754Y7000D01*
Y7200D01*
X33654Y7300D01*
X33454D01*
X33354Y7200D01*
Y7000D01*
X33454Y6900D01*
X34053Y7400D02*
Y7300D01*
X33953D01*
X34153D01*
X34053D01*
Y7000D01*
X34153Y6900D01*
X34553Y7400D02*
Y7300D01*
X34453D01*
X34653D01*
X34553D01*
Y7000D01*
X34653Y6900D01*
X35053D02*
X35253D01*
X35353Y7000D01*
Y7200D01*
X35253Y7300D01*
X35053D01*
X34953Y7200D01*
Y7000D01*
X35053Y6900D01*
X35553D02*
Y7300D01*
X35653D01*
X35753Y7200D01*
Y6900D01*
Y7200D01*
X35853Y7300D01*
X35953Y7200D01*
Y6900D01*
X37052Y7500D02*
X36853D01*
X36753Y7400D01*
Y7000D01*
X36853Y6900D01*
X37052D01*
X37152Y7000D01*
Y7400D01*
X37052Y7500D01*
X37352Y7300D02*
X37552Y6900D01*
X37752Y7300D01*
X38252Y6900D02*
X38052D01*
X37952Y7000D01*
Y7200D01*
X38052Y7300D01*
X38252D01*
X38352Y7200D01*
Y7100D01*
X37952D01*
X38552Y7300D02*
Y6900D01*
Y7100D01*
X38652Y7200D01*
X38752Y7300D01*
X38852D01*
X39152Y6900D02*
X39352D01*
X39252D01*
Y7500D01*
X39152D01*
X39752Y7300D02*
X39952D01*
X40051Y7200D01*
Y6900D01*
X39752D01*
X39652Y7000D01*
X39752Y7100D01*
X40051D01*
X40251Y7300D02*
Y7000D01*
X40351Y6900D01*
X40651D01*
Y6800D01*
X40551Y6700D01*
X40451D01*
X40651Y6900D02*
Y7300D01*
X32754Y22500D02*
Y23100D01*
X33154Y22500D01*
Y23100D01*
X33454Y22900D02*
X33654D01*
X33754Y22800D01*
Y22500D01*
X33454D01*
X33354Y22600D01*
X33454Y22700D01*
X33754D01*
X33953Y22500D02*
Y22900D01*
X34053D01*
X34153Y22800D01*
Y22500D01*
Y22800D01*
X34253Y22900D01*
X34353Y22800D01*
Y22500D01*
X34853D02*
X34653D01*
X34553Y22600D01*
Y22800D01*
X34653Y22900D01*
X34853D01*
X34953Y22800D01*
Y22700D01*
X34553D01*
X28655Y17700D02*
X28855D01*
X28755D01*
Y18300D01*
X28655Y18200D01*
X29055Y15300D02*
X28655D01*
X29055Y15700D01*
Y15800D01*
X28955Y15900D01*
X28755D01*
X28655Y15800D01*
Y13400D02*
X28755Y13500D01*
X28955D01*
X29055Y13400D01*
Y13300D01*
X28955Y13200D01*
X28855D01*
X28955D01*
X29055Y13100D01*
Y13000D01*
X28955Y12900D01*
X28755D01*
X28655Y13000D01*
X28955Y10500D02*
Y11100D01*
X28655Y10800D01*
X29055D01*
X28655Y23100D02*
Y22500D01*
X29055D01*
X29355Y22900D02*
X29554D01*
X29654Y22800D01*
Y22500D01*
X29355D01*
X29255Y22600D01*
X29355Y22700D01*
X29654D01*
X29854Y22900D02*
Y22600D01*
X29954Y22500D01*
X30254D01*
Y22400D01*
X30154Y22300D01*
X30054D01*
X30254Y22500D02*
Y22900D01*
X30754Y22500D02*
X30554D01*
X30454Y22600D01*
Y22800D01*
X30554Y22900D01*
X30754D01*
X30854Y22800D01*
Y22700D01*
X30454D01*
X31054Y22900D02*
Y22500D01*
Y22700D01*
X31154Y22800D01*
X31254Y22900D01*
X31354D01*
D47*
X77341Y6600D02*
Y23400D01*
X66145Y21000D02*
X77341D01*
X66145Y19800D02*
X77341D01*
X66145Y18600D02*
X77341D01*
X66145Y17400D02*
X77341D01*
X66145Y16200D02*
X77341D01*
X66145Y15000D02*
X77341D01*
X66145Y13800D02*
X77341D01*
X66145Y12600D02*
X77341D01*
X66145Y11400D02*
X77341D01*
X66145Y10200D02*
X77341D01*
X66145Y9000D02*
X77341D01*
X66145Y7800D02*
X77341D01*
X66145Y6600D02*
X77341D01*
X66145D02*
Y23400D01*
X60446Y21000D02*
X66145D01*
X60446Y19800D02*
X66145D01*
X60446Y18600D02*
X66145D01*
X60446Y17400D02*
X66145D01*
X60446Y16200D02*
X66145D01*
X60446Y15000D02*
X66145D01*
X60446Y13800D02*
X66145D01*
X60446Y12600D02*
X66145D01*
X60446Y11400D02*
X66145D01*
X60446Y10200D02*
X66145D01*
X60446Y9000D02*
X66145D01*
X60446Y7800D02*
X66145D01*
X60446Y6600D02*
X66145D01*
X60446D02*
Y23400D01*
X53948Y21000D02*
X60446D01*
X53948Y19800D02*
X60446D01*
X53948Y18600D02*
X60446D01*
X53948Y17400D02*
X60446D01*
X53948Y16200D02*
X60446D01*
X53948Y15000D02*
X60446D01*
X53948Y13800D02*
X60446D01*
X53948Y12600D02*
X60446D01*
X53948Y11400D02*
X60446D01*
X53948Y10200D02*
X60446D01*
X53948Y9000D02*
X60446D01*
X53948Y7800D02*
X60446D01*
X53948Y6600D02*
X60446D01*
X53948D02*
Y23400D01*
X45350Y21000D02*
X53948D01*
X45350Y19800D02*
X53948D01*
X45350Y18600D02*
X53948D01*
X45350Y17400D02*
X53948D01*
X45350Y16200D02*
X53948D01*
X45350Y15000D02*
X53948D01*
X45350Y13800D02*
X53948D01*
X45350Y12600D02*
X53948D01*
X45350Y11400D02*
X53948D01*
X45350Y10200D02*
X53948D01*
X45350Y9000D02*
X53948D01*
X45350Y7800D02*
X53948D01*
X45350Y6600D02*
X53948D01*
X45350D02*
Y23400D01*
X32054Y21000D02*
X45350D01*
X32054Y19800D02*
X45350D01*
X32054Y18600D02*
X45350D01*
X32054Y17400D02*
X45350D01*
X32054Y16200D02*
X45350D01*
X32054Y15000D02*
X45350D01*
X32054Y13800D02*
X45350D01*
X32054Y12600D02*
X45350D01*
X32054Y11400D02*
X45350D01*
X32054Y10200D02*
X45350D01*
X32054Y9000D02*
X45350D01*
X32054Y7800D02*
X45350D01*
X32054Y6600D02*
X45350D01*
X32054D02*
Y23400D01*
X27955Y21000D02*
X32054D01*
X27955Y19800D02*
X32054D01*
X27955Y18600D02*
X32054D01*
X27955Y17400D02*
X32054D01*
X27955Y16200D02*
X32054D01*
X27955Y15000D02*
X32054D01*
X27955Y13800D02*
X32054D01*
X27955Y12600D02*
X32054D01*
X27955Y11400D02*
X32054D01*
X27955Y10200D02*
X32054D01*
X27955Y9000D02*
X32054D01*
X27955Y7800D02*
X32054D01*
X27955Y6600D02*
X32054D01*
X27955D02*
Y23400D01*
X77341D01*
X27955Y22200D02*
X77341D01*
D55*
X66145Y21803D02*
X66541Y22200D01*
X66145Y21203D02*
X67141Y22200D01*
X66541Y21000D02*
X67741Y22200D01*
X67141Y21000D02*
X68341Y22200D01*
X67741Y21000D02*
X68941Y22200D01*
X68341Y21000D02*
X69541Y22200D01*
X68941Y21000D02*
X70141Y22200D01*
X69541Y21000D02*
X70741Y22200D01*
X70141Y21000D02*
X71341Y22200D01*
X70741Y21000D02*
X71941Y22200D01*
X71341Y21000D02*
X72541Y22200D01*
X71941Y21000D02*
X73141Y22200D01*
X72541Y21000D02*
X73741Y22200D01*
X73141Y21000D02*
X74341Y22200D01*
X73741Y21000D02*
X74941Y22200D01*
X74341Y21000D02*
X75541Y22200D01*
X74941Y21000D02*
X76141Y22200D01*
X75541Y21000D02*
X76741Y22200D01*
X76141Y21000D02*
X77341Y22200D01*
X76741Y21000D02*
X77341Y21600D01*
X66145Y20603D02*
X66541Y21000D01*
X66145Y20003D02*
X67141Y21000D01*
X66541Y19800D02*
X67741Y21000D01*
X67141Y19800D02*
X68341Y21000D01*
X67741Y19800D02*
X68941Y21000D01*
X68341Y19800D02*
X69541Y21000D01*
X68941Y19800D02*
X70141Y21000D01*
X69541Y19800D02*
X70741Y21000D01*
X70141Y19800D02*
X71341Y21000D01*
X70741Y19800D02*
X71941Y21000D01*
X71341Y19800D02*
X72541Y21000D01*
X71941Y19800D02*
X73141Y21000D01*
X72541Y19800D02*
X73741Y21000D01*
X73141Y19800D02*
X74341Y21000D01*
X73741Y19800D02*
X74941Y21000D01*
X74341Y19800D02*
X75541Y21000D01*
X74941Y19800D02*
X76141Y21000D01*
X75541Y19800D02*
X76741Y21000D01*
X76141Y19800D02*
X77341Y21000D01*
X76741Y19800D02*
X77341Y20400D01*
X66145Y19403D02*
X66541Y19800D01*
X66145Y18803D02*
X67141Y19800D01*
X66541Y18600D02*
X67741Y19800D01*
X67141Y18600D02*
X68341Y19800D01*
X67741Y18600D02*
X68941Y19800D01*
X68341Y18600D02*
X69541Y19800D01*
X68941Y18600D02*
X70141Y19800D01*
X69541Y18600D02*
X70741Y19800D01*
X70141Y18600D02*
X71341Y19800D01*
X70741Y18600D02*
X71941Y19800D01*
X71341Y18600D02*
X72541Y19800D01*
X71941Y18600D02*
X73141Y19800D01*
X72541Y18600D02*
X73741Y19800D01*
X73141Y18600D02*
X74341Y19800D01*
X73741Y18600D02*
X74941Y19800D01*
X74341Y18600D02*
X75541Y19800D01*
X74941Y18600D02*
X76141Y19800D01*
X75541Y18600D02*
X76741Y19800D01*
X76141Y18600D02*
X77341Y19800D01*
X76741Y18600D02*
X77341Y19200D01*
X66145Y18203D02*
X66541Y18600D01*
X66145Y17603D02*
X67141Y18600D01*
X66541Y17400D02*
X67741Y18600D01*
X67141Y17400D02*
X68341Y18600D01*
X67741Y17400D02*
X68941Y18600D01*
X68341Y17400D02*
X69541Y18600D01*
X68941Y17400D02*
X70141Y18600D01*
X69541Y17400D02*
X70741Y18600D01*
X70141Y17400D02*
X71341Y18600D01*
X70741Y17400D02*
X71941Y18600D01*
X71341Y17400D02*
X72541Y18600D01*
X71941Y17400D02*
X73141Y18600D01*
X72541Y17400D02*
X73741Y18600D01*
X73141Y17400D02*
X74341Y18600D01*
X73741Y17400D02*
X74941Y18600D01*
X74341Y17400D02*
X75541Y18600D01*
X74941Y17400D02*
X76141Y18600D01*
X75541Y17400D02*
X76741Y18600D01*
X76141Y17400D02*
X77341Y18600D01*
X76741Y17400D02*
X77341Y18000D01*
X66145Y17003D02*
X66541Y17400D01*
X66145Y16403D02*
X67141Y17400D01*
X66541Y16200D02*
X67741Y17400D01*
X67141Y16200D02*
X68341Y17400D01*
X67741Y16200D02*
X68941Y17400D01*
X68341Y16200D02*
X69541Y17400D01*
X68941Y16200D02*
X70141Y17400D01*
X69541Y16200D02*
X70741Y17400D01*
X70141Y16200D02*
X71341Y17400D01*
X70741Y16200D02*
X71941Y17400D01*
X71341Y16200D02*
X72541Y17400D01*
X71941Y16200D02*
X73141Y17400D01*
X72541Y16200D02*
X73741Y17400D01*
X73141Y16200D02*
X74341Y17400D01*
X73741Y16200D02*
X74941Y17400D01*
X74341Y16200D02*
X75541Y17400D01*
X74941Y16200D02*
X76141Y17400D01*
X75541Y16200D02*
X76741Y17400D01*
X76141Y16200D02*
X77341Y17400D01*
X76741Y16200D02*
X77341Y16800D01*
X66145Y15803D02*
X66541Y16200D01*
X66145Y15203D02*
X67141Y16200D01*
X66541Y15000D02*
X67741Y16200D01*
X67141Y15000D02*
X68341Y16200D01*
X67741Y15000D02*
X68941Y16200D01*
X68341Y15000D02*
X69541Y16200D01*
X68941Y15000D02*
X70141Y16200D01*
X69541Y15000D02*
X70741Y16200D01*
X70141Y15000D02*
X71341Y16200D01*
X70741Y15000D02*
X71941Y16200D01*
X71341Y15000D02*
X72541Y16200D01*
X71941Y15000D02*
X73141Y16200D01*
X72541Y15000D02*
X73741Y16200D01*
X73141Y15000D02*
X74341Y16200D01*
X73741Y15000D02*
X74941Y16200D01*
X74341Y15000D02*
X75541Y16200D01*
X74941Y15000D02*
X76141Y16200D01*
X75541Y15000D02*
X76741Y16200D01*
X76141Y15000D02*
X77341Y16200D01*
X76741Y15000D02*
X77341Y15600D01*
X66145Y14603D02*
X66541Y15000D01*
X66145Y14003D02*
X67141Y15000D01*
X66541Y13800D02*
X67741Y15000D01*
X67141Y13800D02*
X68341Y15000D01*
X67741Y13800D02*
X68941Y15000D01*
X68341Y13800D02*
X69541Y15000D01*
X68941Y13800D02*
X70141Y15000D01*
X69541Y13800D02*
X70741Y15000D01*
X70141Y13800D02*
X71341Y15000D01*
X70741Y13800D02*
X71941Y15000D01*
X71341Y13800D02*
X72541Y15000D01*
X71941Y13800D02*
X73141Y15000D01*
X72541Y13800D02*
X73741Y15000D01*
X73141Y13800D02*
X74341Y15000D01*
X73741Y13800D02*
X74941Y15000D01*
X74341Y13800D02*
X75541Y15000D01*
X74941Y13800D02*
X76141Y15000D01*
X75541Y13800D02*
X76741Y15000D01*
X76141Y13800D02*
X77341Y15000D01*
X76741Y13800D02*
X77341Y14400D01*
X66145Y13403D02*
X66541Y13800D01*
X66145Y12803D02*
X67141Y13800D01*
X66541Y12600D02*
X67741Y13800D01*
X67141Y12600D02*
X68341Y13800D01*
X67741Y12600D02*
X68941Y13800D01*
X68341Y12600D02*
X69541Y13800D01*
X68941Y12600D02*
X70141Y13800D01*
X69541Y12600D02*
X70741Y13800D01*
X70141Y12600D02*
X71341Y13800D01*
X70741Y12600D02*
X71941Y13800D01*
X71341Y12600D02*
X72541Y13800D01*
X71941Y12600D02*
X73141Y13800D01*
X72541Y12600D02*
X73741Y13800D01*
X73141Y12600D02*
X74341Y13800D01*
X73741Y12600D02*
X74941Y13800D01*
X74341Y12600D02*
X75541Y13800D01*
X74941Y12600D02*
X76141Y13800D01*
X75541Y12600D02*
X76741Y13800D01*
X76141Y12600D02*
X77341Y13800D01*
X76741Y12600D02*
X77341Y13200D01*
X66145Y12203D02*
X66541Y12600D01*
X66145Y11603D02*
X67141Y12600D01*
X66541Y11400D02*
X67741Y12600D01*
X67141Y11400D02*
X68341Y12600D01*
X67741Y11400D02*
X68941Y12600D01*
X68341Y11400D02*
X69541Y12600D01*
X68941Y11400D02*
X70141Y12600D01*
X69541Y11400D02*
X70741Y12600D01*
X70141Y11400D02*
X71341Y12600D01*
X70741Y11400D02*
X71941Y12600D01*
X71341Y11400D02*
X72541Y12600D01*
X71941Y11400D02*
X73141Y12600D01*
X72541Y11400D02*
X73741Y12600D01*
X73141Y11400D02*
X74341Y12600D01*
X73741Y11400D02*
X74941Y12600D01*
X74341Y11400D02*
X75541Y12600D01*
X74941Y11400D02*
X76141Y12600D01*
X75541Y11400D02*
X76741Y12600D01*
X76141Y11400D02*
X77341Y12600D01*
X76741Y11400D02*
X77341Y12000D01*
X66145Y11003D02*
X66541Y11400D01*
X66145Y10403D02*
X67141Y11400D01*
X66541Y10200D02*
X67741Y11400D01*
X67141Y10200D02*
X68341Y11400D01*
X67741Y10200D02*
X68941Y11400D01*
X68341Y10200D02*
X69541Y11400D01*
X68941Y10200D02*
X70141Y11400D01*
X69541Y10200D02*
X70741Y11400D01*
X70141Y10200D02*
X71341Y11400D01*
X70741Y10200D02*
X71941Y11400D01*
X71341Y10200D02*
X72541Y11400D01*
X71941Y10200D02*
X73141Y11400D01*
X72541Y10200D02*
X73741Y11400D01*
X73141Y10200D02*
X74341Y11400D01*
X73741Y10200D02*
X74941Y11400D01*
X74341Y10200D02*
X75541Y11400D01*
X74941Y10200D02*
X76141Y11400D01*
X75541Y10200D02*
X76741Y11400D01*
X76141Y10200D02*
X77341Y11400D01*
X76741Y10200D02*
X77341Y10800D01*
X66145Y9803D02*
X66541Y10200D01*
X66145Y9203D02*
X67141Y10200D01*
X66541Y9000D02*
X67741Y10200D01*
X67141Y9000D02*
X68341Y10200D01*
X67741Y9000D02*
X68941Y10200D01*
X68341Y9000D02*
X69541Y10200D01*
X68941Y9000D02*
X70141Y10200D01*
X69541Y9000D02*
X70741Y10200D01*
X70141Y9000D02*
X71341Y10200D01*
X70741Y9000D02*
X71941Y10200D01*
X71341Y9000D02*
X72541Y10200D01*
X71941Y9000D02*
X73141Y10200D01*
X72541Y9000D02*
X73741Y10200D01*
X73141Y9000D02*
X74341Y10200D01*
X73741Y9000D02*
X74941Y10200D01*
X74341Y9000D02*
X75541Y10200D01*
X74941Y9000D02*
X76141Y10200D01*
X75541Y9000D02*
X76741Y10200D01*
X76141Y9000D02*
X77341Y10200D01*
X76741Y9000D02*
X77341Y9600D01*
X66145Y8603D02*
X66541Y9000D01*
X66145Y8003D02*
X67141Y9000D01*
X66541Y7800D02*
X67741Y9000D01*
X67141Y7800D02*
X68341Y9000D01*
X67741Y7800D02*
X68941Y9000D01*
X68341Y7800D02*
X69541Y9000D01*
X68941Y7800D02*
X70141Y9000D01*
X69541Y7800D02*
X70741Y9000D01*
X70141Y7800D02*
X71341Y9000D01*
X70741Y7800D02*
X71941Y9000D01*
X71341Y7800D02*
X72541Y9000D01*
X71941Y7800D02*
X73141Y9000D01*
X72541Y7800D02*
X73741Y9000D01*
X73141Y7800D02*
X74341Y9000D01*
X73741Y7800D02*
X74941Y9000D01*
X74341Y7800D02*
X75541Y9000D01*
X74941Y7800D02*
X76141Y9000D01*
X75541Y7800D02*
X76741Y9000D01*
X76141Y7800D02*
X77341Y9000D01*
X76741Y7800D02*
X77341Y8400D01*
X66145Y7403D02*
X66541Y7800D01*
X66145Y6803D02*
X67141Y7800D01*
X66541Y6600D02*
X67741Y7800D01*
X67141Y6600D02*
X68341Y7800D01*
X67741Y6600D02*
X68941Y7800D01*
X68341Y6600D02*
X69541Y7800D01*
X68941Y6600D02*
X70141Y7800D01*
X69541Y6600D02*
X70741Y7800D01*
X70141Y6600D02*
X71341Y7800D01*
X70741Y6600D02*
X71941Y7800D01*
X71341Y6600D02*
X72541Y7800D01*
X71941Y6600D02*
X73141Y7800D01*
X72541Y6600D02*
X73741Y7800D01*
X73141Y6600D02*
X74341Y7800D01*
X73741Y6600D02*
X74941Y7800D01*
X74341Y6600D02*
X75541Y7800D01*
X74941Y6600D02*
X76141Y7800D01*
X75541Y6600D02*
X76741Y7800D01*
X76141Y6600D02*
X77341Y7800D01*
X76741Y6600D02*
X77341Y7200D01*
M02*
