M48
;Layer_Color=9474304
;FILE_FORMAT=2:3
INCH,LZ
;TYPE=PLATED
T1F00S00C0.010
T2F00S00C0.043
%
T01
X00159Y00058
X00199
Y00098
X00159
Y00238
X00199
Y00278
X00159
Y00328
X00199
X00239
X00279
X00319
X00359
Y00368
X00319
X00279
X00239
X00199
X00159
X00119
Y00328
X00079Y00368
X00039
Y00408
X00079
X00119
X00159
X00199
X00239
X00279
X00319
X00359
X00399
X00439
X00479
X00519
X00559
X00599
Y00448
X00639
X00679
X00719
Y00488
X00679
X00639
X00599
X00559
Y00448
X00519
X00479
X00439
X00399
X00359
X00319
X00279
X00239
X00199
X00159
X00119
X00079
X00039
Y00488
X00079
X00119
X00159
X00199
X00239
X00279
X00319
X00359
X00399
X00439
X00479
X00519
Y00528
X00559
X00599
X00639
X00679
X00719
X00479
X00439
X00399
X00359
X00319
X00279
X00239
X00199
X00159
X00119
X00079
X00039
Y00638
X00079
X00119
X00159
X00199
X00239
X00279
X00319
X00359
Y00678
X00399
X00439
X00479
X00519
Y00638
X00479
X00439
X00399
X00409Y00748
X00449
Y00788
X00409
X00369
Y00748
Y00858
X00409
X00449
Y00898
X00409
X00369
Y00938
X00409
X00449
Y00978
X00409
X00369
Y01018
X00409
X00449
Y01058
X00409
X00369
Y01098
X00409
X00449
Y01138
X00409
X00369
Y01278
X00409
Y01318
Y01358
X00369
Y01398
X00329
X00289
X00249
X00209
X00169
Y01358
X00209
X00214Y0131
X00215Y01272
X00164Y01273
Y01311
Y01147
X00165Y0111
X00218Y01109
X00216Y01147
X00209Y01058
Y01018
X00169
Y01058
X00123Y01018
X00067Y01017
X00159Y00928
Y00888
X00199
Y00928
X00249Y01018
X00289
X00329
X00589Y00998
Y00958
Y01038
Y01078
Y01118
Y01158
Y01198
Y01238
Y01278
Y01318
Y01358
Y01398
X00529Y01318
Y01278
Y01238
X00489Y01278
X00449
Y01318
X00369
X00409Y01398
X00714Y01313
Y01258
Y01203
Y01153
Y01098
Y01048
Y00993
X00769Y01098
X00819
Y01153
X00869
X00769
Y01313
X00824
X00879
X01349Y01338
X01394
X01439
X01484
X01529
Y01278
X01484
X01439
X01394
X01349
X01244Y01078
X01249Y00923
Y00878
Y00833
Y00788
Y00743
Y00698
X01294
X01339
X01384
X01429
X01474
X01519
Y00743
X01474
X01429
X01384
X01339
X01294
Y00788
X01339
X01384
X01429
X01474
X01519
Y00833
X01474
X01429
X01384
X01339
X01294
Y00878
X01339
X01384
X01429
X01474
X01519
Y00923
X01474
X01429
X01384
X01339
X01294
X01009Y00828
X01008Y00766
X00869Y00723
X00606Y00725
Y00775
Y00827
X00199Y00758
Y00718
X00159
Y00758
X00039Y00678
X00519Y00358
X00559
X00719Y00288
X00589Y00128
Y00088
Y00048
X00539
Y00088
Y00128
X00489
Y00088
Y00048
X00439
Y00088
Y00128
X00389
X00339
X01122Y00173
X01107Y0022
X01107Y00278
X01079Y00039
X01225Y00485
X01226Y00535
X01564Y00698
X01609
X01654
Y00743
X01609
X01564
Y00788
X01609
X01654
Y00833
X01609
X01564
Y00878
X01609
X01654
Y00923
X01609
X01564
X0173Y00725
X01769Y00728
X01799Y00768
X01766Y00508
X01671Y00314
X0163Y00315
X01574Y01278
Y01338
T02
X01939Y00418
Y00518
Y00618
X02039
Y00718
X01939
Y00818
Y00918
Y01018
X02039
Y01118
X01939
X02039Y00918
Y00818
Y00518
Y00418
M30
