G04*
G04 #@! TF.GenerationSoftware,Altium Limited,Altium Designer,23.1.1 (15)*
G04*
G04 Layer_Color=128*
%FSLAX24Y24*%
%MOIN*%
G70*
G04*
G04 #@! TF.SameCoordinates,EDFB4F86-8D80-4751-AEB2-894B5B2271B4*
G04*
G04*
G04 #@! TF.FilePolarity,Positive*
G04*
G01*
G75*
%ADD14C,0.0050*%
D14*
X20169Y6183D02*
X20602D01*
X20385Y5966D02*
Y6399D01*
X19169Y6183D02*
X19602D01*
X19385Y5966D02*
Y6399D01*
X20169Y7183D02*
X20602D01*
X20385Y6966D02*
Y7399D01*
X19169Y7183D02*
X19602D01*
X19385Y6966D02*
Y7399D01*
X20169Y10183D02*
X20602D01*
X20385Y9966D02*
Y10399D01*
X19169Y10183D02*
X19602D01*
X19385Y9966D02*
Y10399D01*
X20169Y11183D02*
X20602D01*
X20385Y10966D02*
Y11399D01*
X19169Y11183D02*
X19602D01*
X19385Y10966D02*
Y11399D01*
X19169Y9183D02*
X19602D01*
X19385Y8966D02*
Y9399D01*
X20169Y9183D02*
X20602D01*
X20385Y8966D02*
Y9399D01*
X19169Y8183D02*
X19602D01*
X19385Y7966D02*
Y8399D01*
X20169Y8183D02*
X20602D01*
X20385Y7966D02*
Y8399D01*
X19169Y5183D02*
X19602D01*
X19385Y4966D02*
Y5399D01*
X19169Y4183D02*
X19602D01*
X19385Y3966D02*
Y4399D01*
X20169Y5183D02*
X20602D01*
X20385Y4966D02*
Y5399D01*
X20169Y4183D02*
X20602D01*
X20385Y3966D02*
Y4399D01*
X13435Y13383D02*
X13535D01*
X13485Y13333D02*
Y13433D01*
X13885Y13383D02*
X13985D01*
X13935Y13333D02*
Y13433D01*
X14335Y13383D02*
X14435D01*
X14385Y13333D02*
Y13433D01*
X14785Y13383D02*
X14885D01*
X14835Y13333D02*
Y13433D01*
X15235Y13383D02*
X15335D01*
X15285Y13333D02*
Y13433D01*
X15685Y13383D02*
X15785D01*
X15735Y13333D02*
Y13433D01*
X12385Y10783D02*
X12485D01*
X12435Y10733D02*
Y10833D01*
X10735Y393D02*
X10835D01*
X10785Y343D02*
Y443D01*
X17610Y5083D02*
X17710D01*
X17660Y5033D02*
Y5133D01*
X17245Y7253D02*
X17345D01*
X17295Y7203D02*
Y7303D01*
X16249Y3146D02*
X16349D01*
X16299Y3096D02*
Y3196D01*
X11015Y2783D02*
X11115D01*
X11065Y2733D02*
Y2833D01*
X11017Y2203D02*
X11117D01*
X11067Y2153D02*
Y2253D01*
X11165Y1733D02*
X11265D01*
X11215Y1683D02*
Y1783D01*
X1175Y10183D02*
X1275D01*
X1225Y10133D02*
Y10233D01*
X8135Y10983D02*
X8235D01*
X8185Y10933D02*
Y11033D01*
X7635Y10983D02*
X7735D01*
X7685Y10933D02*
Y11033D01*
X7085Y9933D02*
X7185D01*
X7135Y9883D02*
Y9983D01*
X7085Y10483D02*
X7185D01*
X7135Y10433D02*
Y10533D01*
X7085Y10983D02*
X7185D01*
X7135Y10933D02*
Y11033D01*
X7085Y11533D02*
X7185D01*
X7135Y11483D02*
Y11583D01*
X7085Y12033D02*
X7185D01*
X7135Y11983D02*
Y12083D01*
X7085Y12583D02*
X7185D01*
X7135Y12533D02*
Y12633D01*
X7085Y13133D02*
X7185D01*
X7135Y13083D02*
Y13183D01*
X15685Y12783D02*
X15785D01*
X15735Y12733D02*
Y12833D01*
X15235Y12783D02*
X15335D01*
X15285Y12733D02*
Y12833D01*
X14785Y12783D02*
X14885D01*
X14835Y12733D02*
Y12833D01*
X14335Y12783D02*
X14435D01*
X14385Y12733D02*
Y12833D01*
X13885Y12783D02*
X13985D01*
X13935Y12733D02*
Y12833D01*
X13435Y12783D02*
X13535D01*
X13485Y12733D02*
Y12833D01*
X8635Y7233D02*
X8735D01*
X8685Y7183D02*
Y7283D01*
X12435Y6983D02*
X12535D01*
X12485Y6933D02*
Y7033D01*
X12885Y6983D02*
X12985D01*
X12935Y6933D02*
Y7033D01*
X13335Y6983D02*
X13435D01*
X13385Y6933D02*
Y7033D01*
X13785Y6983D02*
X13885D01*
X13835Y6933D02*
Y7033D01*
X14235Y6983D02*
X14335D01*
X14285Y6933D02*
Y7033D01*
X14685Y6983D02*
X14785D01*
X14735Y6933D02*
Y7033D01*
X15135Y6983D02*
X15235D01*
X15185Y6933D02*
Y7033D01*
X15585Y6983D02*
X15685D01*
X15635Y6933D02*
Y7033D01*
X16035Y6983D02*
X16135D01*
X16085Y6933D02*
Y7033D01*
X16485Y6983D02*
X16585D01*
X16535Y6933D02*
Y7033D01*
X12435Y7433D02*
X12535D01*
X12485Y7383D02*
Y7483D01*
X12885Y7433D02*
X12985D01*
X12935Y7383D02*
Y7483D01*
X13335Y7433D02*
X13435D01*
X13385Y7383D02*
Y7483D01*
X13785Y7433D02*
X13885D01*
X13835Y7383D02*
Y7483D01*
X14235Y7433D02*
X14335D01*
X14285Y7383D02*
Y7483D01*
X14685Y7433D02*
X14785D01*
X14735Y7383D02*
Y7483D01*
X15135Y7433D02*
X15235D01*
X15185Y7383D02*
Y7483D01*
X15585Y7433D02*
X15685D01*
X15635Y7383D02*
Y7483D01*
X16035Y7433D02*
X16135D01*
X16085Y7383D02*
Y7483D01*
X16485Y7433D02*
X16585D01*
X16535Y7383D02*
Y7483D01*
X12435Y7883D02*
X12535D01*
X12485Y7833D02*
Y7933D01*
X12885Y7883D02*
X12985D01*
X12935Y7833D02*
Y7933D01*
X13335Y7883D02*
X13435D01*
X13385Y7833D02*
Y7933D01*
X13785Y7883D02*
X13885D01*
X13835Y7833D02*
Y7933D01*
X14235Y7883D02*
X14335D01*
X14285Y7833D02*
Y7933D01*
X14685Y7883D02*
X14785D01*
X14735Y7833D02*
Y7933D01*
X15135Y7883D02*
X15235D01*
X15185Y7833D02*
Y7933D01*
X15585Y7883D02*
X15685D01*
X15635Y7833D02*
Y7933D01*
X16035Y7883D02*
X16135D01*
X16085Y7833D02*
Y7933D01*
X16485Y7883D02*
X16585D01*
X16535Y7833D02*
Y7933D01*
X12435Y8333D02*
X12535D01*
X12485Y8283D02*
Y8383D01*
X12885Y8333D02*
X12985D01*
X12935Y8283D02*
Y8383D01*
X13335Y8333D02*
X13435D01*
X13385Y8283D02*
Y8383D01*
X13785Y8333D02*
X13885D01*
X13835Y8283D02*
Y8383D01*
X14235Y8333D02*
X14335D01*
X14285Y8283D02*
Y8383D01*
X14685Y8333D02*
X14785D01*
X14735Y8283D02*
Y8383D01*
X15135Y8333D02*
X15235D01*
X15185Y8283D02*
Y8383D01*
X15585Y8333D02*
X15685D01*
X15635Y8283D02*
Y8383D01*
X16035Y8333D02*
X16135D01*
X16085Y8283D02*
Y8383D01*
X16485Y8333D02*
X16585D01*
X16535Y8283D02*
Y8383D01*
X12435Y8783D02*
X12535D01*
X12485Y8733D02*
Y8833D01*
X12885Y8783D02*
X12985D01*
X12935Y8733D02*
Y8833D01*
X13335Y8783D02*
X13435D01*
X13385Y8733D02*
Y8833D01*
X13785Y8783D02*
X13885D01*
X13835Y8733D02*
Y8833D01*
X14235Y8783D02*
X14335D01*
X14285Y8733D02*
Y8833D01*
X14685Y8783D02*
X14785D01*
X14735Y8733D02*
Y8833D01*
X15135Y8783D02*
X15235D01*
X15185Y8733D02*
Y8833D01*
X15585Y8783D02*
X15685D01*
X15635Y8733D02*
Y8833D01*
X16035Y8783D02*
X16135D01*
X16085Y8733D02*
Y8833D01*
X16485Y8783D02*
X16585D01*
X16535Y8733D02*
Y8833D01*
X16485Y9233D02*
X16585D01*
X16535Y9183D02*
Y9283D01*
X16035Y9233D02*
X16135D01*
X16085Y9183D02*
Y9283D01*
X15585Y9233D02*
X15685D01*
X15635Y9183D02*
Y9283D01*
X15135Y9233D02*
X15235D01*
X15185Y9183D02*
Y9283D01*
X14685Y9233D02*
X14785D01*
X14735Y9183D02*
Y9283D01*
X14235Y9233D02*
X14335D01*
X14285Y9183D02*
Y9283D01*
X13785Y9233D02*
X13885D01*
X13835Y9183D02*
Y9283D01*
X13335Y9233D02*
X13435D01*
X13385Y9183D02*
Y9283D01*
X12885Y9233D02*
X12985D01*
X12935Y9183D02*
Y9283D01*
X12435Y9233D02*
X12535D01*
X12485Y9183D02*
Y9283D01*
X12205Y5353D02*
X12305D01*
X12255Y5303D02*
Y5403D01*
X12195Y4853D02*
X12295D01*
X12245Y4803D02*
Y4903D01*
X8635Y11533D02*
X8735D01*
X8685Y11483D02*
Y11583D01*
X8135Y11533D02*
X8235D01*
X8185Y11483D02*
Y11583D01*
X7635Y11533D02*
X7735D01*
X7685Y11483D02*
Y11583D01*
X8735Y13133D02*
X8835D01*
X8785Y13083D02*
Y13183D01*
X8185Y13133D02*
X8285D01*
X8235Y13083D02*
Y13183D01*
X7635Y13133D02*
X7735D01*
X7685Y13083D02*
Y13183D01*
X3535Y3283D02*
X3635D01*
X3585Y3233D02*
Y3333D01*
X3135Y3283D02*
X3235D01*
X3185Y3233D02*
Y3333D01*
X2735Y3283D02*
X2835D01*
X2785Y3233D02*
Y3333D01*
X2335Y3283D02*
X2435D01*
X2385Y3233D02*
Y3333D01*
X5835Y483D02*
X5935D01*
X5885Y433D02*
Y533D01*
X5335Y483D02*
X5435D01*
X5385Y433D02*
Y533D01*
X4835Y483D02*
X4935D01*
X4885Y433D02*
Y533D01*
X4335Y483D02*
X4435D01*
X4385Y433D02*
Y533D01*
X5835Y883D02*
X5935D01*
X5885Y833D02*
Y933D01*
X5335Y883D02*
X5435D01*
X5385Y833D02*
Y933D01*
X4835Y883D02*
X4935D01*
X4885Y833D02*
Y933D01*
X4335Y883D02*
X4435D01*
X4385Y833D02*
Y933D01*
X5835Y1283D02*
X5935D01*
X5885Y1233D02*
Y1333D01*
X5335Y1283D02*
X5435D01*
X5385Y1233D02*
Y1333D01*
X4835Y1283D02*
X4935D01*
X4885Y1233D02*
Y1333D01*
X4335Y1283D02*
X4435D01*
X4385Y1233D02*
Y1333D01*
X3835Y1283D02*
X3935D01*
X3885Y1233D02*
Y1333D01*
X3335Y1283D02*
X3435D01*
X3385Y1233D02*
Y1333D01*
X1935Y583D02*
X2035D01*
X1985Y533D02*
Y633D01*
X1535Y583D02*
X1635D01*
X1585Y533D02*
Y633D01*
X1935Y983D02*
X2035D01*
X1985Y933D02*
Y1033D01*
X1535Y983D02*
X1635D01*
X1585Y933D02*
Y1033D01*
X1935Y2383D02*
X2035D01*
X1985Y2333D02*
Y2433D01*
X1535Y2383D02*
X1635D01*
X1585Y2333D02*
Y2433D01*
X1935Y2783D02*
X2035D01*
X1985Y2733D02*
Y2833D01*
X1535Y2783D02*
X1635D01*
X1585Y2733D02*
Y2833D01*
X1935Y3283D02*
X2035D01*
X1985Y3233D02*
Y3333D01*
X1535Y3283D02*
X1635D01*
X1585Y3233D02*
Y3333D01*
X1135Y3283D02*
X1235D01*
X1185Y3233D02*
Y3333D01*
X5535Y3583D02*
X5635D01*
X5585Y3533D02*
Y3633D01*
X5135Y3583D02*
X5235D01*
X5185Y3533D02*
Y3633D01*
X3535Y3683D02*
X3635D01*
X3585Y3633D02*
Y3733D01*
X3135Y3683D02*
X3235D01*
X3185Y3633D02*
Y3733D01*
X2735Y3683D02*
X2835D01*
X2785Y3633D02*
Y3733D01*
X2335Y3683D02*
X2435D01*
X2385Y3633D02*
Y3733D01*
X1935Y3683D02*
X2035D01*
X1985Y3633D02*
Y3733D01*
X1535Y3683D02*
X1635D01*
X1585Y3633D02*
Y3733D01*
X1135Y3683D02*
X1235D01*
X1185Y3633D02*
Y3733D01*
X735Y3683D02*
X835D01*
X785Y3633D02*
Y3733D01*
X335Y3683D02*
X435D01*
X385Y3633D02*
Y3733D01*
X5935Y4083D02*
X6035D01*
X5985Y4033D02*
Y4133D01*
X5535Y4083D02*
X5635D01*
X5585Y4033D02*
Y4133D01*
X5135Y4083D02*
X5235D01*
X5185Y4033D02*
Y4133D01*
X4735Y4083D02*
X4835D01*
X4785Y4033D02*
Y4133D01*
X4335Y4083D02*
X4435D01*
X4385Y4033D02*
Y4133D01*
X3935Y4083D02*
X4035D01*
X3985Y4033D02*
Y4133D01*
X3535Y4083D02*
X3635D01*
X3585Y4033D02*
Y4133D01*
X3135Y4083D02*
X3235D01*
X3185Y4033D02*
Y4133D01*
X2735Y4083D02*
X2835D01*
X2785Y4033D02*
Y4133D01*
X2335Y4083D02*
X2435D01*
X2385Y4033D02*
Y4133D01*
X1935Y4083D02*
X2035D01*
X1985Y4033D02*
Y4133D01*
X1535Y4083D02*
X1635D01*
X1585Y4033D02*
Y4133D01*
X1135Y4083D02*
X1235D01*
X1185Y4033D02*
Y4133D01*
X735Y4083D02*
X835D01*
X785Y4033D02*
Y4133D01*
X335Y4083D02*
X435D01*
X385Y4033D02*
Y4133D01*
X7135Y4483D02*
X7235D01*
X7185Y4433D02*
Y4533D01*
X6735Y4483D02*
X6835D01*
X6785Y4433D02*
Y4533D01*
X6335Y4483D02*
X6435D01*
X6385Y4433D02*
Y4533D01*
X5935Y4483D02*
X6035D01*
X5985Y4433D02*
Y4533D01*
X5535Y4483D02*
X5635D01*
X5585Y4433D02*
Y4533D01*
X5135Y4483D02*
X5235D01*
X5185Y4433D02*
Y4533D01*
X4735Y4483D02*
X4835D01*
X4785Y4433D02*
Y4533D01*
X4335Y4483D02*
X4435D01*
X4385Y4433D02*
Y4533D01*
X3935Y4483D02*
X4035D01*
X3985Y4433D02*
Y4533D01*
X3535Y4483D02*
X3635D01*
X3585Y4433D02*
Y4533D01*
X3135Y4483D02*
X3235D01*
X3185Y4433D02*
Y4533D01*
X2735Y4483D02*
X2835D01*
X2785Y4433D02*
Y4533D01*
X2335Y4483D02*
X2435D01*
X2385Y4433D02*
Y4533D01*
X1935Y4483D02*
X2035D01*
X1985Y4433D02*
Y4533D01*
X1535Y4483D02*
X1635D01*
X1585Y4433D02*
Y4533D01*
X1135Y4483D02*
X1235D01*
X1185Y4433D02*
Y4533D01*
X735Y4483D02*
X835D01*
X785Y4433D02*
Y4533D01*
X335Y4483D02*
X435D01*
X385Y4433D02*
Y4533D01*
X7135Y4883D02*
X7235D01*
X7185Y4833D02*
Y4933D01*
X6735Y4883D02*
X6835D01*
X6785Y4833D02*
Y4933D01*
X6335Y4883D02*
X6435D01*
X6385Y4833D02*
Y4933D01*
X5935Y4883D02*
X6035D01*
X5985Y4833D02*
Y4933D01*
X5535Y4883D02*
X5635D01*
X5585Y4833D02*
Y4933D01*
X5135Y4883D02*
X5235D01*
X5185Y4833D02*
Y4933D01*
X4735Y4883D02*
X4835D01*
X4785Y4833D02*
Y4933D01*
X4335Y4883D02*
X4435D01*
X4385Y4833D02*
Y4933D01*
X3935Y4883D02*
X4035D01*
X3985Y4833D02*
Y4933D01*
X3535Y4883D02*
X3635D01*
X3585Y4833D02*
Y4933D01*
X3135Y4883D02*
X3235D01*
X3185Y4833D02*
Y4933D01*
X2735Y4883D02*
X2835D01*
X2785Y4833D02*
Y4933D01*
X2335Y4883D02*
X2435D01*
X2385Y4833D02*
Y4933D01*
X1935Y4883D02*
X2035D01*
X1985Y4833D02*
Y4933D01*
X1535Y4883D02*
X1635D01*
X1585Y4833D02*
Y4933D01*
X1135Y4883D02*
X1235D01*
X1185Y4833D02*
Y4933D01*
X735Y4883D02*
X835D01*
X785Y4833D02*
Y4933D01*
X335Y4883D02*
X435D01*
X385Y4833D02*
Y4933D01*
X7135Y5283D02*
X7235D01*
X7185Y5233D02*
Y5333D01*
X6735Y5283D02*
X6835D01*
X6785Y5233D02*
Y5333D01*
X6335Y5283D02*
X6435D01*
X6385Y5233D02*
Y5333D01*
X5935Y5283D02*
X6035D01*
X5985Y5233D02*
Y5333D01*
X5535Y5283D02*
X5635D01*
X5585Y5233D02*
Y5333D01*
X5135Y5283D02*
X5235D01*
X5185Y5233D02*
Y5333D01*
X4735Y5283D02*
X4835D01*
X4785Y5233D02*
Y5333D01*
X4335Y5283D02*
X4435D01*
X4385Y5233D02*
Y5333D01*
X3935Y5283D02*
X4035D01*
X3985Y5233D02*
Y5333D01*
X3535Y5283D02*
X3635D01*
X3585Y5233D02*
Y5333D01*
X3135Y5283D02*
X3235D01*
X3185Y5233D02*
Y5333D01*
X2735Y5283D02*
X2835D01*
X2785Y5233D02*
Y5333D01*
X2335Y5283D02*
X2435D01*
X2385Y5233D02*
Y5333D01*
X1935Y5283D02*
X2035D01*
X1985Y5233D02*
Y5333D01*
X1535Y5283D02*
X1635D01*
X1585Y5233D02*
Y5333D01*
X1135Y5283D02*
X1235D01*
X1185Y5233D02*
Y5333D01*
X735Y5283D02*
X835D01*
X785Y5233D02*
Y5333D01*
X335Y5283D02*
X435D01*
X385Y5233D02*
Y5333D01*
X16655Y3143D02*
X16755D01*
X16705Y3093D02*
Y3193D01*
X17635Y7283D02*
X17735D01*
X17685Y7233D02*
Y7333D01*
X10025Y7663D02*
X10125D01*
X10075Y7613D02*
Y7713D01*
X10035Y8283D02*
X10135D01*
X10085Y8233D02*
Y8333D01*
X17935Y7683D02*
X18035D01*
X17985Y7633D02*
Y7733D01*
X7135Y2883D02*
X7235D01*
X7185Y2833D02*
Y2933D01*
X615Y10173D02*
X715D01*
X665Y10123D02*
Y10223D01*
X1635Y10183D02*
X1735D01*
X1685Y10133D02*
Y10233D01*
X2035Y10183D02*
X2135D01*
X2085Y10133D02*
Y10233D01*
X2435Y10183D02*
X2535D01*
X2485Y10133D02*
Y10233D01*
X2835Y10183D02*
X2935D01*
X2885Y10133D02*
Y10233D01*
X1635Y10583D02*
X1735D01*
X1685Y10533D02*
Y10633D01*
X2035Y10583D02*
X2135D01*
X2085Y10533D02*
Y10633D01*
X5135Y6783D02*
X5235D01*
X5185Y6733D02*
Y6833D01*
X4735Y6783D02*
X4835D01*
X4785Y6733D02*
Y6833D01*
X4335Y6783D02*
X4435D01*
X4385Y6733D02*
Y6833D01*
X3935Y6783D02*
X4035D01*
X3985Y6733D02*
Y6833D01*
X3535Y6783D02*
X3635D01*
X3585Y6733D02*
Y6833D01*
X5135Y6383D02*
X5235D01*
X5185Y6333D02*
Y6433D01*
X4435Y7483D02*
X4535D01*
X4485Y7433D02*
Y7533D01*
X2735Y6383D02*
X2835D01*
X2785Y6333D02*
Y6433D01*
X2335Y6383D02*
X2435D01*
X2385Y6333D02*
Y6433D01*
X1935Y6383D02*
X2035D01*
X1985Y6333D02*
Y6433D01*
X1535Y6383D02*
X1635D01*
X1585Y6333D02*
Y6433D01*
X1135Y6383D02*
X1235D01*
X1185Y6333D02*
Y6433D01*
X735Y6383D02*
X835D01*
X785Y6333D02*
Y6433D01*
X335Y6383D02*
X435D01*
X385Y6333D02*
Y6433D01*
X4735Y6383D02*
X4835D01*
X4785Y6333D02*
Y6433D01*
X4335Y6383D02*
X4435D01*
X4385Y6333D02*
Y6433D01*
X3935Y6383D02*
X4035D01*
X3985Y6333D02*
Y6433D01*
X3535Y6383D02*
X3635D01*
X3585Y6333D02*
Y6433D01*
X3135Y6383D02*
X3235D01*
X3185Y6333D02*
Y6433D01*
X335Y6783D02*
X435D01*
X385Y6733D02*
Y6833D01*
X3635Y7483D02*
X3735D01*
X3685Y7433D02*
Y7533D01*
X4035Y7483D02*
X4135D01*
X4085Y7433D02*
Y7533D01*
X4435Y7883D02*
X4535D01*
X4485Y7833D02*
Y7933D01*
X4035Y7883D02*
X4135D01*
X4085Y7833D02*
Y7933D01*
X3635Y7883D02*
X3735D01*
X3685Y7833D02*
Y7933D01*
X1935Y7183D02*
X2035D01*
X1985Y7133D02*
Y7233D01*
X1535Y7183D02*
X1635D01*
X1585Y7133D02*
Y7233D01*
X1935Y7583D02*
X2035D01*
X1985Y7533D02*
Y7633D01*
X1535Y7583D02*
X1635D01*
X1585Y7533D02*
Y7633D01*
X1935Y8883D02*
X2035D01*
X1985Y8833D02*
Y8933D01*
X1535Y8883D02*
X1635D01*
X1585Y8833D02*
Y8933D01*
X1935Y9283D02*
X2035D01*
X1985Y9233D02*
Y9333D01*
X1535Y9283D02*
X1635D01*
X1585Y9233D02*
Y9333D01*
X4435Y8583D02*
X4535D01*
X4485Y8533D02*
Y8633D01*
X4035Y8583D02*
X4135D01*
X4085Y8533D02*
Y8633D01*
X3635Y8583D02*
X3735D01*
X3685Y8533D02*
Y8633D01*
X4435Y8983D02*
X4535D01*
X4485Y8933D02*
Y9033D01*
X4035Y8983D02*
X4135D01*
X4085Y8933D02*
Y9033D01*
X3635Y8983D02*
X3735D01*
X3685Y8933D02*
Y9033D01*
X4435Y9383D02*
X4535D01*
X4485Y9333D02*
Y9433D01*
X4035Y9383D02*
X4135D01*
X4085Y9333D02*
Y9433D01*
X3635Y9383D02*
X3735D01*
X3685Y9333D02*
Y9433D01*
X4435Y9783D02*
X4535D01*
X4485Y9733D02*
Y9833D01*
X4035Y9783D02*
X4135D01*
X4085Y9733D02*
Y9833D01*
X3635Y9783D02*
X3735D01*
X3685Y9733D02*
Y9833D01*
X4435Y10183D02*
X4535D01*
X4485Y10133D02*
Y10233D01*
X4035Y10183D02*
X4135D01*
X4085Y10133D02*
Y10233D01*
X3635Y10183D02*
X3735D01*
X3685Y10133D02*
Y10233D01*
X3235Y10183D02*
X3335D01*
X3285Y10133D02*
Y10233D01*
X4435Y10583D02*
X4535D01*
X4485Y10533D02*
Y10633D01*
X4035Y10583D02*
X4135D01*
X4085Y10533D02*
Y10633D01*
X3635Y10583D02*
X3735D01*
X3685Y10533D02*
Y10633D01*
X4435Y10983D02*
X4535D01*
X4485Y10933D02*
Y11033D01*
X4035Y10983D02*
X4135D01*
X4085Y10933D02*
Y11033D01*
X3635Y10983D02*
X3735D01*
X3685Y10933D02*
Y11033D01*
X4435Y11383D02*
X4535D01*
X4485Y11333D02*
Y11433D01*
X4035Y11383D02*
X4135D01*
X4085Y11333D02*
Y11433D01*
X3635Y11383D02*
X3735D01*
X3685Y11333D02*
Y11433D01*
X5835Y9583D02*
X5935D01*
X5885Y9533D02*
Y9633D01*
X5835Y9983D02*
X5935D01*
X5885Y9933D02*
Y10033D01*
X5835Y10383D02*
X5935D01*
X5885Y10333D02*
Y10433D01*
X5835Y10783D02*
X5935D01*
X5885Y10733D02*
Y10833D01*
X5835Y11183D02*
X5935D01*
X5885Y11133D02*
Y11233D01*
X5835Y11583D02*
X5935D01*
X5885Y11533D02*
Y11633D01*
X1635Y13983D02*
X1735D01*
X1685Y13933D02*
Y14033D01*
X2035Y13983D02*
X2135D01*
X2085Y13933D02*
Y14033D01*
X2035Y13583D02*
X2135D01*
X2085Y13533D02*
Y13633D01*
X2435Y13983D02*
X2535D01*
X2485Y13933D02*
Y14033D01*
X2835Y13983D02*
X2935D01*
X2885Y13933D02*
Y14033D01*
X3235Y13983D02*
X3335D01*
X3285Y13933D02*
Y14033D01*
X3635Y13983D02*
X3735D01*
X3685Y13933D02*
Y14033D01*
X3635Y13583D02*
X3735D01*
X3685Y13533D02*
Y13633D01*
X4035Y13983D02*
X4135D01*
X4085Y13933D02*
Y14033D01*
X4035Y13583D02*
X4135D01*
X4085Y13533D02*
Y13633D01*
X3635Y12783D02*
X3735D01*
X3685Y12733D02*
Y12833D01*
X4035Y12783D02*
X4135D01*
X4085Y12733D02*
Y12833D01*
X1585Y12733D02*
X1685D01*
X1635Y12683D02*
Y12783D01*
X4035Y13183D02*
X4135D01*
X4085Y13133D02*
Y13233D01*
X3635Y13183D02*
X3735D01*
X3685Y13133D02*
Y13233D01*
X2125Y11093D02*
X2225D01*
X2175Y11043D02*
Y11143D01*
X1595Y11103D02*
X1695D01*
X1645Y11053D02*
Y11153D01*
X2105Y11473D02*
X2205D01*
X2155Y11423D02*
Y11523D01*
X2095Y12723D02*
X2195D01*
X2145Y12673D02*
Y12773D01*
X2085Y13103D02*
X2185D01*
X2135Y13053D02*
Y13153D01*
X1585Y13113D02*
X1685D01*
X1635Y13063D02*
Y13163D01*
X1585Y11473D02*
X1685D01*
X1635Y11423D02*
Y11523D01*
Y13583D02*
X1735D01*
X1685Y13533D02*
Y13633D01*
X4435Y13183D02*
X4535D01*
X4485Y13133D02*
Y13233D01*
X6005Y7253D02*
X6105D01*
X6055Y7203D02*
Y7303D01*
X6005Y7753D02*
X6105D01*
X6055Y7703D02*
Y7803D01*
X6005Y8273D02*
X6105D01*
X6055Y8223D02*
Y8323D01*
X4435Y12783D02*
X4535D01*
X4485Y12733D02*
Y12833D01*
X5835Y11983D02*
X5935D01*
X5885Y11933D02*
Y12033D01*
X5835Y12383D02*
X5935D01*
X5885Y12333D02*
Y12433D01*
X5235Y12383D02*
X5335D01*
X5285Y12333D02*
Y12433D01*
X5835Y12783D02*
X5935D01*
X5885Y12733D02*
Y12833D01*
X5235Y12783D02*
X5335D01*
X5285Y12733D02*
Y12833D01*
X4835Y12783D02*
X4935D01*
X4885Y12733D02*
Y12833D01*
X5835Y13583D02*
X5935D01*
X5885Y13533D02*
Y13633D01*
X5835Y13183D02*
X5935D01*
X5885Y13133D02*
Y13233D01*
X5235Y13183D02*
X5335D01*
X5285Y13133D02*
Y13233D01*
X5835Y13983D02*
X5935D01*
X5885Y13933D02*
Y14033D01*
M02*
