G04*
G04 #@! TF.GenerationSoftware,Altium Limited,Altium Designer,23.1.1 (15)*
G04*
G04 Layer_Color=8421504*
%FSLAX24Y24*%
%MOIN*%
G70*
G04*
G04 #@! TF.SameCoordinates,EDFB4F86-8D80-4751-AEB2-894B5B2271B4*
G04*
G04*
G04 #@! TF.FilePolarity,Positive*
G04*
G01*
G75*
%ADD20R,0.0560X0.0560*%
%ADD21R,0.0354X0.0295*%
%ADD22R,0.0330X0.0300*%
%ADD23R,0.0290X0.0340*%
%ADD24R,0.0700X0.0700*%
%ADD25C,0.0600*%
%ADD26R,0.0538X0.0215*%
G04:AMPARAMS|DCode=27|XSize=53.8mil|YSize=21.5mil|CornerRadius=10.7mil|HoleSize=0mil|Usage=FLASHONLY|Rotation=0.000|XOffset=0mil|YOffset=0mil|HoleType=Round|Shape=RoundedRectangle|*
%AMROUNDEDRECTD27*
21,1,0.0538,0.0000,0,0,0.0*
21,1,0.0323,0.0215,0,0,0.0*
1,1,0.0215,0.0161,0.0000*
1,1,0.0215,-0.0161,0.0000*
1,1,0.0215,-0.0161,0.0000*
1,1,0.0215,0.0161,0.0000*
%
%ADD27ROUNDEDRECTD27*%
%ADD28R,0.1398X0.0807*%
%ADD29R,0.0300X0.0330*%
%ADD30R,0.0295X0.0354*%
%ADD31O,0.0669X0.0138*%
%ADD32R,0.0340X0.0290*%
%ADD33O,0.0236X0.0906*%
%ADD34C,0.0400*%
D20*
X12617Y6802D02*
D03*
X12617Y7589D02*
D03*
X13404Y6802D02*
D03*
X14192Y6802D02*
D03*
X13404Y7589D02*
D03*
X14192Y7589D02*
D03*
X12617Y8376D02*
D03*
X13404D02*
D03*
X12617Y9164D02*
D03*
X13404D02*
D03*
X14192Y8376D02*
D03*
X14192Y9164D02*
D03*
X14979Y6802D02*
D03*
X14979Y7589D02*
D03*
X15766Y6802D02*
D03*
X16554D02*
D03*
X15766Y7589D02*
D03*
X16554D02*
D03*
X14979Y8376D02*
D03*
X14979Y9164D02*
D03*
X15766Y8376D02*
D03*
X16554D02*
D03*
X15766Y9164D02*
D03*
X16554D02*
D03*
D21*
X5785Y2759D02*
D03*
Y2287D02*
D03*
X10085Y846D02*
D03*
Y1319D02*
D03*
X13685Y12219D02*
D03*
Y11746D02*
D03*
X15085Y12219D02*
D03*
Y11746D02*
D03*
X16785Y4219D02*
D03*
Y3746D02*
D03*
D22*
X4985Y2303D02*
D03*
Y2863D02*
D03*
X10785Y1363D02*
D03*
Y803D02*
D03*
X14385Y12263D02*
D03*
Y11703D02*
D03*
D23*
X9100Y7663D02*
D03*
X9651D02*
D03*
X9661Y8283D02*
D03*
X9110D02*
D03*
X10000Y2793D02*
D03*
X10551D02*
D03*
Y2203D02*
D03*
X10000D02*
D03*
X18561Y8183D02*
D03*
X18010D02*
D03*
X18561Y5183D02*
D03*
X18010D02*
D03*
X15610Y3683D02*
D03*
X16161D02*
D03*
D24*
X2835Y11133D02*
D03*
X935D02*
D03*
X2835Y13033D02*
D03*
X935D02*
D03*
X2835Y7333D02*
D03*
X935D02*
D03*
X2835Y9233D02*
D03*
X935D02*
D03*
Y2633D02*
D03*
X2835D02*
D03*
X935Y733D02*
D03*
X2835D02*
D03*
D25*
X1885Y12083D02*
D03*
Y8283D02*
D03*
Y1683D02*
D03*
D26*
X5299Y8733D02*
D03*
D27*
Y8233D02*
D03*
Y7733D02*
D03*
Y7233D02*
D03*
X8071D02*
D03*
Y7733D02*
D03*
Y8233D02*
D03*
Y8733D02*
D03*
D28*
X10845Y12383D02*
D03*
X8325D02*
D03*
X10845Y4883D02*
D03*
X8325D02*
D03*
D29*
X8305Y10183D02*
D03*
X8865D02*
D03*
X14965Y3033D02*
D03*
X14405D02*
D03*
X16165Y4283D02*
D03*
X15605D02*
D03*
D30*
X8349Y9483D02*
D03*
X8821D02*
D03*
X12949Y4283D02*
D03*
X13421D02*
D03*
D31*
X9096Y647D02*
D03*
Y903D02*
D03*
Y1159D02*
D03*
Y1415D02*
D03*
Y1671D02*
D03*
Y1927D02*
D03*
Y2183D02*
D03*
Y2439D02*
D03*
X6852Y647D02*
D03*
Y903D02*
D03*
Y1159D02*
D03*
Y1415D02*
D03*
Y1671D02*
D03*
Y1927D02*
D03*
Y2183D02*
D03*
Y2439D02*
D03*
D32*
X15785Y12258D02*
D03*
Y11707D02*
D03*
X14975Y4244D02*
D03*
Y3693D02*
D03*
X14355Y3697D02*
D03*
Y4248D02*
D03*
D33*
X13385Y5217D02*
D03*
X13785D02*
D03*
X14185D02*
D03*
X14585D02*
D03*
X14985D02*
D03*
X15385D02*
D03*
Y10748D02*
D03*
X14985D02*
D03*
X14585D02*
D03*
X14185D02*
D03*
X13785D02*
D03*
X13385D02*
D03*
X12985Y5217D02*
D03*
Y10748D02*
D03*
X15785Y5217D02*
D03*
X16185D02*
D03*
X15785Y10748D02*
D03*
X16185D02*
D03*
D34*
X3685Y683D02*
D03*
X4965Y13793D02*
D03*
X20285Y13933D02*
D03*
M02*
