G04*
G04 #@! TF.GenerationSoftware,Altium Limited,Altium Designer,23.1.1 (15)*
G04*
G04 Layer_Color=65535*
%FSLAX24Y24*%
%MOIN*%
G70*
G04*
G04 #@! TF.SameCoordinates,EDFB4F86-8D80-4751-AEB2-894B5B2271B4*
G04*
G04*
G04 #@! TF.FilePolarity,Positive*
G04*
G01*
G75*
%ADD10C,0.0098*%
%ADD11C,0.0197*%
%ADD12C,0.0236*%
%ADD13C,0.0079*%
%ADD14C,0.0050*%
%ADD15C,0.0020*%
%ADD16C,0.0100*%
%ADD17C,0.0060*%
%ADD18R,0.0300X0.0100*%
%ADD19R,0.0100X0.0300*%
D10*
X438Y12083D02*
G03*
X438Y12083I-49J0D01*
G01*
Y8283D02*
G03*
X438Y8283I-49J0D01*
G01*
Y1683D02*
G03*
X438Y1683I-49J0D01*
G01*
X4883Y8733D02*
G03*
X4883Y8733I-49J0D01*
G01*
X6901Y2724D02*
G03*
X6901Y2724I-49J0D01*
G01*
X12700Y5217D02*
G03*
X12700Y5217I-49J0D01*
G01*
D11*
X6159Y8725D02*
G03*
X6159Y8725I-98J0D01*
G01*
D12*
X7856Y2153D02*
G03*
X7856Y2153I-118J0D01*
G01*
D13*
X6121Y2181D02*
Y2870D01*
X5451Y2179D02*
Y2868D01*
X616Y11630D02*
Y12535D01*
X1433Y10813D02*
X2338D01*
X3155Y11630D02*
Y12535D01*
X1433Y13352D02*
X2338D01*
X616Y7830D02*
Y8735D01*
X1433Y7013D02*
X2338D01*
X3155Y7830D02*
Y8735D01*
X1433Y9552D02*
X2338D01*
X1433Y2952D02*
X2338D01*
X3155Y1230D02*
Y2135D01*
X1433Y413D02*
X2338D01*
X616Y1230D02*
Y2135D01*
X5765Y9020D02*
X7606D01*
Y6945D02*
Y9020D01*
X5765Y6945D02*
X7606D01*
X5765D02*
Y9020D01*
X7951Y14017D02*
X10402D01*
X7951Y10749D02*
X10402D01*
X8241Y9817D02*
X8930D01*
X8243Y9147D02*
X8932D01*
X7951Y6517D02*
X10402D01*
X7951Y3249D02*
X10402D01*
X7344Y539D02*
X8604D01*
X7344Y2547D02*
X8604D01*
Y539D02*
Y2547D01*
X7344Y539D02*
Y2547D01*
X9751Y738D02*
Y1427D01*
X10421Y740D02*
Y1429D01*
X14020Y11638D02*
Y12327D01*
X13349Y11636D02*
Y12325D01*
X15420Y11638D02*
Y12327D01*
X14749Y11636D02*
Y12325D01*
X12255Y6048D02*
Y6290D01*
Y6048D02*
X16915D01*
X12255Y9676D02*
Y9918D01*
X16915D01*
Y6048D02*
Y6290D01*
Y9676D02*
Y9918D01*
X12841Y4617D02*
X13530D01*
X12843Y3947D02*
X13532D01*
X18856Y11742D02*
X20915D01*
X18856Y3624D02*
Y11742D01*
X20915Y3624D02*
Y11742D01*
X18856Y3624D02*
X20915D01*
X17120Y3638D02*
Y4327D01*
X16449Y3636D02*
Y4325D01*
D14*
X4735Y2083D02*
Y3083D01*
Y2083D02*
X5235D01*
X4735Y3083D02*
X5235D01*
Y2083D02*
Y3083D01*
X8085Y10433D02*
X9085D01*
X8085Y9933D02*
Y10433D01*
X9085Y9933D02*
Y10433D01*
X8085Y9933D02*
X9085D01*
X11035Y583D02*
Y1583D01*
X10535D02*
X11035D01*
X10535Y583D02*
X11035D01*
X10535D02*
Y1583D01*
X14635Y11483D02*
Y12483D01*
X14135D02*
X14635D01*
X14135Y11483D02*
X14635D01*
X14135D02*
Y12483D01*
X14185Y2783D02*
X15185D01*
Y3283D01*
X14185Y2783D02*
Y3283D01*
X15185D01*
X15385Y4033D02*
X16385D01*
Y4533D01*
X15385Y4033D02*
Y4533D01*
X16385D01*
D15*
X8835Y7939D02*
X8838Y7899D01*
X8835Y7939D02*
X9913D01*
X9912Y7384D02*
X9913Y7939D01*
X8838Y7390D02*
X9912Y7384D01*
X8838Y7390D02*
Y7899D01*
X8848Y8010D02*
Y8519D01*
Y8010D02*
X9922Y8004D01*
X9923Y8559D01*
X8845D02*
X9923D01*
X8845D02*
X8848Y8519D01*
X9735Y3069D02*
X9738Y3029D01*
X9735Y3069D02*
X10813D01*
X10812Y2514D02*
X10813Y3069D01*
X9738Y2520D02*
X10812Y2514D01*
X9738Y2520D02*
Y3029D01*
Y1930D02*
Y2439D01*
Y1930D02*
X10812Y1924D01*
X10813Y2479D01*
X9735D02*
X10813D01*
X9735D02*
X9738Y2439D01*
X16022Y12520D02*
X16061Y12522D01*
Y11445D02*
Y12522D01*
X15506Y11446D02*
X16061Y11445D01*
X15506Y11446D02*
X15512Y12520D01*
X16022D01*
X14739Y3431D02*
X15248D01*
X15254Y4505D01*
X14699Y4506D02*
X15254Y4505D01*
X14699Y3429D02*
Y4506D01*
Y3429D02*
X14739Y3431D01*
X14079Y3433D02*
X14119Y3435D01*
X14079Y3433D02*
Y4511D01*
X14634Y4509D01*
X14628Y3435D02*
X14634Y4509D01*
X14119Y3435D02*
X14628D01*
X18823Y7946D02*
X18825Y7907D01*
X17747D02*
X18825D01*
X17747D02*
X17749Y8462D01*
X18823Y8456D01*
Y7946D02*
Y8456D01*
X17748Y4910D02*
Y5419D01*
Y4910D02*
X18822Y4904D01*
X18823Y5459D01*
X17745D02*
X18823D01*
X17745D02*
X17748Y5419D01*
X16423Y3446D02*
Y3956D01*
X15349Y3962D02*
X16423Y3956D01*
X15347Y3407D02*
X15349Y3962D01*
X15347Y3407D02*
X16425D01*
X16423Y3446D02*
X16425Y3407D01*
D16*
X11297Y11039D02*
X10897D01*
X11097Y10839D02*
Y11239D01*
X11297Y3539D02*
X10897D01*
X11097Y3339D02*
Y3739D01*
D17*
X20494Y3433D02*
X20509Y3402D01*
X20555Y3357D01*
X20235D01*
X20509Y3015D02*
X20540Y3031D01*
X20555Y3076D01*
Y3107D01*
X20540Y3152D01*
X20494Y3183D01*
X20418Y3198D01*
X20342D01*
X20281Y3183D01*
X20250Y3152D01*
X20235Y3107D01*
Y3091D01*
X20250Y3046D01*
X20281Y3015D01*
X20327Y3000D01*
X20342D01*
X20388Y3015D01*
X20418Y3046D01*
X20433Y3091D01*
Y3107D01*
X20418Y3152D01*
X20388Y3183D01*
X20342Y3198D01*
X19444Y3433D02*
X19459Y3402D01*
X19505Y3357D01*
X19185D01*
X19505Y3015D02*
Y3168D01*
X19368Y3183D01*
X19383Y3168D01*
X19399Y3122D01*
Y3076D01*
X19383Y3031D01*
X19353Y3000D01*
X19307Y2985D01*
X19277D01*
X19231Y3000D01*
X19200Y3031D01*
X19185Y3076D01*
Y3122D01*
X19200Y3168D01*
X19216Y3183D01*
X19246Y3198D01*
X19494Y12263D02*
X19509Y12232D01*
X19555Y12187D01*
X19235D01*
X20519Y12327D02*
X20534D01*
X20565Y12312D01*
X20580Y12297D01*
X20595Y12267D01*
Y12206D01*
X20580Y12175D01*
X20565Y12160D01*
X20534Y12145D01*
X20504D01*
X20473Y12160D01*
X20428Y12190D01*
X20275Y12343D01*
Y12129D01*
X13025Y3649D02*
X13345D01*
Y3489D01*
X13292Y3436D01*
X13185D01*
X13132Y3489D01*
Y3649D01*
Y3543D02*
X13025Y3436D01*
Y3116D02*
Y3329D01*
X13239Y3116D01*
X13292D01*
X13345Y3169D01*
Y3276D01*
X13292Y3329D01*
X13555Y3636D02*
X13875D01*
Y3476D01*
X13822Y3423D01*
X13715D01*
X13662Y3476D01*
Y3636D01*
Y3529D02*
X13555Y3423D01*
Y3316D02*
Y3209D01*
Y3263D01*
X13875D01*
X13822Y3316D01*
X5609Y9593D02*
Y9326D01*
X5662Y9273D01*
X5769D01*
X5822Y9326D01*
Y9593D01*
X5929Y9539D02*
X5982Y9593D01*
X6089D01*
X6142Y9539D01*
Y9486D01*
X6089Y9433D01*
X6035D01*
X6089D01*
X6142Y9379D01*
Y9326D01*
X6089Y9273D01*
X5982D01*
X5929Y9326D01*
X7079Y3373D02*
Y3106D01*
X7132Y3053D01*
X7239D01*
X7292Y3106D01*
Y3373D01*
X7612Y3053D02*
X7399D01*
X7612Y3266D01*
Y3319D01*
X7559Y3373D01*
X7452D01*
X7399Y3319D01*
X11595Y6379D02*
X11862D01*
X11915Y6433D01*
Y6539D01*
X11862Y6593D01*
X11595D01*
X11915Y6699D02*
Y6806D01*
Y6753D01*
X11595D01*
X11649Y6699D01*
X17739Y8723D02*
Y9043D01*
X17899D01*
X17952Y8989D01*
Y8883D01*
X17899Y8829D01*
X17739D01*
X17845D02*
X17952Y8723D01*
X18059D02*
X18165D01*
X18112D01*
Y9043D01*
X18059Y8989D01*
X18325Y8723D02*
X18432D01*
X18378D01*
Y9043D01*
X18325Y8989D01*
X10285Y8123D02*
Y8443D01*
X10445D01*
X10499Y8389D01*
Y8283D01*
X10445Y8229D01*
X10285D01*
X10392D02*
X10499Y8123D01*
X10605D02*
X10712D01*
X10659D01*
Y8443D01*
X10605Y8389D01*
X10872D02*
X10925Y8443D01*
X11032D01*
X11085Y8389D01*
Y8176D01*
X11032Y8123D01*
X10925D01*
X10872Y8176D01*
Y8389D01*
X10309Y7563D02*
Y7883D01*
X10469D01*
X10522Y7829D01*
Y7723D01*
X10469Y7669D01*
X10309D01*
X10415D02*
X10522Y7563D01*
X10629Y7616D02*
X10682Y7563D01*
X10789D01*
X10842Y7616D01*
Y7829D01*
X10789Y7883D01*
X10682D01*
X10629Y7829D01*
Y7776D01*
X10682Y7723D01*
X10842D01*
X17749Y5693D02*
Y6013D01*
X17909D01*
X17962Y5959D01*
Y5853D01*
X17909Y5799D01*
X17749D01*
X17855D02*
X17962Y5693D01*
X18069Y5959D02*
X18122Y6013D01*
X18228D01*
X18282Y5959D01*
Y5906D01*
X18228Y5853D01*
X18282Y5799D01*
Y5746D01*
X18228Y5693D01*
X18122D01*
X18069Y5746D01*
Y5799D01*
X18122Y5853D01*
X18069Y5906D01*
Y5959D01*
X18122Y5853D02*
X18228D01*
X10989Y2603D02*
Y2923D01*
X11149D01*
X11202Y2869D01*
Y2763D01*
X11149Y2709D01*
X10989D01*
X11095D02*
X11202Y2603D01*
X11309Y2923D02*
X11522D01*
Y2869D01*
X11309Y2656D01*
Y2603D01*
X10989Y2053D02*
Y2373D01*
X11149D01*
X11202Y2319D01*
Y2213D01*
X11149Y2159D01*
X10989D01*
X11095D02*
X11202Y2053D01*
X11522Y2373D02*
X11309D01*
Y2213D01*
X11415Y2266D01*
X11468D01*
X11522Y2213D01*
Y2106D01*
X11468Y2053D01*
X11362D01*
X11309Y2106D01*
X15935Y12696D02*
X15615D01*
Y12856D01*
X15669Y12909D01*
X15775D01*
X15829Y12856D01*
Y12696D01*
Y12803D02*
X15935Y12909D01*
Y13176D02*
X15615D01*
X15775Y13016D01*
Y13229D01*
X17369Y3523D02*
Y3843D01*
X17529D01*
X17582Y3789D01*
Y3683D01*
X17529Y3629D01*
X17369D01*
X17475D02*
X17582Y3523D01*
X17689Y3789D02*
X17742Y3843D01*
X17849D01*
X17902Y3789D01*
Y3736D01*
X17849Y3683D01*
X17795D01*
X17849D01*
X17902Y3629D01*
Y3576D01*
X17849Y3523D01*
X17742D01*
X17689Y3576D01*
X18972Y12733D02*
X18865D01*
X18919D01*
Y12466D01*
X18865Y12413D01*
X18812D01*
X18759Y12466D01*
X19239Y12413D02*
Y12733D01*
X19079Y12573D01*
X19292D01*
X832Y13843D02*
X725D01*
X779D01*
Y13576D01*
X725Y13523D01*
X672D01*
X619Y13576D01*
X939Y13789D02*
X992Y13843D01*
X1098D01*
X1152Y13789D01*
Y13736D01*
X1098Y13683D01*
X1045D01*
X1098D01*
X1152Y13629D01*
Y13576D01*
X1098Y13523D01*
X992D01*
X939Y13576D01*
X872Y3643D02*
X765D01*
X819D01*
Y3376D01*
X765Y3323D01*
X712D01*
X659Y3376D01*
X1192Y3323D02*
X979D01*
X1192Y3536D01*
Y3589D01*
X1138Y3643D01*
X1032D01*
X979Y3589D01*
X825Y10193D02*
X719D01*
X772D01*
Y9926D01*
X719Y9873D01*
X665D01*
X612Y9926D01*
X932Y9873D02*
X1038D01*
X985D01*
Y10193D01*
X932Y10139D01*
X11279Y896D02*
X11225Y843D01*
Y736D01*
X11279Y683D01*
X11492D01*
X11545Y736D01*
Y843D01*
X11492Y896D01*
X11545Y1003D02*
Y1109D01*
Y1056D01*
X11225D01*
X11279Y1003D01*
X11492Y1269D02*
X11545Y1323D01*
Y1429D01*
X11492Y1483D01*
X11279D01*
X11225Y1429D01*
Y1323D01*
X11279Y1269D01*
X11332D01*
X11385Y1323D01*
Y1483D01*
X11779Y896D02*
X11725Y843D01*
Y736D01*
X11779Y683D01*
X11992D01*
X12045Y736D01*
Y843D01*
X11992Y896D01*
X12045Y1003D02*
Y1109D01*
Y1056D01*
X11725D01*
X11779Y1003D01*
Y1269D02*
X11725Y1323D01*
Y1429D01*
X11779Y1483D01*
X11832D01*
X11885Y1429D01*
X11939Y1483D01*
X11992D01*
X12045Y1429D01*
Y1323D01*
X11992Y1269D01*
X11939D01*
X11885Y1323D01*
X11832Y1269D01*
X11779D01*
X11885Y1323D02*
Y1429D01*
X4879Y3496D02*
X4825Y3443D01*
Y3336D01*
X4879Y3283D01*
X5092D01*
X5145Y3336D01*
Y3443D01*
X5092Y3496D01*
X5145Y3603D02*
Y3709D01*
Y3656D01*
X4825D01*
X4879Y3603D01*
X4825Y3869D02*
Y4083D01*
X4879D01*
X5092Y3869D01*
X5145D01*
X5649Y3456D02*
X5596Y3403D01*
Y3296D01*
X5649Y3243D01*
X5863D01*
X5916Y3296D01*
Y3403D01*
X5863Y3456D01*
X5916Y3563D02*
Y3669D01*
Y3616D01*
X5596D01*
X5649Y3563D01*
X5596Y4043D02*
X5649Y3936D01*
X5756Y3829D01*
X5863D01*
X5916Y3883D01*
Y3989D01*
X5863Y4043D01*
X5809D01*
X5756Y3989D01*
Y3829D01*
X17569Y4489D02*
X17515Y4543D01*
X17409D01*
X17355Y4489D01*
Y4276D01*
X17409Y4223D01*
X17515D01*
X17569Y4276D01*
X17675Y4223D02*
X17782D01*
X17729D01*
Y4543D01*
X17675Y4489D01*
X18155Y4543D02*
X17942D01*
Y4383D01*
X18048Y4436D01*
X18102D01*
X18155Y4383D01*
Y4276D01*
X18102Y4223D01*
X17995D01*
X17942Y4276D01*
X13279Y2839D02*
X13225Y2893D01*
X13119D01*
X13065Y2839D01*
Y2626D01*
X13119Y2573D01*
X13225D01*
X13279Y2626D01*
X13385Y2573D02*
X13492D01*
X13439D01*
Y2893D01*
X13385Y2839D01*
X13812Y2573D02*
Y2893D01*
X13652Y2733D01*
X13865D01*
X7069Y6459D02*
X7015Y6513D01*
X6909D01*
X6855Y6459D01*
Y6246D01*
X6909Y6193D01*
X7015D01*
X7069Y6246D01*
X7175Y6193D02*
X7282D01*
X7229D01*
Y6513D01*
X7175Y6459D01*
X7442D02*
X7495Y6513D01*
X7602D01*
X7655Y6459D01*
Y6406D01*
X7602Y6353D01*
X7548D01*
X7602D01*
X7655Y6299D01*
Y6246D01*
X7602Y6193D01*
X7495D01*
X7442Y6246D01*
X11979Y4399D02*
X11925Y4453D01*
X11819D01*
X11765Y4399D01*
Y4186D01*
X11819Y4133D01*
X11925D01*
X11979Y4186D01*
X12085Y4133D02*
X12192D01*
X12139D01*
Y4453D01*
X12085Y4399D01*
X12565Y4133D02*
X12352D01*
X12565Y4346D01*
Y4399D01*
X12512Y4453D01*
X12405D01*
X12352Y4399D01*
X18379Y3719D02*
X18325Y3666D01*
Y3559D01*
X18379Y3506D01*
X18592D01*
X18645Y3559D01*
Y3666D01*
X18592Y3719D01*
X18645Y3826D02*
Y3933D01*
Y3879D01*
X18325D01*
X18379Y3826D01*
X18645Y4093D02*
Y4199D01*
Y4146D01*
X18325D01*
X18379Y4093D01*
X14969Y12886D02*
X14915Y12833D01*
Y12726D01*
X14969Y12673D01*
X15182D01*
X15235Y12726D01*
Y12833D01*
X15182Y12886D01*
X15235Y12993D02*
Y13099D01*
Y13046D01*
X14915D01*
X14969Y12993D01*
Y13259D02*
X14915Y13313D01*
Y13419D01*
X14969Y13473D01*
X15182D01*
X15235Y13419D01*
Y13313D01*
X15182Y13259D01*
X14969D01*
X7432Y13889D02*
X7379Y13943D01*
X7272D01*
X7219Y13889D01*
Y13676D01*
X7272Y13623D01*
X7379D01*
X7432Y13676D01*
X7539D02*
X7592Y13623D01*
X7699D01*
X7752Y13676D01*
Y13889D01*
X7699Y13943D01*
X7592D01*
X7539Y13889D01*
Y13836D01*
X7592Y13783D01*
X7752D01*
X14279Y12879D02*
X14225Y12826D01*
Y12719D01*
X14279Y12666D01*
X14492D01*
X14545Y12719D01*
Y12826D01*
X14492Y12879D01*
X14279Y12986D02*
X14225Y13039D01*
Y13146D01*
X14279Y13199D01*
X14332D01*
X14385Y13146D01*
X14439Y13199D01*
X14492D01*
X14545Y13146D01*
Y13039D01*
X14492Y12986D01*
X14439D01*
X14385Y13039D01*
X14332Y12986D01*
X14279D01*
X14385Y13039D02*
Y13146D01*
X7582Y10289D02*
X7529Y10343D01*
X7422D01*
X7369Y10289D01*
Y10076D01*
X7422Y10023D01*
X7529D01*
X7582Y10076D01*
X7689Y10343D02*
X7902D01*
Y10289D01*
X7689Y10076D01*
Y10023D01*
X13579Y12869D02*
X13525Y12816D01*
Y12709D01*
X13579Y12656D01*
X13792D01*
X13845Y12709D01*
Y12816D01*
X13792Y12869D01*
X13845Y13189D02*
Y12976D01*
X13632Y13189D01*
X13579D01*
X13525Y13136D01*
Y13029D01*
X13579Y12976D01*
X7675Y9639D02*
X7622Y9693D01*
X7515D01*
X7462Y9639D01*
Y9426D01*
X7515Y9373D01*
X7622D01*
X7675Y9426D01*
X7782Y9373D02*
X7889D01*
X7835D01*
Y9693D01*
X7782Y9639D01*
D18*
X4985Y2583D02*
D03*
X10785Y1083D02*
D03*
X14385Y11983D02*
D03*
D19*
X8585Y10183D02*
D03*
X14685Y3033D02*
D03*
X15885Y4283D02*
D03*
M02*
