G04*
G04 #@! TF.GenerationSoftware,Altium Limited,Altium Designer,23.1.1 (15)*
G04*
G04 Layer_Color=2752767*
%FSLAX24Y24*%
%MOIN*%
G70*
G04*
G04 #@! TF.SameCoordinates,EDFB4F86-8D80-4751-AEB2-894B5B2271B4*
G04*
G04*
G04 #@! TF.FilePolarity,Positive*
G04*
G01*
G75*
%ADD14C,0.0050*%
%ADD16C,0.0100*%
%ADD47C,0.0150*%
%ADD56C,0.0160*%
D14*
X5885Y13833D02*
X6035Y14133D01*
X5735D02*
X6035D01*
X5735D02*
X5885Y13833D01*
Y13733D02*
X6135Y14233D01*
X5635D02*
X6135D01*
X5635D02*
X5885Y13733D01*
X5285Y13033D02*
X5435Y13333D01*
X5135D02*
X5435D01*
X5135D02*
X5285Y13033D01*
Y12933D02*
X5535Y13433D01*
X5035D02*
X5535D01*
X5035D02*
X5285Y12933D01*
X5885Y13033D02*
X6035Y13333D01*
X5735D02*
X6035D01*
X5735D02*
X5885Y13033D01*
Y12933D02*
X6135Y13433D01*
X5635D02*
X6135D01*
X5635D02*
X5885Y12933D01*
Y13433D02*
X6035Y13733D01*
X5735D02*
X6035D01*
X5735D02*
X5885Y13433D01*
Y13333D02*
X6135Y13833D01*
X5635D02*
X6135D01*
X5635D02*
X5885Y13333D01*
X4885Y12633D02*
X5035Y12933D01*
X4735D02*
X5035D01*
X4735D02*
X4885Y12633D01*
Y12533D02*
X5135Y13033D01*
X4635D02*
X5135D01*
X4635D02*
X4885Y12533D01*
X5285Y12633D02*
X5435Y12933D01*
X5135D02*
X5435D01*
X5135D02*
X5285Y12633D01*
Y12533D02*
X5535Y13033D01*
X5035D02*
X5535D01*
X5035D02*
X5285Y12533D01*
X5885Y12633D02*
X6035Y12933D01*
X5735D02*
X6035D01*
X5735D02*
X5885Y12633D01*
Y12533D02*
X6135Y13033D01*
X5635D02*
X6135D01*
X5635D02*
X5885Y12533D01*
X5285Y12233D02*
X5435Y12533D01*
X5135D02*
X5435D01*
X5135D02*
X5285Y12233D01*
Y12133D02*
X5535Y12633D01*
X5035D02*
X5535D01*
X5035D02*
X5285Y12133D01*
X5885Y12233D02*
X6035Y12533D01*
X5735D02*
X6035D01*
X5735D02*
X5885Y12233D01*
Y12133D02*
X6135Y12633D01*
X5635D02*
X6135D01*
X5635D02*
X5885Y12133D01*
Y11833D02*
X6035Y12133D01*
X5735D02*
X6035D01*
X5735D02*
X5885Y11833D01*
Y11733D02*
X6135Y12233D01*
X5635D02*
X6135D01*
X5635D02*
X5885Y11733D01*
X4485Y12633D02*
X4635Y12933D01*
X4335D02*
X4635D01*
X4335D02*
X4485Y12633D01*
Y12533D02*
X4735Y13033D01*
X4235D02*
X4735D01*
X4235D02*
X4485Y12533D01*
X6055Y8123D02*
X6205Y8423D01*
X5905D02*
X6205D01*
X5905D02*
X6055Y8123D01*
Y8023D02*
X6305Y8523D01*
X5805D02*
X6305D01*
X5805D02*
X6055Y8023D01*
Y7603D02*
X6205Y7903D01*
X5905D02*
X6205D01*
X5905D02*
X6055Y7603D01*
Y7503D02*
X6305Y8003D01*
X5805D02*
X6305D01*
X5805D02*
X6055Y7503D01*
Y7103D02*
X6205Y7403D01*
X5905D02*
X6205D01*
X5905D02*
X6055Y7103D01*
Y7003D02*
X6305Y7503D01*
X5805D02*
X6305D01*
X5805D02*
X6055Y7003D01*
X4485Y13033D02*
X4635Y13333D01*
X4335D02*
X4635D01*
X4335D02*
X4485Y13033D01*
Y12933D02*
X4735Y13433D01*
X4235D02*
X4735D01*
X4235D02*
X4485Y12933D01*
X1685Y13433D02*
X1835Y13733D01*
X1535D02*
X1835D01*
X1535D02*
X1685Y13433D01*
Y13333D02*
X1935Y13833D01*
X1435D02*
X1935D01*
X1435D02*
X1685Y13333D01*
X1635Y11323D02*
X1785Y11623D01*
X1485D02*
X1785D01*
X1485D02*
X1635Y11323D01*
Y11223D02*
X1885Y11723D01*
X1385D02*
X1885D01*
X1385D02*
X1635Y11223D01*
Y12963D02*
X1785Y13263D01*
X1485D02*
X1785D01*
X1485D02*
X1635Y12963D01*
Y12863D02*
X1885Y13363D01*
X1385D02*
X1885D01*
X1385D02*
X1635Y12863D01*
X2135Y12953D02*
X2285Y13253D01*
X1985D02*
X2285D01*
X1985D02*
X2135Y12953D01*
Y12853D02*
X2385Y13353D01*
X1885D02*
X2385D01*
X1885D02*
X2135Y12853D01*
X2145Y12573D02*
X2295Y12873D01*
X1995D02*
X2295D01*
X1995D02*
X2145Y12573D01*
Y12473D02*
X2395Y12973D01*
X1895D02*
X2395D01*
X1895D02*
X2145Y12473D01*
X2155Y11323D02*
X2305Y11623D01*
X2005D02*
X2305D01*
X2005D02*
X2155Y11323D01*
Y11223D02*
X2405Y11723D01*
X1905D02*
X2405D01*
X1905D02*
X2155Y11223D01*
X1645Y10953D02*
X1795Y11253D01*
X1495D02*
X1795D01*
X1495D02*
X1645Y10953D01*
Y10853D02*
X1895Y11353D01*
X1395D02*
X1895D01*
X1395D02*
X1645Y10853D01*
X2175Y10943D02*
X2325Y11243D01*
X2025D02*
X2325D01*
X2025D02*
X2175Y10943D01*
Y10843D02*
X2425Y11343D01*
X1925D02*
X2425D01*
X1925D02*
X2175Y10843D01*
X3685Y13033D02*
X3835Y13333D01*
X3535D02*
X3835D01*
X3535D02*
X3685Y13033D01*
Y12933D02*
X3935Y13433D01*
X3435D02*
X3935D01*
X3435D02*
X3685Y12933D01*
X4085Y13033D02*
X4235Y13333D01*
X3935D02*
X4235D01*
X3935D02*
X4085Y13033D01*
Y12933D02*
X4335Y13433D01*
X3835D02*
X4335D01*
X3835D02*
X4085Y12933D01*
X1635Y12583D02*
X1785Y12883D01*
X1485D02*
X1785D01*
X1485D02*
X1635Y12583D01*
Y12483D02*
X1885Y12983D01*
X1385D02*
X1885D01*
X1385D02*
X1635Y12483D01*
X4085Y12633D02*
X4235Y12933D01*
X3935D02*
X4235D01*
X3935D02*
X4085Y12633D01*
Y12533D02*
X4335Y13033D01*
X3835D02*
X4335D01*
X3835D02*
X4085Y12533D01*
X3685Y12633D02*
X3835Y12933D01*
X3535D02*
X3835D01*
X3535D02*
X3685Y12633D01*
Y12533D02*
X3935Y13033D01*
X3435D02*
X3935D01*
X3435D02*
X3685Y12533D01*
X4085Y13433D02*
X4235Y13733D01*
X3935D02*
X4235D01*
X3935D02*
X4085Y13433D01*
Y13333D02*
X4335Y13833D01*
X3835D02*
X4335D01*
X3835D02*
X4085Y13333D01*
Y13833D02*
X4235Y14133D01*
X3935D02*
X4235D01*
X3935D02*
X4085Y13833D01*
Y13733D02*
X4335Y14233D01*
X3835D02*
X4335D01*
X3835D02*
X4085Y13733D01*
X3685Y13433D02*
X3835Y13733D01*
X3535D02*
X3835D01*
X3535D02*
X3685Y13433D01*
Y13333D02*
X3935Y13833D01*
X3435D02*
X3935D01*
X3435D02*
X3685Y13333D01*
Y13833D02*
X3835Y14133D01*
X3535D02*
X3835D01*
X3535D02*
X3685Y13833D01*
Y13733D02*
X3935Y14233D01*
X3435D02*
X3935D01*
X3435D02*
X3685Y13733D01*
X3285Y13833D02*
X3435Y14133D01*
X3135D02*
X3435D01*
X3135D02*
X3285Y13833D01*
Y13733D02*
X3535Y14233D01*
X3035D02*
X3535D01*
X3035D02*
X3285Y13733D01*
X2885Y13833D02*
X3035Y14133D01*
X2735D02*
X3035D01*
X2735D02*
X2885Y13833D01*
Y13733D02*
X3135Y14233D01*
X2635D02*
X3135D01*
X2635D02*
X2885Y13733D01*
X2485Y13833D02*
X2635Y14133D01*
X2335D02*
X2635D01*
X2335D02*
X2485Y13833D01*
Y13733D02*
X2735Y14233D01*
X2235D02*
X2735D01*
X2235D02*
X2485Y13733D01*
X2085Y13433D02*
X2235Y13733D01*
X1935D02*
X2235D01*
X1935D02*
X2085Y13433D01*
Y13333D02*
X2335Y13833D01*
X1835D02*
X2335D01*
X1835D02*
X2085Y13333D01*
Y13833D02*
X2235Y14133D01*
X1935D02*
X2235D01*
X1935D02*
X2085Y13833D01*
Y13733D02*
X2335Y14233D01*
X1835D02*
X2335D01*
X1835D02*
X2085Y13733D01*
X1685Y13833D02*
X1835Y14133D01*
X1535D02*
X1835D01*
X1535D02*
X1685Y13833D01*
Y13733D02*
X1935Y14233D01*
X1435D02*
X1935D01*
X1435D02*
X1685Y13733D01*
X5885Y11433D02*
X6035Y11733D01*
X5735D02*
X6035D01*
X5735D02*
X5885Y11433D01*
Y11333D02*
X6135Y11833D01*
X5635D02*
X6135D01*
X5635D02*
X5885Y11333D01*
Y11033D02*
X6035Y11333D01*
X5735D02*
X6035D01*
X5735D02*
X5885Y11033D01*
Y10933D02*
X6135Y11433D01*
X5635D02*
X6135D01*
X5635D02*
X5885Y10933D01*
Y10633D02*
X6035Y10933D01*
X5735D02*
X6035D01*
X5735D02*
X5885Y10633D01*
Y10533D02*
X6135Y11033D01*
X5635D02*
X6135D01*
X5635D02*
X5885Y10533D01*
Y10233D02*
X6035Y10533D01*
X5735D02*
X6035D01*
X5735D02*
X5885Y10233D01*
Y10133D02*
X6135Y10633D01*
X5635D02*
X6135D01*
X5635D02*
X5885Y10133D01*
Y9833D02*
X6035Y10133D01*
X5735D02*
X6035D01*
X5735D02*
X5885Y9833D01*
Y9733D02*
X6135Y10233D01*
X5635D02*
X6135D01*
X5635D02*
X5885Y9733D01*
Y9433D02*
X6035Y9733D01*
X5735D02*
X6035D01*
X5735D02*
X5885Y9433D01*
Y9333D02*
X6135Y9833D01*
X5635D02*
X6135D01*
X5635D02*
X5885Y9333D01*
X3685Y11233D02*
X3835Y11533D01*
X3535D02*
X3835D01*
X3535D02*
X3685Y11233D01*
Y11133D02*
X3935Y11633D01*
X3435D02*
X3935D01*
X3435D02*
X3685Y11133D01*
X4085Y11233D02*
X4235Y11533D01*
X3935D02*
X4235D01*
X3935D02*
X4085Y11233D01*
Y11133D02*
X4335Y11633D01*
X3835D02*
X4335D01*
X3835D02*
X4085Y11133D01*
X4485Y11233D02*
X4635Y11533D01*
X4335D02*
X4635D01*
X4335D02*
X4485Y11233D01*
Y11133D02*
X4735Y11633D01*
X4235D02*
X4735D01*
X4235D02*
X4485Y11133D01*
X3685Y10833D02*
X3835Y11133D01*
X3535D02*
X3835D01*
X3535D02*
X3685Y10833D01*
Y10733D02*
X3935Y11233D01*
X3435D02*
X3935D01*
X3435D02*
X3685Y10733D01*
X4085Y10833D02*
X4235Y11133D01*
X3935D02*
X4235D01*
X3935D02*
X4085Y10833D01*
Y10733D02*
X4335Y11233D01*
X3835D02*
X4335D01*
X3835D02*
X4085Y10733D01*
X4485Y10833D02*
X4635Y11133D01*
X4335D02*
X4635D01*
X4335D02*
X4485Y10833D01*
Y10733D02*
X4735Y11233D01*
X4235D02*
X4735D01*
X4235D02*
X4485Y10733D01*
X3685Y10433D02*
X3835Y10733D01*
X3535D02*
X3835D01*
X3535D02*
X3685Y10433D01*
Y10333D02*
X3935Y10833D01*
X3435D02*
X3935D01*
X3435D02*
X3685Y10333D01*
X4085Y10433D02*
X4235Y10733D01*
X3935D02*
X4235D01*
X3935D02*
X4085Y10433D01*
Y10333D02*
X4335Y10833D01*
X3835D02*
X4335D01*
X3835D02*
X4085Y10333D01*
X4485Y10433D02*
X4635Y10733D01*
X4335D02*
X4635D01*
X4335D02*
X4485Y10433D01*
Y10333D02*
X4735Y10833D01*
X4235D02*
X4735D01*
X4235D02*
X4485Y10333D01*
X3285Y10033D02*
X3435Y10333D01*
X3135D02*
X3435D01*
X3135D02*
X3285Y10033D01*
Y9933D02*
X3535Y10433D01*
X3035D02*
X3535D01*
X3035D02*
X3285Y9933D01*
X3685Y10033D02*
X3835Y10333D01*
X3535D02*
X3835D01*
X3535D02*
X3685Y10033D01*
Y9933D02*
X3935Y10433D01*
X3435D02*
X3935D01*
X3435D02*
X3685Y9933D01*
X4085Y10033D02*
X4235Y10333D01*
X3935D02*
X4235D01*
X3935D02*
X4085Y10033D01*
Y9933D02*
X4335Y10433D01*
X3835D02*
X4335D01*
X3835D02*
X4085Y9933D01*
X4485Y10033D02*
X4635Y10333D01*
X4335D02*
X4635D01*
X4335D02*
X4485Y10033D01*
Y9933D02*
X4735Y10433D01*
X4235D02*
X4735D01*
X4235D02*
X4485Y9933D01*
X3685Y9633D02*
X3835Y9933D01*
X3535D02*
X3835D01*
X3535D02*
X3685Y9633D01*
Y9533D02*
X3935Y10033D01*
X3435D02*
X3935D01*
X3435D02*
X3685Y9533D01*
X4085Y9633D02*
X4235Y9933D01*
X3935D02*
X4235D01*
X3935D02*
X4085Y9633D01*
Y9533D02*
X4335Y10033D01*
X3835D02*
X4335D01*
X3835D02*
X4085Y9533D01*
X4485Y9633D02*
X4635Y9933D01*
X4335D02*
X4635D01*
X4335D02*
X4485Y9633D01*
Y9533D02*
X4735Y10033D01*
X4235D02*
X4735D01*
X4235D02*
X4485Y9533D01*
X3685Y9233D02*
X3835Y9533D01*
X3535D02*
X3835D01*
X3535D02*
X3685Y9233D01*
Y9133D02*
X3935Y9633D01*
X3435D02*
X3935D01*
X3435D02*
X3685Y9133D01*
X4085Y9233D02*
X4235Y9533D01*
X3935D02*
X4235D01*
X3935D02*
X4085Y9233D01*
Y9133D02*
X4335Y9633D01*
X3835D02*
X4335D01*
X3835D02*
X4085Y9133D01*
X4485Y9233D02*
X4635Y9533D01*
X4335D02*
X4635D01*
X4335D02*
X4485Y9233D01*
Y9133D02*
X4735Y9633D01*
X4235D02*
X4735D01*
X4235D02*
X4485Y9133D01*
X3685Y8833D02*
X3835Y9133D01*
X3535D02*
X3835D01*
X3535D02*
X3685Y8833D01*
Y8733D02*
X3935Y9233D01*
X3435D02*
X3935D01*
X3435D02*
X3685Y8733D01*
X4085Y8833D02*
X4235Y9133D01*
X3935D02*
X4235D01*
X3935D02*
X4085Y8833D01*
Y8733D02*
X4335Y9233D01*
X3835D02*
X4335D01*
X3835D02*
X4085Y8733D01*
X4485Y8833D02*
X4635Y9133D01*
X4335D02*
X4635D01*
X4335D02*
X4485Y8833D01*
Y8733D02*
X4735Y9233D01*
X4235D02*
X4735D01*
X4235D02*
X4485Y8733D01*
X3685Y8433D02*
X3835Y8733D01*
X3535D02*
X3835D01*
X3535D02*
X3685Y8433D01*
Y8333D02*
X3935Y8833D01*
X3435D02*
X3935D01*
X3435D02*
X3685Y8333D01*
X4085Y8433D02*
X4235Y8733D01*
X3935D02*
X4235D01*
X3935D02*
X4085Y8433D01*
Y8333D02*
X4335Y8833D01*
X3835D02*
X4335D01*
X3835D02*
X4085Y8333D01*
X4485Y8433D02*
X4635Y8733D01*
X4335D02*
X4635D01*
X4335D02*
X4485Y8433D01*
Y8333D02*
X4735Y8833D01*
X4235D02*
X4735D01*
X4235D02*
X4485Y8333D01*
X1585Y9133D02*
X1735Y9433D01*
X1435D02*
X1735D01*
X1435D02*
X1585Y9133D01*
Y9033D02*
X1835Y9533D01*
X1335D02*
X1835D01*
X1335D02*
X1585Y9033D01*
X1985Y9133D02*
X2135Y9433D01*
X1835D02*
X2135D01*
X1835D02*
X1985Y9133D01*
Y9033D02*
X2235Y9533D01*
X1735D02*
X2235D01*
X1735D02*
X1985Y9033D01*
X1585Y8733D02*
X1735Y9033D01*
X1435D02*
X1735D01*
X1435D02*
X1585Y8733D01*
Y8633D02*
X1835Y9133D01*
X1335D02*
X1835D01*
X1335D02*
X1585Y8633D01*
X1985Y8733D02*
X2135Y9033D01*
X1835D02*
X2135D01*
X1835D02*
X1985Y8733D01*
Y8633D02*
X2235Y9133D01*
X1735D02*
X2235D01*
X1735D02*
X1985Y8633D01*
X1585Y7433D02*
X1735Y7733D01*
X1435D02*
X1735D01*
X1435D02*
X1585Y7433D01*
Y7333D02*
X1835Y7833D01*
X1335D02*
X1835D01*
X1335D02*
X1585Y7333D01*
X1985Y7433D02*
X2135Y7733D01*
X1835D02*
X2135D01*
X1835D02*
X1985Y7433D01*
Y7333D02*
X2235Y7833D01*
X1735D02*
X2235D01*
X1735D02*
X1985Y7333D01*
X1585Y7033D02*
X1735Y7333D01*
X1435D02*
X1735D01*
X1435D02*
X1585Y7033D01*
Y6933D02*
X1835Y7433D01*
X1335D02*
X1835D01*
X1335D02*
X1585Y6933D01*
X1985Y7033D02*
X2135Y7333D01*
X1835D02*
X2135D01*
X1835D02*
X1985Y7033D01*
Y6933D02*
X2235Y7433D01*
X1735D02*
X2235D01*
X1735D02*
X1985Y6933D01*
X3685Y7733D02*
X3835Y8033D01*
X3535D02*
X3835D01*
X3535D02*
X3685Y7733D01*
Y7633D02*
X3935Y8133D01*
X3435D02*
X3935D01*
X3435D02*
X3685Y7633D01*
X4085Y7733D02*
X4235Y8033D01*
X3935D02*
X4235D01*
X3935D02*
X4085Y7733D01*
Y7633D02*
X4335Y8133D01*
X3835D02*
X4335D01*
X3835D02*
X4085Y7633D01*
X4485Y7733D02*
X4635Y8033D01*
X4335D02*
X4635D01*
X4335D02*
X4485Y7733D01*
Y7633D02*
X4735Y8133D01*
X4235D02*
X4735D01*
X4235D02*
X4485Y7633D01*
X4085Y7333D02*
X4235Y7633D01*
X3935D02*
X4235D01*
X3935D02*
X4085Y7333D01*
Y7233D02*
X4335Y7733D01*
X3835D02*
X4335D01*
X3835D02*
X4085Y7233D01*
X3685Y7333D02*
X3835Y7633D01*
X3535D02*
X3835D01*
X3535D02*
X3685Y7333D01*
Y7233D02*
X3935Y7733D01*
X3435D02*
X3935D01*
X3435D02*
X3685Y7233D01*
X385Y6633D02*
X535Y6933D01*
X235D02*
X535D01*
X235D02*
X385Y6633D01*
Y6533D02*
X635Y7033D01*
X135D02*
X635D01*
X135D02*
X385Y6533D01*
X3185Y6233D02*
X3335Y6533D01*
X3035D02*
X3335D01*
X3035D02*
X3185Y6233D01*
Y6133D02*
X3435Y6633D01*
X2935D02*
X3435D01*
X2935D02*
X3185Y6133D01*
X3585Y6233D02*
X3735Y6533D01*
X3435D02*
X3735D01*
X3435D02*
X3585Y6233D01*
Y6133D02*
X3835Y6633D01*
X3335D02*
X3835D01*
X3335D02*
X3585Y6133D01*
X3985Y6233D02*
X4135Y6533D01*
X3835D02*
X4135D01*
X3835D02*
X3985Y6233D01*
Y6133D02*
X4235Y6633D01*
X3735D02*
X4235D01*
X3735D02*
X3985Y6133D01*
X4385Y6233D02*
X4535Y6533D01*
X4235D02*
X4535D01*
X4235D02*
X4385Y6233D01*
Y6133D02*
X4635Y6633D01*
X4135D02*
X4635D01*
X4135D02*
X4385Y6133D01*
X4785Y6233D02*
X4935Y6533D01*
X4635D02*
X4935D01*
X4635D02*
X4785Y6233D01*
Y6133D02*
X5035Y6633D01*
X4535D02*
X5035D01*
X4535D02*
X4785Y6133D01*
X385Y6233D02*
X535Y6533D01*
X235D02*
X535D01*
X235D02*
X385Y6233D01*
Y6133D02*
X635Y6633D01*
X135D02*
X635D01*
X135D02*
X385Y6133D01*
X785Y6233D02*
X935Y6533D01*
X635D02*
X935D01*
X635D02*
X785Y6233D01*
Y6133D02*
X1035Y6633D01*
X535D02*
X1035D01*
X535D02*
X785Y6133D01*
X1185Y6233D02*
X1335Y6533D01*
X1035D02*
X1335D01*
X1035D02*
X1185Y6233D01*
Y6133D02*
X1435Y6633D01*
X935D02*
X1435D01*
X935D02*
X1185Y6133D01*
X1585Y6233D02*
X1735Y6533D01*
X1435D02*
X1735D01*
X1435D02*
X1585Y6233D01*
Y6133D02*
X1835Y6633D01*
X1335D02*
X1835D01*
X1335D02*
X1585Y6133D01*
X1985Y6233D02*
X2135Y6533D01*
X1835D02*
X2135D01*
X1835D02*
X1985Y6233D01*
Y6133D02*
X2235Y6633D01*
X1735D02*
X2235D01*
X1735D02*
X1985Y6133D01*
X2385Y6233D02*
X2535Y6533D01*
X2235D02*
X2535D01*
X2235D02*
X2385Y6233D01*
Y6133D02*
X2635Y6633D01*
X2135D02*
X2635D01*
X2135D02*
X2385Y6133D01*
X2785Y6233D02*
X2935Y6533D01*
X2635D02*
X2935D01*
X2635D02*
X2785Y6233D01*
Y6133D02*
X3035Y6633D01*
X2535D02*
X3035D01*
X2535D02*
X2785Y6133D01*
X4485Y7333D02*
X4635Y7633D01*
X4335D02*
X4635D01*
X4335D02*
X4485Y7333D01*
Y7233D02*
X4735Y7733D01*
X4235D02*
X4735D01*
X4235D02*
X4485Y7233D01*
X5185Y6233D02*
X5335Y6533D01*
X5035D02*
X5335D01*
X5035D02*
X5185Y6233D01*
Y6133D02*
X5435Y6633D01*
X4935D02*
X5435D01*
X4935D02*
X5185Y6133D01*
X3585Y6633D02*
X3735Y6933D01*
X3435D02*
X3735D01*
X3435D02*
X3585Y6633D01*
Y6533D02*
X3835Y7033D01*
X3335D02*
X3835D01*
X3335D02*
X3585Y6533D01*
X3985Y6633D02*
X4135Y6933D01*
X3835D02*
X4135D01*
X3835D02*
X3985Y6633D01*
Y6533D02*
X4235Y7033D01*
X3735D02*
X4235D01*
X3735D02*
X3985Y6533D01*
X4385Y6633D02*
X4535Y6933D01*
X4235D02*
X4535D01*
X4235D02*
X4385Y6633D01*
Y6533D02*
X4635Y7033D01*
X4135D02*
X4635D01*
X4135D02*
X4385Y6533D01*
X4785Y6633D02*
X4935Y6933D01*
X4635D02*
X4935D01*
X4635D02*
X4785Y6633D01*
Y6533D02*
X5035Y7033D01*
X4535D02*
X5035D01*
X4535D02*
X4785Y6533D01*
X5185Y6633D02*
X5335Y6933D01*
X5035D02*
X5335D01*
X5035D02*
X5185Y6633D01*
Y6533D02*
X5435Y7033D01*
X4935D02*
X5435D01*
X4935D02*
X5185Y6533D01*
X2085Y10433D02*
X2235Y10733D01*
X1935D02*
X2235D01*
X1935D02*
X2085Y10433D01*
Y10333D02*
X2335Y10833D01*
X1835D02*
X2335D01*
X1835D02*
X2085Y10333D01*
X1685Y10433D02*
X1835Y10733D01*
X1535D02*
X1835D01*
X1535D02*
X1685Y10433D01*
Y10333D02*
X1935Y10833D01*
X1435D02*
X1935D01*
X1435D02*
X1685Y10333D01*
X2885Y10033D02*
X3035Y10333D01*
X2735D02*
X3035D01*
X2735D02*
X2885Y10033D01*
Y9933D02*
X3135Y10433D01*
X2635D02*
X3135D01*
X2635D02*
X2885Y9933D01*
X2485Y10033D02*
X2635Y10333D01*
X2335D02*
X2635D01*
X2335D02*
X2485Y10033D01*
Y9933D02*
X2735Y10433D01*
X2235D02*
X2735D01*
X2235D02*
X2485Y9933D01*
X2085Y10033D02*
X2235Y10333D01*
X1935D02*
X2235D01*
X1935D02*
X2085Y10033D01*
Y9933D02*
X2335Y10433D01*
X1835D02*
X2335D01*
X1835D02*
X2085Y9933D01*
X1685Y10033D02*
X1835Y10333D01*
X1535D02*
X1835D01*
X1535D02*
X1685Y10033D01*
Y9933D02*
X1935Y10433D01*
X1435D02*
X1935D01*
X1435D02*
X1685Y9933D01*
X665Y10023D02*
X815Y10323D01*
X515D02*
X815D01*
X515D02*
X665Y10023D01*
Y9923D02*
X915Y10423D01*
X415D02*
X915D01*
X415D02*
X665Y9923D01*
X7185Y2733D02*
X7335Y3033D01*
X7035D02*
X7335D01*
X7035D02*
X7185Y2733D01*
Y2633D02*
X7435Y3133D01*
X6935D02*
X7435D01*
X6935D02*
X7185Y2633D01*
X17985Y7533D02*
X18135Y7833D01*
X17835D02*
X18135D01*
X17835D02*
X17985Y7533D01*
Y7433D02*
X18235Y7933D01*
X17735D02*
X18235D01*
X17735D02*
X17985Y7433D01*
X10085Y8133D02*
X10235Y8433D01*
X9935D02*
X10235D01*
X9935D02*
X10085Y8133D01*
Y8033D02*
X10335Y8533D01*
X9835D02*
X10335D01*
X9835D02*
X10085Y8033D01*
X10075Y7513D02*
X10225Y7813D01*
X9925D02*
X10225D01*
X9925D02*
X10075Y7513D01*
Y7413D02*
X10325Y7913D01*
X9825D02*
X10325D01*
X9825D02*
X10075Y7413D01*
X17685Y7133D02*
X17835Y7433D01*
X17535D02*
X17835D01*
X17535D02*
X17685Y7133D01*
Y7033D02*
X17935Y7533D01*
X17435D02*
X17935D01*
X17435D02*
X17685Y7033D01*
X16705Y2993D02*
X16855Y3293D01*
X16555D02*
X16855D01*
X16555D02*
X16705Y2993D01*
Y2893D02*
X16955Y3393D01*
X16455D02*
X16955D01*
X16455D02*
X16705Y2893D01*
X385Y5133D02*
X535Y5433D01*
X235D02*
X535D01*
X235D02*
X385Y5133D01*
Y5033D02*
X635Y5533D01*
X135D02*
X635D01*
X135D02*
X385Y5033D01*
X785Y5133D02*
X935Y5433D01*
X635D02*
X935D01*
X635D02*
X785Y5133D01*
Y5033D02*
X1035Y5533D01*
X535D02*
X1035D01*
X535D02*
X785Y5033D01*
X1185Y5133D02*
X1335Y5433D01*
X1035D02*
X1335D01*
X1035D02*
X1185Y5133D01*
Y5033D02*
X1435Y5533D01*
X935D02*
X1435D01*
X935D02*
X1185Y5033D01*
X1585Y5133D02*
X1735Y5433D01*
X1435D02*
X1735D01*
X1435D02*
X1585Y5133D01*
Y5033D02*
X1835Y5533D01*
X1335D02*
X1835D01*
X1335D02*
X1585Y5033D01*
X1985Y5133D02*
X2135Y5433D01*
X1835D02*
X2135D01*
X1835D02*
X1985Y5133D01*
Y5033D02*
X2235Y5533D01*
X1735D02*
X2235D01*
X1735D02*
X1985Y5033D01*
X2385Y5133D02*
X2535Y5433D01*
X2235D02*
X2535D01*
X2235D02*
X2385Y5133D01*
Y5033D02*
X2635Y5533D01*
X2135D02*
X2635D01*
X2135D02*
X2385Y5033D01*
X2785Y5133D02*
X2935Y5433D01*
X2635D02*
X2935D01*
X2635D02*
X2785Y5133D01*
Y5033D02*
X3035Y5533D01*
X2535D02*
X3035D01*
X2535D02*
X2785Y5033D01*
X3185Y5133D02*
X3335Y5433D01*
X3035D02*
X3335D01*
X3035D02*
X3185Y5133D01*
Y5033D02*
X3435Y5533D01*
X2935D02*
X3435D01*
X2935D02*
X3185Y5033D01*
X3585Y5133D02*
X3735Y5433D01*
X3435D02*
X3735D01*
X3435D02*
X3585Y5133D01*
Y5033D02*
X3835Y5533D01*
X3335D02*
X3835D01*
X3335D02*
X3585Y5033D01*
X3985Y5133D02*
X4135Y5433D01*
X3835D02*
X4135D01*
X3835D02*
X3985Y5133D01*
Y5033D02*
X4235Y5533D01*
X3735D02*
X4235D01*
X3735D02*
X3985Y5033D01*
X4385Y5133D02*
X4535Y5433D01*
X4235D02*
X4535D01*
X4235D02*
X4385Y5133D01*
Y5033D02*
X4635Y5533D01*
X4135D02*
X4635D01*
X4135D02*
X4385Y5033D01*
X4785Y5133D02*
X4935Y5433D01*
X4635D02*
X4935D01*
X4635D02*
X4785Y5133D01*
Y5033D02*
X5035Y5533D01*
X4535D02*
X5035D01*
X4535D02*
X4785Y5033D01*
X5185Y5133D02*
X5335Y5433D01*
X5035D02*
X5335D01*
X5035D02*
X5185Y5133D01*
Y5033D02*
X5435Y5533D01*
X4935D02*
X5435D01*
X4935D02*
X5185Y5033D01*
X5585Y5133D02*
X5735Y5433D01*
X5435D02*
X5735D01*
X5435D02*
X5585Y5133D01*
Y5033D02*
X5835Y5533D01*
X5335D02*
X5835D01*
X5335D02*
X5585Y5033D01*
X5985Y5133D02*
X6135Y5433D01*
X5835D02*
X6135D01*
X5835D02*
X5985Y5133D01*
Y5033D02*
X6235Y5533D01*
X5735D02*
X6235D01*
X5735D02*
X5985Y5033D01*
X6385Y5133D02*
X6535Y5433D01*
X6235D02*
X6535D01*
X6235D02*
X6385Y5133D01*
Y5033D02*
X6635Y5533D01*
X6135D02*
X6635D01*
X6135D02*
X6385Y5033D01*
X6785Y5133D02*
X6935Y5433D01*
X6635D02*
X6935D01*
X6635D02*
X6785Y5133D01*
Y5033D02*
X7035Y5533D01*
X6535D02*
X7035D01*
X6535D02*
X6785Y5033D01*
X7185Y5133D02*
X7335Y5433D01*
X7035D02*
X7335D01*
X7035D02*
X7185Y5133D01*
Y5033D02*
X7435Y5533D01*
X6935D02*
X7435D01*
X6935D02*
X7185Y5033D01*
X385Y4733D02*
X535Y5033D01*
X235D02*
X535D01*
X235D02*
X385Y4733D01*
Y4633D02*
X635Y5133D01*
X135D02*
X635D01*
X135D02*
X385Y4633D01*
X785Y4733D02*
X935Y5033D01*
X635D02*
X935D01*
X635D02*
X785Y4733D01*
Y4633D02*
X1035Y5133D01*
X535D02*
X1035D01*
X535D02*
X785Y4633D01*
X1185Y4733D02*
X1335Y5033D01*
X1035D02*
X1335D01*
X1035D02*
X1185Y4733D01*
Y4633D02*
X1435Y5133D01*
X935D02*
X1435D01*
X935D02*
X1185Y4633D01*
X1585Y4733D02*
X1735Y5033D01*
X1435D02*
X1735D01*
X1435D02*
X1585Y4733D01*
Y4633D02*
X1835Y5133D01*
X1335D02*
X1835D01*
X1335D02*
X1585Y4633D01*
X1985Y4733D02*
X2135Y5033D01*
X1835D02*
X2135D01*
X1835D02*
X1985Y4733D01*
Y4633D02*
X2235Y5133D01*
X1735D02*
X2235D01*
X1735D02*
X1985Y4633D01*
X2385Y4733D02*
X2535Y5033D01*
X2235D02*
X2535D01*
X2235D02*
X2385Y4733D01*
Y4633D02*
X2635Y5133D01*
X2135D02*
X2635D01*
X2135D02*
X2385Y4633D01*
X2785Y4733D02*
X2935Y5033D01*
X2635D02*
X2935D01*
X2635D02*
X2785Y4733D01*
Y4633D02*
X3035Y5133D01*
X2535D02*
X3035D01*
X2535D02*
X2785Y4633D01*
X3185Y4733D02*
X3335Y5033D01*
X3035D02*
X3335D01*
X3035D02*
X3185Y4733D01*
Y4633D02*
X3435Y5133D01*
X2935D02*
X3435D01*
X2935D02*
X3185Y4633D01*
X3585Y4733D02*
X3735Y5033D01*
X3435D02*
X3735D01*
X3435D02*
X3585Y4733D01*
Y4633D02*
X3835Y5133D01*
X3335D02*
X3835D01*
X3335D02*
X3585Y4633D01*
X3985Y4733D02*
X4135Y5033D01*
X3835D02*
X4135D01*
X3835D02*
X3985Y4733D01*
Y4633D02*
X4235Y5133D01*
X3735D02*
X4235D01*
X3735D02*
X3985Y4633D01*
X4385Y4733D02*
X4535Y5033D01*
X4235D02*
X4535D01*
X4235D02*
X4385Y4733D01*
Y4633D02*
X4635Y5133D01*
X4135D02*
X4635D01*
X4135D02*
X4385Y4633D01*
X4785Y4733D02*
X4935Y5033D01*
X4635D02*
X4935D01*
X4635D02*
X4785Y4733D01*
Y4633D02*
X5035Y5133D01*
X4535D02*
X5035D01*
X4535D02*
X4785Y4633D01*
X5185Y4733D02*
X5335Y5033D01*
X5035D02*
X5335D01*
X5035D02*
X5185Y4733D01*
Y4633D02*
X5435Y5133D01*
X4935D02*
X5435D01*
X4935D02*
X5185Y4633D01*
X5585Y4733D02*
X5735Y5033D01*
X5435D02*
X5735D01*
X5435D02*
X5585Y4733D01*
Y4633D02*
X5835Y5133D01*
X5335D02*
X5835D01*
X5335D02*
X5585Y4633D01*
X5985Y4733D02*
X6135Y5033D01*
X5835D02*
X6135D01*
X5835D02*
X5985Y4733D01*
Y4633D02*
X6235Y5133D01*
X5735D02*
X6235D01*
X5735D02*
X5985Y4633D01*
X6385Y4733D02*
X6535Y5033D01*
X6235D02*
X6535D01*
X6235D02*
X6385Y4733D01*
Y4633D02*
X6635Y5133D01*
X6135D02*
X6635D01*
X6135D02*
X6385Y4633D01*
X6785Y4733D02*
X6935Y5033D01*
X6635D02*
X6935D01*
X6635D02*
X6785Y4733D01*
Y4633D02*
X7035Y5133D01*
X6535D02*
X7035D01*
X6535D02*
X6785Y4633D01*
X7185Y4733D02*
X7335Y5033D01*
X7035D02*
X7335D01*
X7035D02*
X7185Y4733D01*
Y4633D02*
X7435Y5133D01*
X6935D02*
X7435D01*
X6935D02*
X7185Y4633D01*
X385Y4333D02*
X535Y4633D01*
X235D02*
X535D01*
X235D02*
X385Y4333D01*
Y4233D02*
X635Y4733D01*
X135D02*
X635D01*
X135D02*
X385Y4233D01*
X785Y4333D02*
X935Y4633D01*
X635D02*
X935D01*
X635D02*
X785Y4333D01*
Y4233D02*
X1035Y4733D01*
X535D02*
X1035D01*
X535D02*
X785Y4233D01*
X1185Y4333D02*
X1335Y4633D01*
X1035D02*
X1335D01*
X1035D02*
X1185Y4333D01*
Y4233D02*
X1435Y4733D01*
X935D02*
X1435D01*
X935D02*
X1185Y4233D01*
X1585Y4333D02*
X1735Y4633D01*
X1435D02*
X1735D01*
X1435D02*
X1585Y4333D01*
Y4233D02*
X1835Y4733D01*
X1335D02*
X1835D01*
X1335D02*
X1585Y4233D01*
X1985Y4333D02*
X2135Y4633D01*
X1835D02*
X2135D01*
X1835D02*
X1985Y4333D01*
Y4233D02*
X2235Y4733D01*
X1735D02*
X2235D01*
X1735D02*
X1985Y4233D01*
X2385Y4333D02*
X2535Y4633D01*
X2235D02*
X2535D01*
X2235D02*
X2385Y4333D01*
Y4233D02*
X2635Y4733D01*
X2135D02*
X2635D01*
X2135D02*
X2385Y4233D01*
X2785Y4333D02*
X2935Y4633D01*
X2635D02*
X2935D01*
X2635D02*
X2785Y4333D01*
Y4233D02*
X3035Y4733D01*
X2535D02*
X3035D01*
X2535D02*
X2785Y4233D01*
X3185Y4333D02*
X3335Y4633D01*
X3035D02*
X3335D01*
X3035D02*
X3185Y4333D01*
Y4233D02*
X3435Y4733D01*
X2935D02*
X3435D01*
X2935D02*
X3185Y4233D01*
X3585Y4333D02*
X3735Y4633D01*
X3435D02*
X3735D01*
X3435D02*
X3585Y4333D01*
Y4233D02*
X3835Y4733D01*
X3335D02*
X3835D01*
X3335D02*
X3585Y4233D01*
X3985Y4333D02*
X4135Y4633D01*
X3835D02*
X4135D01*
X3835D02*
X3985Y4333D01*
Y4233D02*
X4235Y4733D01*
X3735D02*
X4235D01*
X3735D02*
X3985Y4233D01*
X4385Y4333D02*
X4535Y4633D01*
X4235D02*
X4535D01*
X4235D02*
X4385Y4333D01*
Y4233D02*
X4635Y4733D01*
X4135D02*
X4635D01*
X4135D02*
X4385Y4233D01*
X4785Y4333D02*
X4935Y4633D01*
X4635D02*
X4935D01*
X4635D02*
X4785Y4333D01*
Y4233D02*
X5035Y4733D01*
X4535D02*
X5035D01*
X4535D02*
X4785Y4233D01*
X5185Y4333D02*
X5335Y4633D01*
X5035D02*
X5335D01*
X5035D02*
X5185Y4333D01*
Y4233D02*
X5435Y4733D01*
X4935D02*
X5435D01*
X4935D02*
X5185Y4233D01*
X5585Y4333D02*
X5735Y4633D01*
X5435D02*
X5735D01*
X5435D02*
X5585Y4333D01*
Y4233D02*
X5835Y4733D01*
X5335D02*
X5835D01*
X5335D02*
X5585Y4233D01*
X5985Y4333D02*
X6135Y4633D01*
X5835D02*
X6135D01*
X5835D02*
X5985Y4333D01*
Y4233D02*
X6235Y4733D01*
X5735D02*
X6235D01*
X5735D02*
X5985Y4233D01*
X6385Y4333D02*
X6535Y4633D01*
X6235D02*
X6535D01*
X6235D02*
X6385Y4333D01*
Y4233D02*
X6635Y4733D01*
X6135D02*
X6635D01*
X6135D02*
X6385Y4233D01*
X6785Y4333D02*
X6935Y4633D01*
X6635D02*
X6935D01*
X6635D02*
X6785Y4333D01*
Y4233D02*
X7035Y4733D01*
X6535D02*
X7035D01*
X6535D02*
X6785Y4233D01*
X7185Y4333D02*
X7335Y4633D01*
X7035D02*
X7335D01*
X7035D02*
X7185Y4333D01*
Y4233D02*
X7435Y4733D01*
X6935D02*
X7435D01*
X6935D02*
X7185Y4233D01*
X385Y3933D02*
X535Y4233D01*
X235D02*
X535D01*
X235D02*
X385Y3933D01*
Y3833D02*
X635Y4333D01*
X135D02*
X635D01*
X135D02*
X385Y3833D01*
X785Y3933D02*
X935Y4233D01*
X635D02*
X935D01*
X635D02*
X785Y3933D01*
Y3833D02*
X1035Y4333D01*
X535D02*
X1035D01*
X535D02*
X785Y3833D01*
X1185Y3933D02*
X1335Y4233D01*
X1035D02*
X1335D01*
X1035D02*
X1185Y3933D01*
Y3833D02*
X1435Y4333D01*
X935D02*
X1435D01*
X935D02*
X1185Y3833D01*
X1585Y3933D02*
X1735Y4233D01*
X1435D02*
X1735D01*
X1435D02*
X1585Y3933D01*
Y3833D02*
X1835Y4333D01*
X1335D02*
X1835D01*
X1335D02*
X1585Y3833D01*
X1985Y3933D02*
X2135Y4233D01*
X1835D02*
X2135D01*
X1835D02*
X1985Y3933D01*
Y3833D02*
X2235Y4333D01*
X1735D02*
X2235D01*
X1735D02*
X1985Y3833D01*
X2385Y3933D02*
X2535Y4233D01*
X2235D02*
X2535D01*
X2235D02*
X2385Y3933D01*
Y3833D02*
X2635Y4333D01*
X2135D02*
X2635D01*
X2135D02*
X2385Y3833D01*
X2785Y3933D02*
X2935Y4233D01*
X2635D02*
X2935D01*
X2635D02*
X2785Y3933D01*
Y3833D02*
X3035Y4333D01*
X2535D02*
X3035D01*
X2535D02*
X2785Y3833D01*
X3185Y3933D02*
X3335Y4233D01*
X3035D02*
X3335D01*
X3035D02*
X3185Y3933D01*
Y3833D02*
X3435Y4333D01*
X2935D02*
X3435D01*
X2935D02*
X3185Y3833D01*
X3585Y3933D02*
X3735Y4233D01*
X3435D02*
X3735D01*
X3435D02*
X3585Y3933D01*
Y3833D02*
X3835Y4333D01*
X3335D02*
X3835D01*
X3335D02*
X3585Y3833D01*
X3985Y3933D02*
X4135Y4233D01*
X3835D02*
X4135D01*
X3835D02*
X3985Y3933D01*
Y3833D02*
X4235Y4333D01*
X3735D02*
X4235D01*
X3735D02*
X3985Y3833D01*
X4385Y3933D02*
X4535Y4233D01*
X4235D02*
X4535D01*
X4235D02*
X4385Y3933D01*
Y3833D02*
X4635Y4333D01*
X4135D02*
X4635D01*
X4135D02*
X4385Y3833D01*
X4785Y3933D02*
X4935Y4233D01*
X4635D02*
X4935D01*
X4635D02*
X4785Y3933D01*
Y3833D02*
X5035Y4333D01*
X4535D02*
X5035D01*
X4535D02*
X4785Y3833D01*
X5185Y3933D02*
X5335Y4233D01*
X5035D02*
X5335D01*
X5035D02*
X5185Y3933D01*
Y3833D02*
X5435Y4333D01*
X4935D02*
X5435D01*
X4935D02*
X5185Y3833D01*
X5585Y3933D02*
X5735Y4233D01*
X5435D02*
X5735D01*
X5435D02*
X5585Y3933D01*
Y3833D02*
X5835Y4333D01*
X5335D02*
X5835D01*
X5335D02*
X5585Y3833D01*
X5985Y3933D02*
X6135Y4233D01*
X5835D02*
X6135D01*
X5835D02*
X5985Y3933D01*
Y3833D02*
X6235Y4333D01*
X5735D02*
X6235D01*
X5735D02*
X5985Y3833D01*
X385Y3533D02*
X535Y3833D01*
X235D02*
X535D01*
X235D02*
X385Y3533D01*
Y3433D02*
X635Y3933D01*
X135D02*
X635D01*
X135D02*
X385Y3433D01*
X785Y3533D02*
X935Y3833D01*
X635D02*
X935D01*
X635D02*
X785Y3533D01*
Y3433D02*
X1035Y3933D01*
X535D02*
X1035D01*
X535D02*
X785Y3433D01*
X1185Y3533D02*
X1335Y3833D01*
X1035D02*
X1335D01*
X1035D02*
X1185Y3533D01*
Y3433D02*
X1435Y3933D01*
X935D02*
X1435D01*
X935D02*
X1185Y3433D01*
X1585Y3533D02*
X1735Y3833D01*
X1435D02*
X1735D01*
X1435D02*
X1585Y3533D01*
Y3433D02*
X1835Y3933D01*
X1335D02*
X1835D01*
X1335D02*
X1585Y3433D01*
X1985Y3533D02*
X2135Y3833D01*
X1835D02*
X2135D01*
X1835D02*
X1985Y3533D01*
Y3433D02*
X2235Y3933D01*
X1735D02*
X2235D01*
X1735D02*
X1985Y3433D01*
X2385Y3533D02*
X2535Y3833D01*
X2235D02*
X2535D01*
X2235D02*
X2385Y3533D01*
Y3433D02*
X2635Y3933D01*
X2135D02*
X2635D01*
X2135D02*
X2385Y3433D01*
X2785Y3533D02*
X2935Y3833D01*
X2635D02*
X2935D01*
X2635D02*
X2785Y3533D01*
Y3433D02*
X3035Y3933D01*
X2535D02*
X3035D01*
X2535D02*
X2785Y3433D01*
X3185Y3533D02*
X3335Y3833D01*
X3035D02*
X3335D01*
X3035D02*
X3185Y3533D01*
Y3433D02*
X3435Y3933D01*
X2935D02*
X3435D01*
X2935D02*
X3185Y3433D01*
X3585Y3533D02*
X3735Y3833D01*
X3435D02*
X3735D01*
X3435D02*
X3585Y3533D01*
Y3433D02*
X3835Y3933D01*
X3335D02*
X3835D01*
X3335D02*
X3585Y3433D01*
X5185D02*
X5335Y3733D01*
X5035D02*
X5335D01*
X5035D02*
X5185Y3433D01*
Y3333D02*
X5435Y3833D01*
X4935D02*
X5435D01*
X4935D02*
X5185Y3333D01*
X5585Y3433D02*
X5735Y3733D01*
X5435D02*
X5735D01*
X5435D02*
X5585Y3433D01*
Y3333D02*
X5835Y3833D01*
X5335D02*
X5835D01*
X5335D02*
X5585Y3333D01*
X1185Y3133D02*
X1335Y3433D01*
X1035D02*
X1335D01*
X1035D02*
X1185Y3133D01*
Y3033D02*
X1435Y3533D01*
X935D02*
X1435D01*
X935D02*
X1185Y3033D01*
X1585Y3133D02*
X1735Y3433D01*
X1435D02*
X1735D01*
X1435D02*
X1585Y3133D01*
Y3033D02*
X1835Y3533D01*
X1335D02*
X1835D01*
X1335D02*
X1585Y3033D01*
X1985Y3133D02*
X2135Y3433D01*
X1835D02*
X2135D01*
X1835D02*
X1985Y3133D01*
Y3033D02*
X2235Y3533D01*
X1735D02*
X2235D01*
X1735D02*
X1985Y3033D01*
X1585Y2633D02*
X1735Y2933D01*
X1435D02*
X1735D01*
X1435D02*
X1585Y2633D01*
Y2533D02*
X1835Y3033D01*
X1335D02*
X1835D01*
X1335D02*
X1585Y2533D01*
X1985Y2633D02*
X2135Y2933D01*
X1835D02*
X2135D01*
X1835D02*
X1985Y2633D01*
Y2533D02*
X2235Y3033D01*
X1735D02*
X2235D01*
X1735D02*
X1985Y2533D01*
X1585Y2233D02*
X1735Y2533D01*
X1435D02*
X1735D01*
X1435D02*
X1585Y2233D01*
Y2133D02*
X1835Y2633D01*
X1335D02*
X1835D01*
X1335D02*
X1585Y2133D01*
X1985Y2233D02*
X2135Y2533D01*
X1835D02*
X2135D01*
X1835D02*
X1985Y2233D01*
Y2133D02*
X2235Y2633D01*
X1735D02*
X2235D01*
X1735D02*
X1985Y2133D01*
X1585Y833D02*
X1735Y1133D01*
X1435D02*
X1735D01*
X1435D02*
X1585Y833D01*
Y733D02*
X1835Y1233D01*
X1335D02*
X1835D01*
X1335D02*
X1585Y733D01*
X1985Y833D02*
X2135Y1133D01*
X1835D02*
X2135D01*
X1835D02*
X1985Y833D01*
Y733D02*
X2235Y1233D01*
X1735D02*
X2235D01*
X1735D02*
X1985Y733D01*
X1585Y433D02*
X1735Y733D01*
X1435D02*
X1735D01*
X1435D02*
X1585Y433D01*
Y333D02*
X1835Y833D01*
X1335D02*
X1835D01*
X1335D02*
X1585Y333D01*
X1985Y433D02*
X2135Y733D01*
X1835D02*
X2135D01*
X1835D02*
X1985Y433D01*
Y333D02*
X2235Y833D01*
X1735D02*
X2235D01*
X1735D02*
X1985Y333D01*
X3385Y1133D02*
X3535Y1433D01*
X3235D02*
X3535D01*
X3235D02*
X3385Y1133D01*
Y1033D02*
X3635Y1533D01*
X3135D02*
X3635D01*
X3135D02*
X3385Y1033D01*
X3885Y1133D02*
X4035Y1433D01*
X3735D02*
X4035D01*
X3735D02*
X3885Y1133D01*
Y1033D02*
X4135Y1533D01*
X3635D02*
X4135D01*
X3635D02*
X3885Y1033D01*
X4385Y1133D02*
X4535Y1433D01*
X4235D02*
X4535D01*
X4235D02*
X4385Y1133D01*
Y1033D02*
X4635Y1533D01*
X4135D02*
X4635D01*
X4135D02*
X4385Y1033D01*
X4885Y1133D02*
X5035Y1433D01*
X4735D02*
X5035D01*
X4735D02*
X4885Y1133D01*
Y1033D02*
X5135Y1533D01*
X4635D02*
X5135D01*
X4635D02*
X4885Y1033D01*
X5385Y1133D02*
X5535Y1433D01*
X5235D02*
X5535D01*
X5235D02*
X5385Y1133D01*
Y1033D02*
X5635Y1533D01*
X5135D02*
X5635D01*
X5135D02*
X5385Y1033D01*
X5885Y1133D02*
X6035Y1433D01*
X5735D02*
X6035D01*
X5735D02*
X5885Y1133D01*
Y1033D02*
X6135Y1533D01*
X5635D02*
X6135D01*
X5635D02*
X5885Y1033D01*
X4385Y733D02*
X4535Y1033D01*
X4235D02*
X4535D01*
X4235D02*
X4385Y733D01*
Y633D02*
X4635Y1133D01*
X4135D02*
X4635D01*
X4135D02*
X4385Y633D01*
X4885Y733D02*
X5035Y1033D01*
X4735D02*
X5035D01*
X4735D02*
X4885Y733D01*
Y633D02*
X5135Y1133D01*
X4635D02*
X5135D01*
X4635D02*
X4885Y633D01*
X5385Y733D02*
X5535Y1033D01*
X5235D02*
X5535D01*
X5235D02*
X5385Y733D01*
Y633D02*
X5635Y1133D01*
X5135D02*
X5635D01*
X5135D02*
X5385Y633D01*
X5885Y733D02*
X6035Y1033D01*
X5735D02*
X6035D01*
X5735D02*
X5885Y733D01*
Y633D02*
X6135Y1133D01*
X5635D02*
X6135D01*
X5635D02*
X5885Y633D01*
X4385Y333D02*
X4535Y633D01*
X4235D02*
X4535D01*
X4235D02*
X4385Y333D01*
Y233D02*
X4635Y733D01*
X4135D02*
X4635D01*
X4135D02*
X4385Y233D01*
X4885Y333D02*
X5035Y633D01*
X4735D02*
X5035D01*
X4735D02*
X4885Y333D01*
Y233D02*
X5135Y733D01*
X4635D02*
X5135D01*
X4635D02*
X4885Y233D01*
X5385Y333D02*
X5535Y633D01*
X5235D02*
X5535D01*
X5235D02*
X5385Y333D01*
Y233D02*
X5635Y733D01*
X5135D02*
X5635D01*
X5135D02*
X5385Y233D01*
X5885Y333D02*
X6035Y633D01*
X5735D02*
X6035D01*
X5735D02*
X5885Y333D01*
Y233D02*
X6135Y733D01*
X5635D02*
X6135D01*
X5635D02*
X5885Y233D01*
X2385Y3133D02*
X2535Y3433D01*
X2235D02*
X2535D01*
X2235D02*
X2385Y3133D01*
Y3033D02*
X2635Y3533D01*
X2135D02*
X2635D01*
X2135D02*
X2385Y3033D01*
X2785Y3133D02*
X2935Y3433D01*
X2635D02*
X2935D01*
X2635D02*
X2785Y3133D01*
Y3033D02*
X3035Y3533D01*
X2535D02*
X3035D01*
X2535D02*
X2785Y3033D01*
X3185Y3133D02*
X3335Y3433D01*
X3035D02*
X3335D01*
X3035D02*
X3185Y3133D01*
Y3033D02*
X3435Y3533D01*
X2935D02*
X3435D01*
X2935D02*
X3185Y3033D01*
X3585Y3133D02*
X3735Y3433D01*
X3435D02*
X3735D01*
X3435D02*
X3585Y3133D01*
Y3033D02*
X3835Y3533D01*
X3335D02*
X3835D01*
X3335D02*
X3585Y3033D01*
X7685Y12983D02*
X7835Y13283D01*
X7535D02*
X7835D01*
X7535D02*
X7685Y12983D01*
Y12883D02*
X7935Y13383D01*
X7435D02*
X7935D01*
X7435D02*
X7685Y12883D01*
X8235Y12983D02*
X8385Y13283D01*
X8085D02*
X8385D01*
X8085D02*
X8235Y12983D01*
Y12883D02*
X8485Y13383D01*
X7985D02*
X8485D01*
X7985D02*
X8235Y12883D01*
X8785Y12983D02*
X8935Y13283D01*
X8635D02*
X8935D01*
X8635D02*
X8785Y12983D01*
Y12883D02*
X9035Y13383D01*
X8535D02*
X9035D01*
X8535D02*
X8785Y12883D01*
X7685Y11383D02*
X7835Y11683D01*
X7535D02*
X7835D01*
X7535D02*
X7685Y11383D01*
Y11283D02*
X7935Y11783D01*
X7435D02*
X7935D01*
X7435D02*
X7685Y11283D01*
X8185Y11383D02*
X8335Y11683D01*
X8035D02*
X8335D01*
X8035D02*
X8185Y11383D01*
Y11283D02*
X8435Y11783D01*
X7935D02*
X8435D01*
X7935D02*
X8185Y11283D01*
X8685Y11383D02*
X8835Y11683D01*
X8535D02*
X8835D01*
X8535D02*
X8685Y11383D01*
Y11283D02*
X8935Y11783D01*
X8435D02*
X8935D01*
X8435D02*
X8685Y11283D01*
X12245Y4703D02*
X12395Y5003D01*
X12095D02*
X12395D01*
X12095D02*
X12245Y4703D01*
Y4603D02*
X12495Y5103D01*
X11995D02*
X12495D01*
X11995D02*
X12245Y4603D01*
X12255Y5203D02*
X12405Y5503D01*
X12105D02*
X12405D01*
X12105D02*
X12255Y5203D01*
Y5103D02*
X12505Y5603D01*
X12005D02*
X12505D01*
X12005D02*
X12255Y5103D01*
X12485Y9083D02*
X12635Y9383D01*
X12335D02*
X12635D01*
X12335D02*
X12485Y9083D01*
Y8983D02*
X12735Y9483D01*
X12235D02*
X12735D01*
X12235D02*
X12485Y8983D01*
X12935Y9083D02*
X13085Y9383D01*
X12785D02*
X13085D01*
X12785D02*
X12935Y9083D01*
Y8983D02*
X13185Y9483D01*
X12685D02*
X13185D01*
X12685D02*
X12935Y8983D01*
X13385Y9083D02*
X13535Y9383D01*
X13235D02*
X13535D01*
X13235D02*
X13385Y9083D01*
Y8983D02*
X13635Y9483D01*
X13135D02*
X13635D01*
X13135D02*
X13385Y8983D01*
X13835Y9083D02*
X13985Y9383D01*
X13685D02*
X13985D01*
X13685D02*
X13835Y9083D01*
Y8983D02*
X14085Y9483D01*
X13585D02*
X14085D01*
X13585D02*
X13835Y8983D01*
X14285Y9083D02*
X14435Y9383D01*
X14135D02*
X14435D01*
X14135D02*
X14285Y9083D01*
Y8983D02*
X14535Y9483D01*
X14035D02*
X14535D01*
X14035D02*
X14285Y8983D01*
X14735Y9083D02*
X14885Y9383D01*
X14585D02*
X14885D01*
X14585D02*
X14735Y9083D01*
Y8983D02*
X14985Y9483D01*
X14485D02*
X14985D01*
X14485D02*
X14735Y8983D01*
X15185Y9083D02*
X15335Y9383D01*
X15035D02*
X15335D01*
X15035D02*
X15185Y9083D01*
Y8983D02*
X15435Y9483D01*
X14935D02*
X15435D01*
X14935D02*
X15185Y8983D01*
X15635Y9083D02*
X15785Y9383D01*
X15485D02*
X15785D01*
X15485D02*
X15635Y9083D01*
Y8983D02*
X15885Y9483D01*
X15385D02*
X15885D01*
X15385D02*
X15635Y8983D01*
X16085Y9083D02*
X16235Y9383D01*
X15935D02*
X16235D01*
X15935D02*
X16085Y9083D01*
Y8983D02*
X16335Y9483D01*
X15835D02*
X16335D01*
X15835D02*
X16085Y8983D01*
X16535Y9083D02*
X16685Y9383D01*
X16385D02*
X16685D01*
X16385D02*
X16535Y9083D01*
Y8983D02*
X16785Y9483D01*
X16285D02*
X16785D01*
X16285D02*
X16535Y8983D01*
Y8633D02*
X16685Y8933D01*
X16385D02*
X16685D01*
X16385D02*
X16535Y8633D01*
Y8533D02*
X16785Y9033D01*
X16285D02*
X16785D01*
X16285D02*
X16535Y8533D01*
X16085Y8633D02*
X16235Y8933D01*
X15935D02*
X16235D01*
X15935D02*
X16085Y8633D01*
Y8533D02*
X16335Y9033D01*
X15835D02*
X16335D01*
X15835D02*
X16085Y8533D01*
X15635Y8633D02*
X15785Y8933D01*
X15485D02*
X15785D01*
X15485D02*
X15635Y8633D01*
Y8533D02*
X15885Y9033D01*
X15385D02*
X15885D01*
X15385D02*
X15635Y8533D01*
X15185Y8633D02*
X15335Y8933D01*
X15035D02*
X15335D01*
X15035D02*
X15185Y8633D01*
Y8533D02*
X15435Y9033D01*
X14935D02*
X15435D01*
X14935D02*
X15185Y8533D01*
X14735Y8633D02*
X14885Y8933D01*
X14585D02*
X14885D01*
X14585D02*
X14735Y8633D01*
Y8533D02*
X14985Y9033D01*
X14485D02*
X14985D01*
X14485D02*
X14735Y8533D01*
X14285Y8633D02*
X14435Y8933D01*
X14135D02*
X14435D01*
X14135D02*
X14285Y8633D01*
Y8533D02*
X14535Y9033D01*
X14035D02*
X14535D01*
X14035D02*
X14285Y8533D01*
X13835Y8633D02*
X13985Y8933D01*
X13685D02*
X13985D01*
X13685D02*
X13835Y8633D01*
Y8533D02*
X14085Y9033D01*
X13585D02*
X14085D01*
X13585D02*
X13835Y8533D01*
X13385Y8633D02*
X13535Y8933D01*
X13235D02*
X13535D01*
X13235D02*
X13385Y8633D01*
Y8533D02*
X13635Y9033D01*
X13135D02*
X13635D01*
X13135D02*
X13385Y8533D01*
X12935Y8633D02*
X13085Y8933D01*
X12785D02*
X13085D01*
X12785D02*
X12935Y8633D01*
Y8533D02*
X13185Y9033D01*
X12685D02*
X13185D01*
X12685D02*
X12935Y8533D01*
X12485Y8633D02*
X12635Y8933D01*
X12335D02*
X12635D01*
X12335D02*
X12485Y8633D01*
Y8533D02*
X12735Y9033D01*
X12235D02*
X12735D01*
X12235D02*
X12485Y8533D01*
X16535Y8183D02*
X16685Y8483D01*
X16385D02*
X16685D01*
X16385D02*
X16535Y8183D01*
Y8083D02*
X16785Y8583D01*
X16285D02*
X16785D01*
X16285D02*
X16535Y8083D01*
X16085Y8183D02*
X16235Y8483D01*
X15935D02*
X16235D01*
X15935D02*
X16085Y8183D01*
Y8083D02*
X16335Y8583D01*
X15835D02*
X16335D01*
X15835D02*
X16085Y8083D01*
X15635Y8183D02*
X15785Y8483D01*
X15485D02*
X15785D01*
X15485D02*
X15635Y8183D01*
Y8083D02*
X15885Y8583D01*
X15385D02*
X15885D01*
X15385D02*
X15635Y8083D01*
X15185Y8183D02*
X15335Y8483D01*
X15035D02*
X15335D01*
X15035D02*
X15185Y8183D01*
Y8083D02*
X15435Y8583D01*
X14935D02*
X15435D01*
X14935D02*
X15185Y8083D01*
X14735Y8183D02*
X14885Y8483D01*
X14585D02*
X14885D01*
X14585D02*
X14735Y8183D01*
Y8083D02*
X14985Y8583D01*
X14485D02*
X14985D01*
X14485D02*
X14735Y8083D01*
X14285Y8183D02*
X14435Y8483D01*
X14135D02*
X14435D01*
X14135D02*
X14285Y8183D01*
Y8083D02*
X14535Y8583D01*
X14035D02*
X14535D01*
X14035D02*
X14285Y8083D01*
X13835Y8183D02*
X13985Y8483D01*
X13685D02*
X13985D01*
X13685D02*
X13835Y8183D01*
Y8083D02*
X14085Y8583D01*
X13585D02*
X14085D01*
X13585D02*
X13835Y8083D01*
X13385Y8183D02*
X13535Y8483D01*
X13235D02*
X13535D01*
X13235D02*
X13385Y8183D01*
Y8083D02*
X13635Y8583D01*
X13135D02*
X13635D01*
X13135D02*
X13385Y8083D01*
X12935Y8183D02*
X13085Y8483D01*
X12785D02*
X13085D01*
X12785D02*
X12935Y8183D01*
Y8083D02*
X13185Y8583D01*
X12685D02*
X13185D01*
X12685D02*
X12935Y8083D01*
X12485Y8183D02*
X12635Y8483D01*
X12335D02*
X12635D01*
X12335D02*
X12485Y8183D01*
Y8083D02*
X12735Y8583D01*
X12235D02*
X12735D01*
X12235D02*
X12485Y8083D01*
X16535Y7733D02*
X16685Y8033D01*
X16385D02*
X16685D01*
X16385D02*
X16535Y7733D01*
Y7633D02*
X16785Y8133D01*
X16285D02*
X16785D01*
X16285D02*
X16535Y7633D01*
X16085Y7733D02*
X16235Y8033D01*
X15935D02*
X16235D01*
X15935D02*
X16085Y7733D01*
Y7633D02*
X16335Y8133D01*
X15835D02*
X16335D01*
X15835D02*
X16085Y7633D01*
X15635Y7733D02*
X15785Y8033D01*
X15485D02*
X15785D01*
X15485D02*
X15635Y7733D01*
Y7633D02*
X15885Y8133D01*
X15385D02*
X15885D01*
X15385D02*
X15635Y7633D01*
X15185Y7733D02*
X15335Y8033D01*
X15035D02*
X15335D01*
X15035D02*
X15185Y7733D01*
Y7633D02*
X15435Y8133D01*
X14935D02*
X15435D01*
X14935D02*
X15185Y7633D01*
X14735Y7733D02*
X14885Y8033D01*
X14585D02*
X14885D01*
X14585D02*
X14735Y7733D01*
Y7633D02*
X14985Y8133D01*
X14485D02*
X14985D01*
X14485D02*
X14735Y7633D01*
X14285Y7733D02*
X14435Y8033D01*
X14135D02*
X14435D01*
X14135D02*
X14285Y7733D01*
Y7633D02*
X14535Y8133D01*
X14035D02*
X14535D01*
X14035D02*
X14285Y7633D01*
X13835Y7733D02*
X13985Y8033D01*
X13685D02*
X13985D01*
X13685D02*
X13835Y7733D01*
Y7633D02*
X14085Y8133D01*
X13585D02*
X14085D01*
X13585D02*
X13835Y7633D01*
X13385Y7733D02*
X13535Y8033D01*
X13235D02*
X13535D01*
X13235D02*
X13385Y7733D01*
Y7633D02*
X13635Y8133D01*
X13135D02*
X13635D01*
X13135D02*
X13385Y7633D01*
X12935Y7733D02*
X13085Y8033D01*
X12785D02*
X13085D01*
X12785D02*
X12935Y7733D01*
Y7633D02*
X13185Y8133D01*
X12685D02*
X13185D01*
X12685D02*
X12935Y7633D01*
X12485Y7733D02*
X12635Y8033D01*
X12335D02*
X12635D01*
X12335D02*
X12485Y7733D01*
Y7633D02*
X12735Y8133D01*
X12235D02*
X12735D01*
X12235D02*
X12485Y7633D01*
X16535Y7283D02*
X16685Y7583D01*
X16385D02*
X16685D01*
X16385D02*
X16535Y7283D01*
Y7183D02*
X16785Y7683D01*
X16285D02*
X16785D01*
X16285D02*
X16535Y7183D01*
X16085Y7283D02*
X16235Y7583D01*
X15935D02*
X16235D01*
X15935D02*
X16085Y7283D01*
Y7183D02*
X16335Y7683D01*
X15835D02*
X16335D01*
X15835D02*
X16085Y7183D01*
X15635Y7283D02*
X15785Y7583D01*
X15485D02*
X15785D01*
X15485D02*
X15635Y7283D01*
Y7183D02*
X15885Y7683D01*
X15385D02*
X15885D01*
X15385D02*
X15635Y7183D01*
X15185Y7283D02*
X15335Y7583D01*
X15035D02*
X15335D01*
X15035D02*
X15185Y7283D01*
Y7183D02*
X15435Y7683D01*
X14935D02*
X15435D01*
X14935D02*
X15185Y7183D01*
X14735Y7283D02*
X14885Y7583D01*
X14585D02*
X14885D01*
X14585D02*
X14735Y7283D01*
Y7183D02*
X14985Y7683D01*
X14485D02*
X14985D01*
X14485D02*
X14735Y7183D01*
X14285Y7283D02*
X14435Y7583D01*
X14135D02*
X14435D01*
X14135D02*
X14285Y7283D01*
Y7183D02*
X14535Y7683D01*
X14035D02*
X14535D01*
X14035D02*
X14285Y7183D01*
X13835Y7283D02*
X13985Y7583D01*
X13685D02*
X13985D01*
X13685D02*
X13835Y7283D01*
Y7183D02*
X14085Y7683D01*
X13585D02*
X14085D01*
X13585D02*
X13835Y7183D01*
X13385Y7283D02*
X13535Y7583D01*
X13235D02*
X13535D01*
X13235D02*
X13385Y7283D01*
Y7183D02*
X13635Y7683D01*
X13135D02*
X13635D01*
X13135D02*
X13385Y7183D01*
X12935Y7283D02*
X13085Y7583D01*
X12785D02*
X13085D01*
X12785D02*
X12935Y7283D01*
Y7183D02*
X13185Y7683D01*
X12685D02*
X13185D01*
X12685D02*
X12935Y7183D01*
X12485Y7283D02*
X12635Y7583D01*
X12335D02*
X12635D01*
X12335D02*
X12485Y7283D01*
Y7183D02*
X12735Y7683D01*
X12235D02*
X12735D01*
X12235D02*
X12485Y7183D01*
X16535Y6833D02*
X16685Y7133D01*
X16385D02*
X16685D01*
X16385D02*
X16535Y6833D01*
Y6733D02*
X16785Y7233D01*
X16285D02*
X16785D01*
X16285D02*
X16535Y6733D01*
X16085Y6833D02*
X16235Y7133D01*
X15935D02*
X16235D01*
X15935D02*
X16085Y6833D01*
Y6733D02*
X16335Y7233D01*
X15835D02*
X16335D01*
X15835D02*
X16085Y6733D01*
X15635Y6833D02*
X15785Y7133D01*
X15485D02*
X15785D01*
X15485D02*
X15635Y6833D01*
Y6733D02*
X15885Y7233D01*
X15385D02*
X15885D01*
X15385D02*
X15635Y6733D01*
X15185Y6833D02*
X15335Y7133D01*
X15035D02*
X15335D01*
X15035D02*
X15185Y6833D01*
Y6733D02*
X15435Y7233D01*
X14935D02*
X15435D01*
X14935D02*
X15185Y6733D01*
X14735Y6833D02*
X14885Y7133D01*
X14585D02*
X14885D01*
X14585D02*
X14735Y6833D01*
Y6733D02*
X14985Y7233D01*
X14485D02*
X14985D01*
X14485D02*
X14735Y6733D01*
X14285Y6833D02*
X14435Y7133D01*
X14135D02*
X14435D01*
X14135D02*
X14285Y6833D01*
Y6733D02*
X14535Y7233D01*
X14035D02*
X14535D01*
X14035D02*
X14285Y6733D01*
X13835Y6833D02*
X13985Y7133D01*
X13685D02*
X13985D01*
X13685D02*
X13835Y6833D01*
Y6733D02*
X14085Y7233D01*
X13585D02*
X14085D01*
X13585D02*
X13835Y6733D01*
X13385Y6833D02*
X13535Y7133D01*
X13235D02*
X13535D01*
X13235D02*
X13385Y6833D01*
Y6733D02*
X13635Y7233D01*
X13135D02*
X13635D01*
X13135D02*
X13385Y6733D01*
X12935Y6833D02*
X13085Y7133D01*
X12785D02*
X13085D01*
X12785D02*
X12935Y6833D01*
Y6733D02*
X13185Y7233D01*
X12685D02*
X13185D01*
X12685D02*
X12935Y6733D01*
X12485Y6833D02*
X12635Y7133D01*
X12335D02*
X12635D01*
X12335D02*
X12485Y6833D01*
Y6733D02*
X12735Y7233D01*
X12235D02*
X12735D01*
X12235D02*
X12485Y6733D01*
X8685Y7083D02*
X8835Y7383D01*
X8535D02*
X8835D01*
X8535D02*
X8685Y7083D01*
Y6983D02*
X8935Y7483D01*
X8435D02*
X8935D01*
X8435D02*
X8685Y6983D01*
X13485Y12633D02*
X13635Y12933D01*
X13335D02*
X13635D01*
X13335D02*
X13485Y12633D01*
Y12533D02*
X13735Y13033D01*
X13235D02*
X13735D01*
X13235D02*
X13485Y12533D01*
X13935Y12633D02*
X14085Y12933D01*
X13785D02*
X14085D01*
X13785D02*
X13935Y12633D01*
Y12533D02*
X14185Y13033D01*
X13685D02*
X14185D01*
X13685D02*
X13935Y12533D01*
X14385Y12633D02*
X14535Y12933D01*
X14235D02*
X14535D01*
X14235D02*
X14385Y12633D01*
Y12533D02*
X14635Y13033D01*
X14135D02*
X14635D01*
X14135D02*
X14385Y12533D01*
X14835Y12633D02*
X14985Y12933D01*
X14685D02*
X14985D01*
X14685D02*
X14835Y12633D01*
Y12533D02*
X15085Y13033D01*
X14585D02*
X15085D01*
X14585D02*
X14835Y12533D01*
X15285Y12633D02*
X15435Y12933D01*
X15135D02*
X15435D01*
X15135D02*
X15285Y12633D01*
Y12533D02*
X15535Y13033D01*
X15035D02*
X15535D01*
X15035D02*
X15285Y12533D01*
X15735Y12633D02*
X15885Y12933D01*
X15585D02*
X15885D01*
X15585D02*
X15735Y12633D01*
Y12533D02*
X15985Y13033D01*
X15485D02*
X15985D01*
X15485D02*
X15735Y12533D01*
X7135Y12983D02*
X7285Y13283D01*
X6985D02*
X7285D01*
X6985D02*
X7135Y12983D01*
Y12883D02*
X7385Y13383D01*
X6885D02*
X7385D01*
X6885D02*
X7135Y12883D01*
Y12433D02*
X7285Y12733D01*
X6985D02*
X7285D01*
X6985D02*
X7135Y12433D01*
Y12333D02*
X7385Y12833D01*
X6885D02*
X7385D01*
X6885D02*
X7135Y12333D01*
Y11883D02*
X7285Y12183D01*
X6985D02*
X7285D01*
X6985D02*
X7135Y11883D01*
Y11783D02*
X7385Y12283D01*
X6885D02*
X7385D01*
X6885D02*
X7135Y11783D01*
Y11383D02*
X7285Y11683D01*
X6985D02*
X7285D01*
X6985D02*
X7135Y11383D01*
Y11283D02*
X7385Y11783D01*
X6885D02*
X7385D01*
X6885D02*
X7135Y11283D01*
Y10833D02*
X7285Y11133D01*
X6985D02*
X7285D01*
X6985D02*
X7135Y10833D01*
Y10733D02*
X7385Y11233D01*
X6885D02*
X7385D01*
X6885D02*
X7135Y10733D01*
Y10333D02*
X7285Y10633D01*
X6985D02*
X7285D01*
X6985D02*
X7135Y10333D01*
Y10233D02*
X7385Y10733D01*
X6885D02*
X7385D01*
X6885D02*
X7135Y10233D01*
Y9783D02*
X7285Y10083D01*
X6985D02*
X7285D01*
X6985D02*
X7135Y9783D01*
Y9683D02*
X7385Y10183D01*
X6885D02*
X7385D01*
X6885D02*
X7135Y9683D01*
X7685Y10833D02*
X7835Y11133D01*
X7535D02*
X7835D01*
X7535D02*
X7685Y10833D01*
Y10733D02*
X7935Y11233D01*
X7435D02*
X7935D01*
X7435D02*
X7685Y10733D01*
X8185Y10833D02*
X8335Y11133D01*
X8035D02*
X8335D01*
X8035D02*
X8185Y10833D01*
Y10733D02*
X8435Y11233D01*
X7935D02*
X8435D01*
X7935D02*
X8185Y10733D01*
X1225Y10033D02*
X1375Y10333D01*
X1075D02*
X1375D01*
X1075D02*
X1225Y10033D01*
Y9933D02*
X1475Y10433D01*
X975D02*
X1475D01*
X975D02*
X1225Y9933D01*
X11215Y1583D02*
X11365Y1883D01*
X11065D02*
X11365D01*
X11065D02*
X11215Y1583D01*
Y1483D02*
X11465Y1983D01*
X10965D02*
X11465D01*
X10965D02*
X11215Y1483D01*
X11067Y2053D02*
X11217Y2353D01*
X10917D02*
X11217D01*
X10917D02*
X11067Y2053D01*
Y1953D02*
X11317Y2453D01*
X10817D02*
X11317D01*
X10817D02*
X11067Y1953D01*
X11065Y2633D02*
X11215Y2933D01*
X10915D02*
X11215D01*
X10915D02*
X11065Y2633D01*
Y2533D02*
X11315Y3033D01*
X10815D02*
X11315D01*
X10815D02*
X11065Y2533D01*
X16299Y2996D02*
X16449Y3296D01*
X16149D02*
X16449D01*
X16149D02*
X16299Y2996D01*
Y2896D02*
X16549Y3396D01*
X16049D02*
X16549D01*
X16049D02*
X16299Y2896D01*
X17295Y7103D02*
X17445Y7403D01*
X17145D02*
X17445D01*
X17145D02*
X17295Y7103D01*
Y7003D02*
X17545Y7503D01*
X17045D02*
X17545D01*
X17045D02*
X17295Y7003D01*
X17660Y4933D02*
X17810Y5233D01*
X17510D02*
X17810D01*
X17510D02*
X17660Y4933D01*
Y4833D02*
X17910Y5333D01*
X17410D02*
X17910D01*
X17410D02*
X17660Y4833D01*
X10785Y243D02*
X10935Y543D01*
X10635D02*
X10935D01*
X10635D02*
X10785Y243D01*
Y143D02*
X11035Y643D01*
X10535D02*
X11035D01*
X10535D02*
X10785Y143D01*
X12435Y10633D02*
X12585Y10933D01*
X12285D02*
X12585D01*
X12285D02*
X12435Y10633D01*
Y10533D02*
X12685Y11033D01*
X12185D02*
X12685D01*
X12185D02*
X12435Y10533D01*
X15735Y13233D02*
X15885Y13533D01*
X15585D02*
X15885D01*
X15585D02*
X15735Y13233D01*
Y13133D02*
X15985Y13633D01*
X15485D02*
X15985D01*
X15485D02*
X15735Y13133D01*
X15285Y13233D02*
X15435Y13533D01*
X15135D02*
X15435D01*
X15135D02*
X15285Y13233D01*
Y13133D02*
X15535Y13633D01*
X15035D02*
X15535D01*
X15035D02*
X15285Y13133D01*
X14835Y13233D02*
X14985Y13533D01*
X14685D02*
X14985D01*
X14685D02*
X14835Y13233D01*
Y13133D02*
X15085Y13633D01*
X14585D02*
X15085D01*
X14585D02*
X14835Y13133D01*
X14385Y13233D02*
X14535Y13533D01*
X14235D02*
X14535D01*
X14235D02*
X14385Y13233D01*
Y13133D02*
X14635Y13633D01*
X14135D02*
X14635D01*
X14135D02*
X14385Y13133D01*
X13935Y13233D02*
X14085Y13533D01*
X13785D02*
X14085D01*
X13785D02*
X13935Y13233D01*
Y13133D02*
X14185Y13633D01*
X13685D02*
X14185D01*
X13685D02*
X13935Y13133D01*
X13485Y13233D02*
X13635Y13533D01*
X13335D02*
X13635D01*
X13335D02*
X13485Y13233D01*
Y13133D02*
X13735Y13633D01*
X13235D02*
X13735D01*
X13235D02*
X13485Y13133D01*
X20135Y3933D02*
Y4058D01*
X20260Y4183D01*
X20135Y4308D02*
X20260Y4183D01*
X20135Y4308D02*
Y4433D01*
X20260D01*
X20385Y4308D01*
X20510Y4433D01*
X20635D01*
Y4308D02*
Y4433D01*
X20510Y4183D02*
X20635Y4308D01*
X20510Y4183D02*
X20635Y4058D01*
Y3933D02*
Y4058D01*
X20510Y3933D02*
X20635D01*
X20385Y4058D02*
X20510Y3933D01*
X20260D02*
X20385Y4058D01*
X20135Y3933D02*
X20260D01*
X20135Y4933D02*
Y5058D01*
X20260Y5183D01*
X20135Y5308D02*
X20260Y5183D01*
X20135Y5308D02*
Y5433D01*
X20260D01*
X20385Y5308D01*
X20510Y5433D01*
X20635D01*
Y5308D02*
Y5433D01*
X20510Y5183D02*
X20635Y5308D01*
X20510Y5183D02*
X20635Y5058D01*
Y4933D02*
Y5058D01*
X20510Y4933D02*
X20635D01*
X20385Y5058D02*
X20510Y4933D01*
X20260D02*
X20385Y5058D01*
X20135Y4933D02*
X20260D01*
X19135Y3933D02*
Y4058D01*
X19260Y4183D01*
X19135Y4308D02*
X19260Y4183D01*
X19135Y4308D02*
Y4433D01*
X19260D01*
X19385Y4308D01*
X19510Y4433D01*
X19635D01*
Y4308D02*
Y4433D01*
X19510Y4183D02*
X19635Y4308D01*
X19510Y4183D02*
X19635Y4058D01*
Y3933D02*
Y4058D01*
X19510Y3933D02*
X19635D01*
X19385Y4058D02*
X19510Y3933D01*
X19260D02*
X19385Y4058D01*
X19135Y3933D02*
X19260D01*
X19135Y4933D02*
Y5058D01*
X19260Y5183D01*
X19135Y5308D02*
X19260Y5183D01*
X19135Y5308D02*
Y5433D01*
X19260D01*
X19385Y5308D01*
X19510Y5433D01*
X19635D01*
Y5308D02*
Y5433D01*
X19510Y5183D02*
X19635Y5308D01*
X19510Y5183D02*
X19635Y5058D01*
Y4933D02*
Y5058D01*
X19510Y4933D02*
X19635D01*
X19385Y5058D02*
X19510Y4933D01*
X19260D02*
X19385Y5058D01*
X19135Y4933D02*
X19260D01*
X20135Y7933D02*
Y8058D01*
X20260Y8183D01*
X20135Y8308D02*
X20260Y8183D01*
X20135Y8308D02*
Y8433D01*
X20260D01*
X20385Y8308D01*
X20510Y8433D01*
X20635D01*
Y8308D02*
Y8433D01*
X20510Y8183D02*
X20635Y8308D01*
X20510Y8183D02*
X20635Y8058D01*
Y7933D02*
Y8058D01*
X20510Y7933D02*
X20635D01*
X20385Y8058D02*
X20510Y7933D01*
X20260D02*
X20385Y8058D01*
X20135Y7933D02*
X20260D01*
X19135D02*
Y8058D01*
X19260Y8183D01*
X19135Y8308D02*
X19260Y8183D01*
X19135Y8308D02*
Y8433D01*
X19260D01*
X19385Y8308D01*
X19510Y8433D01*
X19635D01*
Y8308D02*
Y8433D01*
X19510Y8183D02*
X19635Y8308D01*
X19510Y8183D02*
X19635Y8058D01*
Y7933D02*
Y8058D01*
X19510Y7933D02*
X19635D01*
X19385Y8058D02*
X19510Y7933D01*
X19260D02*
X19385Y8058D01*
X19135Y7933D02*
X19260D01*
X20135Y8933D02*
Y9058D01*
X20260Y9183D01*
X20135Y9308D02*
X20260Y9183D01*
X20135Y9308D02*
Y9433D01*
X20260D01*
X20385Y9308D01*
X20510Y9433D01*
X20635D01*
Y9308D02*
Y9433D01*
X20510Y9183D02*
X20635Y9308D01*
X20510Y9183D02*
X20635Y9058D01*
Y8933D02*
Y9058D01*
X20510Y8933D02*
X20635D01*
X20385Y9058D02*
X20510Y8933D01*
X20260D02*
X20385Y9058D01*
X20135Y8933D02*
X20260D01*
X19135D02*
Y9058D01*
X19260Y9183D01*
X19135Y9308D02*
X19260Y9183D01*
X19135Y9308D02*
Y9433D01*
X19260D01*
X19385Y9308D01*
X19510Y9433D01*
X19635D01*
Y9308D02*
Y9433D01*
X19510Y9183D02*
X19635Y9308D01*
X19510Y9183D02*
X19635Y9058D01*
Y8933D02*
Y9058D01*
X19510Y8933D02*
X19635D01*
X19385Y9058D02*
X19510Y8933D01*
X19260D02*
X19385Y9058D01*
X19135Y8933D02*
X19260D01*
X19135Y10933D02*
Y11058D01*
X19260Y11183D01*
X19135Y11308D02*
X19260Y11183D01*
X19135Y11308D02*
Y11433D01*
X19260D01*
X19385Y11308D01*
X19510Y11433D01*
X19635D01*
Y11308D02*
Y11433D01*
X19510Y11183D02*
X19635Y11308D01*
X19510Y11183D02*
X19635Y11058D01*
Y10933D02*
Y11058D01*
X19510Y10933D02*
X19635D01*
X19385Y11058D02*
X19510Y10933D01*
X19260D02*
X19385Y11058D01*
X19135Y10933D02*
X19260D01*
X20135D02*
Y11058D01*
X20260Y11183D01*
X20135Y11308D02*
X20260Y11183D01*
X20135Y11308D02*
Y11433D01*
X20260D01*
X20385Y11308D01*
X20510Y11433D01*
X20635D01*
Y11308D02*
Y11433D01*
X20510Y11183D02*
X20635Y11308D01*
X20510Y11183D02*
X20635Y11058D01*
Y10933D02*
Y11058D01*
X20510Y10933D02*
X20635D01*
X20385Y11058D02*
X20510Y10933D01*
X20260D02*
X20385Y11058D01*
X20135Y10933D02*
X20260D01*
X19135Y9933D02*
Y10058D01*
X19260Y10183D01*
X19135Y10308D02*
X19260Y10183D01*
X19135Y10308D02*
Y10433D01*
X19260D01*
X19385Y10308D01*
X19510Y10433D01*
X19635D01*
Y10308D02*
Y10433D01*
X19510Y10183D02*
X19635Y10308D01*
X19510Y10183D02*
X19635Y10058D01*
Y9933D02*
Y10058D01*
X19510Y9933D02*
X19635D01*
X19385Y10058D02*
X19510Y9933D01*
X19260D02*
X19385Y10058D01*
X19135Y9933D02*
X19260D01*
X20135D02*
Y10058D01*
X20260Y10183D01*
X20135Y10308D02*
X20260Y10183D01*
X20135Y10308D02*
Y10433D01*
X20260D01*
X20385Y10308D01*
X20510Y10433D01*
X20635D01*
Y10308D02*
Y10433D01*
X20510Y10183D02*
X20635Y10308D01*
X20510Y10183D02*
X20635Y10058D01*
Y9933D02*
Y10058D01*
X20510Y9933D02*
X20635D01*
X20385Y10058D02*
X20510Y9933D01*
X20260D02*
X20385Y10058D01*
X20135Y9933D02*
X20260D01*
X19135Y6933D02*
Y7058D01*
X19260Y7183D01*
X19135Y7308D02*
X19260Y7183D01*
X19135Y7308D02*
Y7433D01*
X19260D01*
X19385Y7308D01*
X19510Y7433D01*
X19635D01*
Y7308D02*
Y7433D01*
X19510Y7183D02*
X19635Y7308D01*
X19510Y7183D02*
X19635Y7058D01*
Y6933D02*
Y7058D01*
X19510Y6933D02*
X19635D01*
X19385Y7058D02*
X19510Y6933D01*
X19260D02*
X19385Y7058D01*
X19135Y6933D02*
X19260D01*
X20135D02*
Y7058D01*
X20260Y7183D01*
X20135Y7308D02*
X20260Y7183D01*
X20135Y7308D02*
Y7433D01*
X20260D01*
X20385Y7308D01*
X20510Y7433D01*
X20635D01*
Y7308D02*
Y7433D01*
X20510Y7183D02*
X20635Y7308D01*
X20510Y7183D02*
X20635Y7058D01*
Y6933D02*
Y7058D01*
X20510Y6933D02*
X20635D01*
X20385Y7058D02*
X20510Y6933D01*
X20260D02*
X20385Y7058D01*
X20135Y6933D02*
X20260D01*
X19135Y5933D02*
Y6058D01*
X19260Y6183D01*
X19135Y6308D02*
X19260Y6183D01*
X19135Y6308D02*
Y6433D01*
X19260D01*
X19385Y6308D01*
X19510Y6433D01*
X19635D01*
Y6308D02*
Y6433D01*
X19510Y6183D02*
X19635Y6308D01*
X19510Y6183D02*
X19635Y6058D01*
Y5933D02*
Y6058D01*
X19510Y5933D02*
X19635D01*
X19385Y6058D02*
X19510Y5933D01*
X19260D02*
X19385Y6058D01*
X19135Y5933D02*
X19260D01*
X20135D02*
Y6058D01*
X20260Y6183D01*
X20135Y6308D02*
X20260Y6183D01*
X20135Y6308D02*
Y6433D01*
X20260D01*
X20385Y6308D01*
X20510Y6433D01*
X20635D01*
Y6308D02*
Y6433D01*
X20510Y6183D02*
X20635Y6308D01*
X20510Y6183D02*
X20635Y6058D01*
Y5933D02*
Y6058D01*
X20510Y5933D02*
X20635D01*
X20385Y6058D02*
X20510Y5933D01*
X20260D02*
X20385Y6058D01*
X20135Y5933D02*
X20260D01*
D16*
X28774Y3733D02*
X28974Y4133D01*
X28574D02*
X28974D01*
X28574D02*
X28774Y3733D01*
Y3600D02*
X29107Y4267D01*
X28441D02*
X29107D01*
X28441D02*
X28774Y3600D01*
X28441Y2100D02*
Y2267D01*
X28607Y2433D01*
X28441Y2600D02*
X28607Y2433D01*
X28441Y2600D02*
Y2767D01*
X28607D01*
X28774Y2600D01*
X28941Y2767D01*
X29107D01*
Y2600D02*
Y2767D01*
X28941Y2433D02*
X29107Y2600D01*
X28941Y2433D02*
X29107Y2267D01*
Y2100D02*
Y2267D01*
X28941Y2100D02*
X29107D01*
X28774Y2267D02*
X28941Y2100D01*
X28607D02*
X28774Y2267D01*
X28441Y2100D02*
X28607D01*
X83988Y3600D02*
Y4200D01*
X84288D01*
X84387Y4100D01*
Y3900D01*
X84288Y3800D01*
X83988D01*
X84188D02*
X84387Y3600D01*
X84687D02*
X84887D01*
X84987Y3700D01*
Y3900D01*
X84887Y4000D01*
X84687D01*
X84587Y3900D01*
Y3700D01*
X84687Y3600D01*
X85187Y4000D02*
Y3700D01*
X85287Y3600D01*
X85587D01*
Y4000D01*
X85787Y3600D02*
Y4000D01*
X86087D01*
X86187Y3900D01*
Y3600D01*
X86787Y4200D02*
Y3600D01*
X86487D01*
X86387Y3700D01*
Y3900D01*
X86487Y4000D01*
X86787D01*
X87287Y3600D02*
X87087D01*
X86987Y3700D01*
Y3900D01*
X87087Y4000D01*
X87287D01*
X87387Y3900D01*
Y3800D01*
X86987D01*
X87986Y4200D02*
Y3600D01*
X87686D01*
X87586Y3700D01*
Y3900D01*
X87686Y4000D01*
X87986D01*
X84188Y2100D02*
X83988Y2300D01*
Y2500D01*
X84188Y2700D01*
X84487Y2100D02*
Y2700D01*
X84687Y2500D01*
X84887Y2700D01*
Y2100D01*
X85087D02*
X85287D01*
X85187D01*
Y2500D01*
X85087D01*
X85587D02*
X85987Y2100D01*
X85787Y2300D01*
X85987Y2500D01*
X85587Y2100D01*
X86487D02*
X86287D01*
X86187Y2200D01*
Y2400D01*
X86287Y2500D01*
X86487D01*
X86587Y2400D01*
Y2300D01*
X86187D01*
X87187Y2700D02*
Y2100D01*
X86887D01*
X86787Y2200D01*
Y2400D01*
X86887Y2500D01*
X87187D01*
X87387Y2100D02*
X87586Y2300D01*
Y2500D01*
X87387Y2700D01*
X78089Y4200D02*
Y3800D01*
X78289Y3600D01*
X78489Y3800D01*
Y4200D01*
X78689Y3600D02*
X78889D01*
X78789D01*
Y4000D01*
X78689D01*
X79289D02*
X79489D01*
X79589Y3900D01*
Y3600D01*
X79289D01*
X79189Y3700D01*
X79289Y3800D01*
X79589D01*
X78089Y2100D02*
Y2700D01*
X78389D01*
X78489Y2600D01*
Y2400D01*
X78389Y2300D01*
X78089D01*
X78789Y2500D02*
X78989D01*
X79089Y2400D01*
Y2100D01*
X78789D01*
X78689Y2200D01*
X78789Y2300D01*
X79089D01*
X79689Y2700D02*
Y2100D01*
X79389D01*
X79289Y2200D01*
Y2400D01*
X79389Y2500D01*
X79689D01*
X63094Y4200D02*
X63493D01*
X63294D01*
Y3600D01*
X63793D02*
X63993D01*
X64093Y3700D01*
Y3900D01*
X63993Y4000D01*
X63793D01*
X63693Y3900D01*
Y3700D01*
X63793Y3600D01*
X64293Y3400D02*
Y4000D01*
X64593D01*
X64693Y3900D01*
Y3700D01*
X64593Y3600D01*
X64293D01*
X65493Y4200D02*
Y3600D01*
X65893D01*
X66193Y4000D02*
X66393D01*
X66493Y3900D01*
Y3600D01*
X66193D01*
X66093Y3700D01*
X66193Y3800D01*
X66493D01*
X66692Y4000D02*
Y3700D01*
X66792Y3600D01*
X67092D01*
Y3500D01*
X66992Y3400D01*
X66892D01*
X67092Y3600D02*
Y4000D01*
X67592Y3600D02*
X67392D01*
X67292Y3700D01*
Y3900D01*
X67392Y4000D01*
X67592D01*
X67692Y3900D01*
Y3800D01*
X67292D01*
X67892Y4000D02*
Y3600D01*
Y3800D01*
X67992Y3900D01*
X68092Y4000D01*
X68192D01*
X69092Y3900D02*
X69492D01*
X70291Y4200D02*
Y3600D01*
X70591D01*
X70691Y3700D01*
Y3800D01*
X70591Y3900D01*
X70291D01*
X70591D01*
X70691Y4000D01*
Y4100D01*
X70591Y4200D01*
X70291D01*
X70991Y3600D02*
X71191D01*
X71291Y3700D01*
Y3900D01*
X71191Y4000D01*
X70991D01*
X70891Y3900D01*
Y3700D01*
X70991Y3600D01*
X71591Y4100D02*
Y4000D01*
X71491D01*
X71691D01*
X71591D01*
Y3700D01*
X71691Y3600D01*
X72091Y4100D02*
Y4000D01*
X71991D01*
X72191D01*
X72091D01*
Y3700D01*
X72191Y3600D01*
X72591D02*
X72790D01*
X72890Y3700D01*
Y3900D01*
X72790Y4000D01*
X72591D01*
X72491Y3900D01*
Y3700D01*
X72591Y3600D01*
X73090D02*
Y4000D01*
X73190D01*
X73290Y3900D01*
Y3600D01*
Y3900D01*
X73390Y4000D01*
X73490Y3900D01*
Y3600D01*
X74290Y4200D02*
Y3600D01*
X74690D01*
X74990Y4000D02*
X75190D01*
X75290Y3900D01*
Y3600D01*
X74990D01*
X74890Y3700D01*
X74990Y3800D01*
X75290D01*
X75490Y4000D02*
Y3700D01*
X75590Y3600D01*
X75889D01*
Y3500D01*
X75789Y3400D01*
X75690D01*
X75889Y3600D02*
Y4000D01*
X76389Y3600D02*
X76189D01*
X76089Y3700D01*
Y3900D01*
X76189Y4000D01*
X76389D01*
X76489Y3900D01*
Y3800D01*
X76089D01*
X76689Y4000D02*
Y3600D01*
Y3800D01*
X76789Y3900D01*
X76889Y4000D01*
X76989D01*
X63094Y2700D02*
X63493D01*
X63294D01*
Y2100D01*
X63793D02*
X63993D01*
X64093Y2200D01*
Y2400D01*
X63993Y2500D01*
X63793D01*
X63693Y2400D01*
Y2200D01*
X63793Y2100D01*
X64293Y1900D02*
Y2500D01*
X64593D01*
X64693Y2400D01*
Y2200D01*
X64593Y2100D01*
X64293D01*
X65493Y2700D02*
Y2100D01*
X65893D01*
X66193Y2500D02*
X66393D01*
X66493Y2400D01*
Y2100D01*
X66193D01*
X66093Y2200D01*
X66193Y2300D01*
X66493D01*
X66692Y2500D02*
Y2200D01*
X66792Y2100D01*
X67092D01*
Y2000D01*
X66992Y1900D01*
X66892D01*
X67092Y2100D02*
Y2500D01*
X67592Y2100D02*
X67392D01*
X67292Y2200D01*
Y2400D01*
X67392Y2500D01*
X67592D01*
X67692Y2400D01*
Y2300D01*
X67292D01*
X67892Y2500D02*
Y2100D01*
Y2300D01*
X67992Y2400D01*
X68092Y2500D01*
X68192D01*
X69092Y2400D02*
X69492D01*
X70291Y2700D02*
Y2100D01*
X70591D01*
X70691Y2200D01*
Y2300D01*
X70591Y2400D01*
X70291D01*
X70591D01*
X70691Y2500D01*
Y2600D01*
X70591Y2700D01*
X70291D01*
X70991Y2100D02*
X71191D01*
X71291Y2200D01*
Y2400D01*
X71191Y2500D01*
X70991D01*
X70891Y2400D01*
Y2200D01*
X70991Y2100D01*
X71591Y2600D02*
Y2500D01*
X71491D01*
X71691D01*
X71591D01*
Y2200D01*
X71691Y2100D01*
X72091Y2600D02*
Y2500D01*
X71991D01*
X72191D01*
X72091D01*
Y2200D01*
X72191Y2100D01*
X72591D02*
X72790D01*
X72890Y2200D01*
Y2400D01*
X72790Y2500D01*
X72591D01*
X72491Y2400D01*
Y2200D01*
X72591Y2100D01*
X73090D02*
Y2500D01*
X73190D01*
X73290Y2400D01*
Y2100D01*
Y2400D01*
X73390Y2500D01*
X73490Y2400D01*
Y2100D01*
X74290Y2700D02*
Y2100D01*
X74690D01*
X74990Y2500D02*
X75190D01*
X75290Y2400D01*
Y2100D01*
X74990D01*
X74890Y2200D01*
X74990Y2300D01*
X75290D01*
X75490Y2500D02*
Y2200D01*
X75590Y2100D01*
X75889D01*
Y2000D01*
X75789Y1900D01*
X75690D01*
X75889Y2100D02*
Y2500D01*
X76389Y2100D02*
X76189D01*
X76089Y2200D01*
Y2400D01*
X76189Y2500D01*
X76389D01*
X76489Y2400D01*
Y2300D01*
X76089D01*
X76689Y2500D02*
Y2100D01*
Y2300D01*
X76789Y2400D01*
X76889Y2500D01*
X76989D01*
X55756Y3600D02*
Y4200D01*
X56055D01*
X56155Y4100D01*
Y3900D01*
X56055Y3800D01*
X55756D01*
X55956D02*
X56155Y3600D01*
X56455D02*
X56655D01*
X56755Y3700D01*
Y3900D01*
X56655Y4000D01*
X56455D01*
X56355Y3900D01*
Y3700D01*
X56455Y3600D01*
X56955Y4000D02*
Y3700D01*
X57055Y3600D01*
X57355D01*
Y4000D01*
X57555Y3600D02*
Y4000D01*
X57855D01*
X57955Y3900D01*
Y3600D01*
X58555Y4200D02*
Y3600D01*
X58255D01*
X58155Y3700D01*
Y3900D01*
X58255Y4000D01*
X58555D01*
X55756Y2100D02*
Y2700D01*
X56055D01*
X56155Y2600D01*
Y2400D01*
X56055Y2300D01*
X55756D01*
X55956D02*
X56155Y2100D01*
X56455D02*
X56655D01*
X56755Y2200D01*
Y2400D01*
X56655Y2500D01*
X56455D01*
X56355Y2400D01*
Y2200D01*
X56455Y2100D01*
X56955Y2500D02*
Y2200D01*
X57055Y2100D01*
X57355D01*
Y2500D01*
X57555Y2100D02*
Y2500D01*
X57855D01*
X57955Y2400D01*
Y2100D01*
X58555Y2700D02*
Y2100D01*
X58255D01*
X58155Y2200D01*
Y2400D01*
X58255Y2500D01*
X58555D01*
X50697Y3600D02*
Y4200D01*
X50997D01*
X51097Y4100D01*
Y3900D01*
X50997Y3800D01*
X50697D01*
X51297Y4200D02*
X51697D01*
X51497D01*
Y3600D01*
X51896Y4200D02*
Y3600D01*
Y3900D01*
X52296D01*
Y4200D01*
Y3600D01*
X50697Y2100D02*
Y2700D01*
X50997D01*
X51097Y2600D01*
Y2400D01*
X50997Y2300D01*
X50697D01*
X51297Y2700D02*
X51697D01*
X51497D01*
Y2100D01*
X51896Y2700D02*
Y2100D01*
Y2400D01*
X52296D01*
Y2700D01*
Y2100D01*
X39800Y3600D02*
X40000D01*
X39900D01*
Y4200D01*
X39800Y4100D01*
X40300D02*
X40400Y4200D01*
X40600D01*
X40700Y4100D01*
Y3700D01*
X40600Y3600D01*
X40400D01*
X40300Y3700D01*
Y4100D01*
X40900Y3600D02*
Y3700D01*
X41000D01*
Y3600D01*
X40900D01*
X41399Y4100D02*
X41499Y4200D01*
X41699D01*
X41799Y4100D01*
Y3700D01*
X41699Y3600D01*
X41499D01*
X41399Y3700D01*
Y4100D01*
X41999D02*
X42099Y4200D01*
X42299D01*
X42399Y4100D01*
Y3700D01*
X42299Y3600D01*
X42099D01*
X41999Y3700D01*
Y4100D01*
X42599Y3600D02*
Y4000D01*
X42699D01*
X42799Y3900D01*
Y3600D01*
Y3900D01*
X42899Y4000D01*
X42999Y3900D01*
Y3600D01*
X43199D02*
X43399D01*
X43299D01*
Y4000D01*
X43199D01*
X43699Y3600D02*
X43899D01*
X43799D01*
Y4200D01*
X43699D01*
X44998Y3600D02*
X44798Y3800D01*
Y4000D01*
X44998Y4200D01*
X45298Y4100D02*
X45398Y4200D01*
X45598D01*
X45698Y4100D01*
Y3700D01*
X45598Y3600D01*
X45398D01*
X45298Y3700D01*
Y4100D01*
X45898Y3600D02*
Y3700D01*
X45998D01*
Y3600D01*
X45898D01*
X46798D02*
X46398D01*
X46798Y4000D01*
Y4100D01*
X46698Y4200D01*
X46498D01*
X46398Y4100D01*
X47398Y4200D02*
X46998D01*
Y3900D01*
X47198Y4000D01*
X47298D01*
X47398Y3900D01*
Y3700D01*
X47298Y3600D01*
X47098D01*
X46998Y3700D01*
X47897Y3600D02*
Y4200D01*
X47597Y3900D01*
X47997D01*
X48197Y3600D02*
Y4000D01*
X48297D01*
X48397Y3900D01*
Y3600D01*
Y3900D01*
X48497Y4000D01*
X48597Y3900D01*
Y3600D01*
X48797D02*
Y4000D01*
X48897D01*
X48997Y3900D01*
Y3600D01*
Y3900D01*
X49097Y4000D01*
X49197Y3900D01*
Y3600D01*
X49397D02*
X49597Y3800D01*
Y4000D01*
X49397Y4200D01*
X40100Y2100D02*
Y2700D01*
X39800Y2400D01*
X40200D01*
X40400Y2600D02*
X40500Y2700D01*
X40700D01*
X40800Y2600D01*
Y2500D01*
X40700Y2400D01*
X40600D01*
X40700D01*
X40800Y2300D01*
Y2200D01*
X40700Y2100D01*
X40500D01*
X40400Y2200D01*
X41000Y2100D02*
Y2200D01*
X41100D01*
Y2100D01*
X41000D01*
X41499Y2600D02*
X41599Y2700D01*
X41799D01*
X41899Y2600D01*
Y2500D01*
X41799Y2400D01*
X41699D01*
X41799D01*
X41899Y2300D01*
Y2200D01*
X41799Y2100D01*
X41599D01*
X41499Y2200D01*
X42099Y2100D02*
X42299D01*
X42199D01*
Y2700D01*
X42099Y2600D01*
X42599Y2100D02*
Y2500D01*
X42699D01*
X42799Y2400D01*
Y2100D01*
Y2400D01*
X42899Y2500D01*
X42999Y2400D01*
Y2100D01*
X43199D02*
X43399D01*
X43299D01*
Y2500D01*
X43199D01*
X43699Y2100D02*
X43899D01*
X43799D01*
Y2700D01*
X43699D01*
X44998Y2100D02*
X44798Y2300D01*
Y2500D01*
X44998Y2700D01*
X45298Y2100D02*
X45498D01*
X45398D01*
Y2700D01*
X45298Y2600D01*
X45798Y2100D02*
Y2200D01*
X45898D01*
Y2100D01*
X45798D01*
X46298D02*
X46498D01*
X46398D01*
Y2700D01*
X46298Y2600D01*
X46798D02*
X46898Y2700D01*
X47098D01*
X47198Y2600D01*
Y2200D01*
X47098Y2100D01*
X46898D01*
X46798Y2200D01*
Y2600D01*
X47398D02*
X47498Y2700D01*
X47697D01*
X47797Y2600D01*
Y2200D01*
X47697Y2100D01*
X47498D01*
X47398Y2200D01*
Y2600D01*
X47997Y2100D02*
Y2500D01*
X48097D01*
X48197Y2400D01*
Y2100D01*
Y2400D01*
X48297Y2500D01*
X48397Y2400D01*
Y2100D01*
X48597D02*
Y2500D01*
X48697D01*
X48797Y2400D01*
Y2100D01*
Y2400D01*
X48897Y2500D01*
X48997Y2400D01*
Y2100D01*
X49197D02*
X49397Y2300D01*
Y2500D01*
X49197Y2700D01*
X33802Y1100D02*
X33902Y1200D01*
X34101D01*
X34201Y1100D01*
Y1000D01*
X34101Y900D01*
X34002D01*
X34101D01*
X34201Y800D01*
Y700D01*
X34101Y600D01*
X33902D01*
X33802Y700D01*
X34401Y1100D02*
X34501Y1200D01*
X34701D01*
X34801Y1100D01*
Y1000D01*
X34701Y900D01*
X34601D01*
X34701D01*
X34801Y800D01*
Y700D01*
X34701Y600D01*
X34501D01*
X34401Y700D01*
X35001D02*
X35101Y600D01*
X35301D01*
X35401Y700D01*
Y1100D01*
X35301Y1200D01*
X35101D01*
X35001Y1100D01*
Y1000D01*
X35101Y900D01*
X35401D01*
X36201Y1200D02*
X36601D01*
X36401D01*
Y600D01*
X36901D02*
X37101D01*
X37200Y700D01*
Y900D01*
X37101Y1000D01*
X36901D01*
X36801Y900D01*
Y700D01*
X36901Y600D01*
X37500Y1100D02*
Y1000D01*
X37400D01*
X37600D01*
X37500D01*
Y700D01*
X37600Y600D01*
X38000Y1000D02*
X38200D01*
X38300Y900D01*
Y600D01*
X38000D01*
X37900Y700D01*
X38000Y800D01*
X38300D01*
X38500Y600D02*
X38700D01*
X38600D01*
Y1200D01*
X38500D01*
X33802Y4100D02*
X33902Y4200D01*
X34101D01*
X34201Y4100D01*
Y4000D01*
X34101Y3900D01*
X34002D01*
X34101D01*
X34201Y3800D01*
Y3700D01*
X34101Y3600D01*
X33902D01*
X33802Y3700D01*
X34801Y3600D02*
X34401D01*
X34801Y4000D01*
Y4100D01*
X34701Y4200D01*
X34501D01*
X34401Y4100D01*
X35001D02*
X35101Y4200D01*
X35301D01*
X35401Y4100D01*
Y4000D01*
X35301Y3900D01*
X35201D01*
X35301D01*
X35401Y3800D01*
Y3700D01*
X35301Y3600D01*
X35101D01*
X35001Y3700D01*
X33802Y2100D02*
X34002D01*
X33902D01*
Y2700D01*
X33802Y2600D01*
X34701Y2700D02*
X34501Y2600D01*
X34301Y2400D01*
Y2200D01*
X34401Y2100D01*
X34601D01*
X34701Y2200D01*
Y2300D01*
X34601Y2400D01*
X34301D01*
D47*
X27843Y4650D02*
X91446D01*
X27843Y1650D02*
X91446D01*
X27843Y150D02*
X91446D01*
Y6150D01*
X27843D02*
X91446D01*
X27843Y150D02*
Y6150D01*
X83538Y150D02*
Y6150D01*
X77639Y150D02*
Y6150D01*
X62644Y150D02*
Y6150D01*
X55306Y150D02*
Y6150D01*
X50247Y150D02*
Y6150D01*
X39350Y150D02*
Y6150D01*
X33352Y150D02*
Y6150D01*
D56*
X83988Y5100D02*
Y5820D01*
X84347D01*
X84467Y5700D01*
Y5460D01*
X84347Y5340D01*
X83988D01*
X84827Y5580D02*
X85067D01*
X85187Y5460D01*
Y5100D01*
X84827D01*
X84707Y5220D01*
X84827Y5340D01*
X85187D01*
X85907Y5820D02*
Y5100D01*
X85547D01*
X85427Y5220D01*
Y5460D01*
X85547Y5580D01*
X85907D01*
X87347Y5700D02*
X87227Y5820D01*
X86987D01*
X86867Y5700D01*
Y5580D01*
X86987Y5460D01*
X87227D01*
X87347Y5340D01*
Y5220D01*
X87227Y5100D01*
X86987D01*
X86867Y5220D01*
X87586Y5820D02*
Y5100D01*
Y5460D01*
X87706Y5580D01*
X87946D01*
X88066Y5460D01*
Y5100D01*
X88426Y5580D02*
X88666D01*
X88786Y5460D01*
Y5100D01*
X88426D01*
X88306Y5220D01*
X88426Y5340D01*
X88786D01*
X89026Y4860D02*
Y5580D01*
X89386D01*
X89506Y5460D01*
Y5220D01*
X89386Y5100D01*
X89026D01*
X90106D02*
X89866D01*
X89746Y5220D01*
Y5460D01*
X89866Y5580D01*
X90106D01*
X90226Y5460D01*
Y5340D01*
X89746D01*
X78089Y5820D02*
Y5340D01*
X78329Y5100D01*
X78569Y5340D01*
Y5820D01*
X78809Y5100D02*
X79049D01*
X78929D01*
Y5580D01*
X78809D01*
X79529D02*
X79769D01*
X79889Y5460D01*
Y5100D01*
X79529D01*
X79409Y5220D01*
X79529Y5340D01*
X79889D01*
X80128Y5100D02*
X80608Y5580D01*
X80848Y5100D02*
Y5820D01*
X81208D01*
X81328Y5700D01*
Y5460D01*
X81208Y5340D01*
X80848D01*
X81688Y5580D02*
X81928D01*
X82048Y5460D01*
Y5100D01*
X81688D01*
X81568Y5220D01*
X81688Y5340D01*
X82048D01*
X82768Y5820D02*
Y5100D01*
X82408D01*
X82288Y5220D01*
Y5460D01*
X82408Y5580D01*
X82768D01*
X63094Y5820D02*
Y5100D01*
X63453D01*
X63573Y5220D01*
Y5700D01*
X63453Y5820D01*
X63094D01*
X63813Y5580D02*
Y5100D01*
Y5340D01*
X63933Y5460D01*
X64053Y5580D01*
X64173D01*
X64533Y5100D02*
X64773D01*
X64653D01*
Y5580D01*
X64533D01*
X65133Y5100D02*
X65373D01*
X65253D01*
Y5820D01*
X65133D01*
X65733Y5100D02*
X65973D01*
X65853D01*
Y5820D01*
X65733D01*
X67052D02*
Y5100D01*
X67532D01*
X67892Y5580D02*
X68132D01*
X68252Y5460D01*
Y5100D01*
X67892D01*
X67772Y5220D01*
X67892Y5340D01*
X68252D01*
X68492Y5580D02*
Y5220D01*
X68612Y5100D01*
X68972D01*
Y4980D01*
X68852Y4860D01*
X68732D01*
X68972Y5100D02*
Y5580D01*
X69572Y5100D02*
X69332D01*
X69212Y5220D01*
Y5460D01*
X69332Y5580D01*
X69572D01*
X69691Y5460D01*
Y5340D01*
X69212D01*
X69931Y5580D02*
Y5100D01*
Y5340D01*
X70051Y5460D01*
X70171Y5580D01*
X70291D01*
X71371Y5100D02*
Y5820D01*
X71731D01*
X71851Y5700D01*
Y5460D01*
X71731Y5340D01*
X71371D01*
X72211Y5580D02*
X72451D01*
X72571Y5460D01*
Y5100D01*
X72211D01*
X72091Y5220D01*
X72211Y5340D01*
X72571D01*
X72810Y5100D02*
X73050D01*
X72930D01*
Y5580D01*
X72810D01*
X73410D02*
Y5100D01*
Y5340D01*
X73530Y5460D01*
X73650Y5580D01*
X73770D01*
X55756Y5820D02*
Y5100D01*
Y5460D01*
X56235D01*
Y5820D01*
Y5100D01*
X56595D02*
X56835D01*
X56955Y5220D01*
Y5460D01*
X56835Y5580D01*
X56595D01*
X56475Y5460D01*
Y5220D01*
X56595Y5100D01*
X57195D02*
X57435D01*
X57315D01*
Y5820D01*
X57195D01*
X58155Y5100D02*
X57915D01*
X57795Y5220D01*
Y5460D01*
X57915Y5580D01*
X58155D01*
X58275Y5460D01*
Y5340D01*
X57795D01*
X59234Y5820D02*
X59714D01*
X59474D01*
Y5100D01*
X59954Y5580D02*
Y5220D01*
X60074Y5100D01*
X60434D01*
Y4980D01*
X60314Y4860D01*
X60194D01*
X60434Y5100D02*
Y5580D01*
X60674Y4860D02*
Y5580D01*
X61034D01*
X61154Y5460D01*
Y5220D01*
X61034Y5100D01*
X60674D01*
X61754D02*
X61514D01*
X61394Y5220D01*
Y5460D01*
X61514Y5580D01*
X61754D01*
X61874Y5460D01*
Y5340D01*
X61394D01*
X50697Y5100D02*
Y5820D01*
X51057D01*
X51177Y5700D01*
Y5460D01*
X51057Y5340D01*
X50697D01*
X51417Y5100D02*
X51657D01*
X51537D01*
Y5820D01*
X51417D01*
X52136Y5580D02*
X52376D01*
X52496Y5460D01*
Y5100D01*
X52136D01*
X52016Y5220D01*
X52136Y5340D01*
X52496D01*
X52856Y5700D02*
Y5580D01*
X52736D01*
X52976D01*
X52856D01*
Y5220D01*
X52976Y5100D01*
X53696D02*
X53456D01*
X53336Y5220D01*
Y5460D01*
X53456Y5580D01*
X53696D01*
X53816Y5460D01*
Y5340D01*
X53336D01*
X54536Y5820D02*
Y5100D01*
X54176D01*
X54056Y5220D01*
Y5460D01*
X54176Y5580D01*
X54536D01*
X39800Y5820D02*
Y5100D01*
Y5460D01*
X40280D01*
Y5820D01*
Y5100D01*
X40640D02*
X40880D01*
X41000Y5220D01*
Y5460D01*
X40880Y5580D01*
X40640D01*
X40520Y5460D01*
Y5220D01*
X40640Y5100D01*
X41240D02*
X41479D01*
X41359D01*
Y5820D01*
X41240D01*
X42199Y5100D02*
X41959D01*
X41839Y5220D01*
Y5460D01*
X41959Y5580D01*
X42199D01*
X42319Y5460D01*
Y5340D01*
X41839D01*
X43759Y5700D02*
X43639Y5820D01*
X43399D01*
X43279Y5700D01*
Y5580D01*
X43399Y5460D01*
X43639D01*
X43759Y5340D01*
Y5220D01*
X43639Y5100D01*
X43399D01*
X43279Y5220D01*
X43999Y5100D02*
X44239D01*
X44119D01*
Y5580D01*
X43999D01*
X44598D02*
X45078D01*
X44598Y5100D01*
X45078D01*
X45678D02*
X45438D01*
X45318Y5220D01*
Y5460D01*
X45438Y5580D01*
X45678D01*
X45798Y5460D01*
Y5340D01*
X45318D01*
X34281Y5700D02*
X34161Y5820D01*
X33922D01*
X33802Y5700D01*
Y5220D01*
X33922Y5100D01*
X34161D01*
X34281Y5220D01*
X34641Y5100D02*
X34881D01*
X35001Y5220D01*
Y5460D01*
X34881Y5580D01*
X34641D01*
X34521Y5460D01*
Y5220D01*
X34641Y5100D01*
X35241Y5580D02*
Y5220D01*
X35361Y5100D01*
X35721D01*
Y5580D01*
X35961Y5100D02*
Y5580D01*
X36321D01*
X36441Y5460D01*
Y5100D01*
X36801Y5700D02*
Y5580D01*
X36681D01*
X36921D01*
X36801D01*
Y5220D01*
X36921Y5100D01*
X29223Y5700D02*
X29103Y5820D01*
X28863D01*
X28743Y5700D01*
Y5580D01*
X28863Y5460D01*
X29103D01*
X29223Y5340D01*
Y5220D01*
X29103Y5100D01*
X28863D01*
X28743Y5220D01*
X29463Y5580D02*
Y5220D01*
X29583Y5100D01*
X29942D01*
Y4980D01*
X29822Y4860D01*
X29703D01*
X29942Y5100D02*
Y5580D01*
X30182Y5100D02*
Y5580D01*
X30302D01*
X30422Y5460D01*
Y5100D01*
Y5460D01*
X30542Y5580D01*
X30662Y5460D01*
Y5100D01*
X30902Y5820D02*
Y5100D01*
X31262D01*
X31382Y5220D01*
Y5340D01*
Y5460D01*
X31262Y5580D01*
X30902D01*
X31742Y5100D02*
X31982D01*
X32102Y5220D01*
Y5460D01*
X31982Y5580D01*
X31742D01*
X31622Y5460D01*
Y5220D01*
X31742Y5100D01*
X32342D02*
X32582D01*
X32462D01*
Y5820D01*
X32342D01*
M02*
