G04*
G04 #@! TF.GenerationSoftware,Altium Limited,Altium Designer,23.1.1 (15)*
G04*
G04 Layer_Color=8388736*
%FSLAX24Y24*%
%MOIN*%
G70*
G04*
G04 #@! TF.SameCoordinates,EDFB4F86-8D80-4751-AEB2-894B5B2271B4*
G04*
G04*
G04 #@! TF.FilePolarity,Positive*
G04*
G01*
G75*
%ADD16C,0.0100*%
%ADD17C,0.0060*%
D16*
X25200Y11183D02*
X25400Y10583D01*
X25000D02*
X25200Y11183D01*
X25000Y15233D02*
X25200Y14633D01*
X25400Y15233D01*
X25200Y10183D02*
Y11183D01*
Y14633D02*
Y15633D01*
X21360Y14633D02*
X25300D01*
X20810Y11183D02*
X25300D01*
X0Y15797D02*
X600Y15997D01*
X0Y15797D02*
X600Y15597D01*
X20585D02*
X21185Y15797D01*
X20585Y15997D02*
X21185Y15797D01*
X0D02*
X7773D01*
X13092D02*
X21185D01*
X0Y175D02*
Y15897D01*
X21185Y175D02*
Y15897D01*
X23650Y600D02*
X23850Y0D01*
X24050Y600D01*
X23850Y14633D02*
X24050Y14033D01*
X23650D02*
X23850Y14633D01*
Y0D02*
Y4497D01*
Y9816D02*
Y14633D01*
X175Y0D02*
X23950D01*
X175Y14633D02*
X23950D01*
D17*
X26140Y11098D02*
X26040Y11198D01*
Y11398D01*
X26140Y11498D01*
X26240D01*
X26340Y11398D01*
X26440Y11498D01*
X26540D01*
X26640Y11398D01*
Y11198D01*
X26540Y11098D01*
X26440D01*
X26340Y11198D01*
X26240Y11098D01*
X26140D01*
X26340Y11198D02*
Y11398D01*
X26640Y11698D02*
X26540D01*
Y11798D01*
X26640D01*
Y11698D01*
X26040Y12198D02*
Y12598D01*
X26140D01*
X26540Y12198D01*
X26640D01*
X26040Y13198D02*
X26140Y12998D01*
X26340Y12798D01*
X26540D01*
X26640Y12898D01*
Y13098D01*
X26540Y13198D01*
X26440D01*
X26340Y13098D01*
Y12798D01*
X26640Y13397D02*
X26240D01*
Y13497D01*
X26340Y13597D01*
X26640D01*
X26340D01*
X26240Y13697D01*
X26340Y13797D01*
X26640D01*
Y13997D02*
X26240D01*
Y14097D01*
X26340Y14197D01*
X26640D01*
X26340D01*
X26240Y14297D01*
X26340Y14397D01*
X26640D01*
X8333Y16037D02*
X7933D01*
Y15737D01*
X8133Y15837D01*
X8233D01*
X8333Y15737D01*
Y15538D01*
X8233Y15438D01*
X8033D01*
X7933Y15538D01*
X8533Y15937D02*
X8633Y16037D01*
X8833D01*
X8933Y15937D01*
Y15837D01*
X8833Y15737D01*
X8733D01*
X8833D01*
X8933Y15638D01*
Y15538D01*
X8833Y15438D01*
X8633D01*
X8533Y15538D01*
X9133Y15438D02*
Y15538D01*
X9233D01*
Y15438D01*
X9133D01*
X9633Y15937D02*
X9733Y16037D01*
X9933D01*
X10033Y15937D01*
Y15837D01*
X9933Y15737D01*
X10033Y15638D01*
Y15538D01*
X9933Y15438D01*
X9733D01*
X9633Y15538D01*
Y15638D01*
X9733Y15737D01*
X9633Y15837D01*
Y15937D01*
X9733Y15737D02*
X9933D01*
X10233Y15438D02*
X10433D01*
X10333D01*
Y16037D01*
X10233Y15937D01*
X10733D02*
X10832Y16037D01*
X11032D01*
X11132Y15937D01*
Y15538D01*
X11032Y15438D01*
X10832D01*
X10733Y15538D01*
Y15937D01*
X11332D02*
X11432Y16037D01*
X11632D01*
X11732Y15937D01*
Y15538D01*
X11632Y15438D01*
X11432D01*
X11332Y15538D01*
Y15937D01*
X11932Y15438D02*
Y15837D01*
X12032D01*
X12132Y15737D01*
Y15438D01*
Y15737D01*
X12232Y15837D01*
X12332Y15737D01*
Y15438D01*
X12532D02*
Y15837D01*
X12632D01*
X12732Y15737D01*
Y15438D01*
Y15737D01*
X12832Y15837D01*
X12932Y15737D01*
Y15438D01*
X23710Y4657D02*
X23610Y4757D01*
Y4957D01*
X23710Y5057D01*
X23810D01*
X23910Y4957D01*
Y4857D01*
Y4957D01*
X24010Y5057D01*
X24110D01*
X24210Y4957D01*
Y4757D01*
X24110Y4657D01*
X23610Y5257D02*
Y5657D01*
X23710D01*
X24110Y5257D01*
X24210D01*
Y5857D02*
X24110D01*
Y5957D01*
X24210D01*
Y5857D01*
Y6357D02*
Y6557D01*
Y6457D01*
X23610D01*
X23710Y6357D01*
X23610Y7256D02*
X23710Y7056D01*
X23910Y6856D01*
X24110D01*
X24210Y6956D01*
Y7156D01*
X24110Y7256D01*
X24010D01*
X23910Y7156D01*
Y6856D01*
X23610Y7456D02*
Y7856D01*
X23710D01*
X24110Y7456D01*
X24210D01*
X23710Y8056D02*
X23610Y8156D01*
Y8356D01*
X23710Y8456D01*
X24110D01*
X24210Y8356D01*
Y8156D01*
X24110Y8056D01*
X23710D01*
X24210Y8656D02*
X23810D01*
Y8756D01*
X23910Y8856D01*
X24210D01*
X23910D01*
X23810Y8956D01*
X23910Y9056D01*
X24210D01*
Y9256D02*
X23810D01*
Y9356D01*
X23910Y9456D01*
X24210D01*
X23910D01*
X23810Y9556D01*
X23910Y9656D01*
X24210D01*
M02*
